{"glyphs":{"0":{"ha":781,"x_min":62,"x_max":720,"o":"m 391 -11 q 212 40 286 -11 q 100 191 139 91 q 62 439 62 292 l 62 555 q 100 805 62 704 q 212 959 139 907 q 391 1010 286 1010 q 570 959 496 1010 q 681 805 643 907 q 720 555 720 704 l 720 439 q 681 191 720 292 q 570 40 643 91 q 391 -11 496 -11 m 391 159 q 470 188 437 159 q 518 273 502 216 q 534 411 534 329 l 534 588 q 518 727 534 670 q 470 812 502 783 q 391 841 437 841 q 313 812 345 841 q 264 727 281 784 q 247 588 247 671 l 247 411 q 263 273 247 329 q 312 188 280 216 q 391 159 345 159 m 206 250 l 132 372 l 578 748 l 648 628 l 206 250 z "},"1":{"ha":781,"x_min":116,"x_max":688,"o":"m 329 0 l 329 823 l 365 787 l 127 684 l 127 867 l 459 1000 l 515 1000 l 515 0 l 329 0 m 116 0 l 116 165 l 688 165 l 688 0 l 116 0 z "},"2":{"ha":781,"x_min":66,"x_max":718,"o":"m 74 0 l 74 44 l 340 389 q 428 502 386 447 q 497 608 470 557 q 524 709 524 660 q 507 776 524 746 q 461 823 490 806 q 395 840 432 840 q 322 820 354 840 q 273 767 291 801 q 255 688 255 732 l 66 688 q 109 855 66 782 q 226 969 152 928 q 396 1010 300 1010 q 556 973 486 1010 q 668 869 627 935 q 709 718 709 804 q 681 583 709 646 q 607 456 654 519 q 502 321 560 393 l 383 174 l 383 168 l 513 171 l 718 171 l 718 0 l 74 0 z "},"3":{"ha":781,"x_min":56,"x_max":726,"o":"m 391 -11 q 222 26 298 -11 q 102 129 146 63 q 56 284 57 195 l 243 285 q 265 214 243 243 q 322 169 287 184 q 395 153 357 153 q 470 171 437 153 q 522 222 503 189 q 541 296 541 254 q 520 368 541 336 q 460 419 500 400 q 360 438 420 438 l 309 438 l 311 587 l 366 587 q 445 606 412 587 q 493 656 477 625 q 510 726 510 688 q 496 791 510 764 q 455 832 481 818 q 391 847 429 847 q 327 833 355 847 q 283 793 299 819 q 267 733 267 767 l 90 733 q 127 876 89 813 q 235 975 166 939 q 393 1010 304 1010 q 551 975 483 1010 q 657 879 618 939 q 695 743 695 818 q 657 609 695 667 q 555 520 620 552 q 409 489 490 488 l 409 540 q 572 511 500 543 q 685 420 644 479 q 726 279 726 360 q 682 131 726 197 q 562 27 637 66 q 391 -11 486 -11 z "},"4":{"ha":781,"x_min":28,"x_max":759,"o":"m 470 0 l 470 574 l 477 748 l 472 748 l 382 602 l 230 367 l 230 363 l 759 363 l 759 203 l 28 203 l 28 313 l 484 1000 l 652 1000 l 652 0 l 470 0 z "},"5":{"ha":781,"x_min":64,"x_max":721,"o":"m 386 -11 q 252 14 316 -11 q 138 83 187 39 q 64 188 88 128 l 237 263 q 273 208 250 232 q 328 172 297 184 q 391 159 358 159 q 469 180 435 159 q 522 238 503 201 q 541 323 541 275 q 521 405 541 369 q 466 461 501 440 q 385 481 430 481 q 334 474 359 481 q 288 453 309 467 q 257 422 268 440 l 108 445 l 108 1000 l 642 1000 l 642 829 l 288 829 l 288 516 l 246 579 q 313 619 267 602 q 414 637 359 637 q 572 595 503 637 q 681 482 641 554 q 721 318 721 410 q 676 147 721 221 q 556 31 632 73 q 386 -11 481 -11 z "},"6":{"ha":781,"x_min":47,"x_max":734,"o":"m 395 -11 q 217 34 296 -11 q 93 153 138 79 q 47 317 47 228 q 62 418 47 368 q 97 512 76 468 q 139 587 118 555 l 411 1000 l 618 1000 l 347 591 l 322 602 q 366 626 338 618 q 427 635 393 635 q 578 594 508 635 q 691 482 648 554 q 734 315 734 410 q 690 146 734 220 q 568 31 645 73 q 395 -11 492 -11 m 392 155 q 475 177 438 155 q 533 236 511 199 q 555 319 555 273 q 533 403 555 367 q 475 459 512 439 q 392 480 439 480 q 309 460 346 480 q 250 403 272 439 q 227 319 227 367 q 249 236 227 273 q 308 177 271 199 q 392 155 345 155 z "},"7":{"ha":781,"x_min":40,"x_max":741,"o":"m 138 0 l 493 823 l 493 829 l 40 829 l 40 1000 l 741 1000 l 741 965 l 338 0 l 138 0 z "},"8":{"ha":781,"x_min":46,"x_max":735,"o":"m 391 -11 q 217 27 295 -11 q 92 132 138 66 q 46 282 46 199 q 92 432 46 366 q 217 536 138 498 q 391 574 295 574 q 566 536 488 574 q 689 432 644 498 q 735 282 735 366 q 689 132 735 199 q 566 27 644 66 q 391 -11 488 -11 m 391 148 q 473 166 436 148 q 532 218 510 185 q 555 291 555 250 q 533 367 555 333 q 474 419 511 400 q 391 439 437 439 q 309 419 346 439 q 250 367 272 400 q 227 290 227 333 q 250 217 227 250 q 309 166 272 185 q 391 148 347 148 m 390 458 q 239 496 307 458 q 133 599 172 535 q 93 741 93 663 q 133 880 93 819 q 240 976 173 941 q 391 1010 308 1010 q 539 977 472 1010 q 647 882 606 943 q 688 740 688 821 q 648 597 688 661 q 541 495 608 533 q 390 458 473 458 m 391 591 q 459 609 429 591 q 508 658 490 627 q 526 726 526 689 q 508 793 526 764 q 458 838 489 822 q 391 854 427 854 q 324 838 355 854 q 274 793 293 822 q 255 726 255 764 q 273 660 255 690 q 323 610 292 629 q 391 591 354 591 z "},"9":{"ha":781,"x_min":47,"x_max":734,"o":"m 386 1010 q 564 966 486 1010 q 688 846 643 921 q 734 683 734 772 q 720 582 734 632 q 685 488 705 532 q 642 413 664 444 l 370 0 l 163 0 l 434 408 l 459 397 q 416 373 444 382 q 354 365 389 365 q 203 405 273 365 q 90 517 133 446 q 47 685 47 589 q 92 853 47 780 q 213 969 136 927 q 386 1010 290 1010 m 389 845 q 307 823 343 845 q 248 764 270 801 q 227 680 227 727 q 248 597 227 633 q 306 540 269 561 q 389 519 342 519 q 472 540 435 519 q 532 597 509 561 q 554 680 554 633 q 532 764 554 726 q 473 823 511 802 q 389 845 436 845 z "},"A":{"ha":781,"x_min":1,"x_max":781,"o":"m 1 0 l 295 1000 l 486 1000 l 781 0 l 583 0 l 513 268 l 498 342 l 393 766 l 388 766 l 283 342 l 268 268 l 198 0 l 1 0 m 184 217 l 184 380 l 597 380 l 597 217 l 184 217 z "},"Á":{"ha":781,"x_min":1,"x_max":781,"o":"m 1 0 l 295 1000 l 486 1000 l 781 0 l 583 0 l 513 268 l 498 342 l 393 766 l 388 766 l 283 342 l 268 268 l 198 0 l 1 0 m 184 217 l 184 380 l 597 380 l 597 217 l 184 217 m 391 1049 l 312 1130 l 534 1334 l 624 1218 l 391 1049 z "},"Ă":{"ha":781,"x_min":1,"x_max":781,"o":"m 1 0 l 295 1000 l 486 1000 l 781 0 l 583 0 l 513 268 l 498 342 l 393 766 l 388 766 l 283 342 l 268 268 l 198 0 l 1 0 m 184 217 l 184 380 l 597 380 l 597 217 l 184 217 m 391 1061 q 269 1085 325 1061 q 180 1157 214 1109 q 146 1271 146 1204 l 260 1271 q 301 1191 260 1217 q 391 1165 341 1165 q 483 1191 443 1165 q 521 1271 522 1217 l 635 1271 q 603 1157 637 1204 q 513 1085 570 1109 q 391 1061 457 1061 z "},"Ắ":{"ha":781,"x_min":1,"x_max":781,"o":"m 1 0 l 295 1000 l 486 1000 l 781 0 l 583 0 l 513 268 l 498 342 l 393 766 l 388 766 l 283 342 l 268 268 l 198 0 l 1 0 m 184 217 l 184 380 l 597 380 l 597 217 l 184 217 m 372 1225 l 305 1314 l 526 1506 l 608 1392 l 372 1225 m 391 1059 q 263 1086 318 1059 q 177 1159 208 1112 q 146 1269 146 1206 l 260 1269 q 297 1190 260 1220 q 391 1159 333 1159 q 486 1190 450 1159 q 522 1269 522 1220 l 635 1269 q 605 1159 635 1206 q 519 1086 574 1112 q 391 1059 464 1059 z "},"Ặ":{"ha":781,"x_min":1,"x_max":781,"o":"m 1 0 l 295 1000 l 486 1000 l 781 0 l 583 0 l 513 268 l 498 342 l 393 766 l 388 766 l 283 342 l 268 268 l 198 0 l 1 0 m 184 217 l 184 380 l 597 380 l 597 217 l 184 217 m 389 -318 q 305 -283 339 -318 q 271 -199 271 -249 q 305 -114 271 -149 q 389 -80 339 -80 q 474 -114 440 -80 q 508 -199 508 -149 q 474 -283 508 -249 q 389 -318 440 -318 m 391 1061 q 269 1085 325 1061 q 180 1157 214 1109 q 146 1271 146 1204 l 260 1271 q 301 1191 260 1217 q 391 1165 341 1165 q 483 1191 443 1165 q 521 1271 522 1217 l 635 1271 q 603 1157 637 1204 q 513 1085 570 1109 q 391 1061 457 1061 z "},"Ằ":{"ha":781,"x_min":1,"x_max":781,"o":"m 1 0 l 295 1000 l 486 1000 l 781 0 l 583 0 l 513 268 l 498 342 l 393 766 l 388 766 l 283 342 l 268 268 l 198 0 l 1 0 m 184 217 l 184 380 l 597 380 l 597 217 l 184 217 m 409 1225 l 174 1393 l 256 1506 l 476 1314 l 409 1225 m 391 1059 q 263 1086 318 1059 q 177 1159 208 1112 q 146 1269 146 1206 l 259 1269 q 295 1190 259 1220 q 391 1159 332 1159 q 485 1190 449 1159 q 521 1269 521 1220 l 635 1269 q 605 1159 635 1206 q 519 1086 574 1112 q 391 1059 464 1059 z "},"Ẳ":{"ha":781,"x_min":1,"x_max":781,"o":"m 1 0 l 295 1000 l 486 1000 l 781 0 l 583 0 l 513 268 l 498 342 l 393 766 l 388 766 l 283 342 l 268 268 l 198 0 l 1 0 m 184 217 l 184 380 l 597 380 l 597 217 l 184 217 m 391 1059 q 263 1086 318 1059 q 177 1159 208 1112 q 146 1269 146 1206 l 259 1269 q 295 1190 259 1220 q 391 1159 332 1159 q 485 1190 449 1159 q 521 1269 521 1220 l 635 1269 q 605 1159 635 1206 q 519 1086 574 1112 q 391 1059 464 1059 m 399 1212 l 332 1280 q 368 1311 352 1293 q 383 1350 383 1329 q 367 1381 383 1370 q 319 1392 350 1392 q 285 1389 306 1392 q 248 1379 264 1386 l 248 1491 q 290 1501 262 1497 q 340 1506 318 1506 q 454 1472 412 1506 q 497 1375 497 1438 q 467 1274 497 1318 q 399 1212 436 1230 z "},"Ẵ":{"ha":781,"x_min":1,"x_max":781,"o":"m 1 0 l 295 1000 l 486 1000 l 781 0 l 583 0 l 513 268 l 498 342 l 393 766 l 388 766 l 283 342 l 268 268 l 198 0 l 1 0 m 184 217 l 184 380 l 597 380 l 597 217 l 184 217 m 233 1314 q 273 1453 233 1399 q 384 1506 313 1506 q 446 1495 420 1506 q 489 1468 471 1483 q 523 1440 507 1452 q 558 1429 538 1429 q 596 1450 584 1429 q 608 1506 608 1470 l 724 1506 q 707 1409 725 1452 q 654 1339 688 1365 q 571 1314 619 1314 q 511 1325 536 1314 q 469 1353 487 1337 q 434 1381 450 1369 q 397 1393 418 1393 q 360 1373 373 1393 q 347 1314 348 1353 l 233 1314 m 478 1059 q 350 1086 406 1059 q 264 1159 295 1112 q 233 1269 233 1206 l 347 1269 q 383 1190 347 1220 q 478 1159 419 1159 q 572 1190 536 1159 q 608 1269 608 1220 l 723 1269 q 692 1159 723 1206 q 606 1086 661 1112 q 478 1059 551 1059 z "},"Ǎ":{"ha":781,"x_min":1,"x_max":781,"o":"m 1 0 l 295 1000 l 486 1000 l 781 0 l 583 0 l 513 268 l 498 342 l 393 766 l 388 766 l 283 342 l 268 268 l 198 0 l 1 0 m 184 217 l 184 380 l 597 380 l 597 217 l 184 217 m 225 1300 l 388 1173 l 392 1173 l 557 1300 l 640 1211 l 410 1047 l 371 1047 l 140 1211 l 225 1300 z "},"Â":{"ha":781,"x_min":1,"x_max":781,"o":"m 1 0 l 295 1000 l 486 1000 l 781 0 l 583 0 l 513 268 l 498 342 l 393 766 l 388 766 l 283 342 l 268 268 l 198 0 l 1 0 m 184 217 l 184 380 l 597 380 l 597 217 l 184 217 m 226 1051 l 141 1140 l 372 1304 l 411 1304 l 642 1140 l 559 1051 l 393 1178 l 389 1178 l 226 1051 z "},"Ấ":{"ha":781,"x_min":1,"x_max":822,"o":"m 1 0 l 295 1000 l 486 1000 l 781 0 l 583 0 l 513 268 l 498 342 l 393 766 l 388 766 l 283 342 l 268 268 l 198 0 l 1 0 m 184 217 l 184 380 l 597 380 l 597 217 l 184 217 m 607 1226 l 524 1286 l 733 1503 l 822 1385 l 607 1226 m 226 1042 l 141 1128 l 372 1292 l 411 1292 l 642 1128 l 559 1042 l 393 1167 l 389 1167 l 226 1042 z "},"Ậ":{"ha":781,"x_min":1,"x_max":781,"o":"m 1 0 l 295 1000 l 486 1000 l 781 0 l 583 0 l 513 268 l 498 342 l 393 766 l 388 766 l 283 342 l 268 268 l 198 0 l 1 0 m 184 217 l 184 380 l 597 380 l 597 217 l 184 217 m 389 -318 q 305 -283 339 -318 q 271 -199 271 -249 q 305 -114 271 -149 q 389 -80 339 -80 q 474 -114 440 -80 q 508 -199 508 -149 q 474 -283 508 -249 q 389 -318 440 -318 m 226 1051 l 141 1140 l 372 1304 l 411 1304 l 642 1140 l 559 1051 l 393 1178 l 389 1178 l 226 1051 z "},"Ầ":{"ha":781,"x_min":-41,"x_max":781,"o":"m 1 0 l 295 1000 l 486 1000 l 781 0 l 583 0 l 513 268 l 498 342 l 393 766 l 388 766 l 283 342 l 268 268 l 198 0 l 1 0 m 184 217 l 184 380 l 597 380 l 597 217 l 184 217 m 174 1226 l -41 1385 l 48 1503 l 258 1286 l 174 1226 m 555 1041 l 393 1167 l 389 1167 l 223 1041 l 140 1128 l 370 1292 l 410 1292 l 640 1128 l 555 1041 z "},"Ẩ":{"ha":781,"x_min":1,"x_max":781,"o":"m 1 0 l 295 1000 l 486 1000 l 781 0 l 583 0 l 513 268 l 498 342 l 393 766 l 388 766 l 283 342 l 268 268 l 198 0 l 1 0 m 184 217 l 184 380 l 597 380 l 597 217 l 184 217 m 590 1227 l 522 1278 q 556 1312 543 1295 q 569 1346 569 1330 q 552 1380 569 1368 q 503 1392 535 1392 q 469 1389 486 1392 q 433 1379 452 1385 l 433 1491 q 476 1501 448 1498 q 528 1505 505 1505 q 640 1473 597 1505 q 682 1373 682 1441 q 667 1310 682 1339 q 631 1260 652 1282 q 590 1227 610 1239 m 225 1042 l 140 1128 l 371 1292 l 410 1292 l 641 1128 l 557 1042 l 392 1167 l 388 1167 l 225 1042 z "},"Ẫ":{"ha":781,"x_min":1,"x_max":781,"o":"m 1 0 l 295 1000 l 486 1000 l 781 0 l 583 0 l 513 268 l 498 342 l 393 766 l 388 766 l 283 342 l 268 268 l 198 0 l 1 0 m 184 217 l 184 380 l 597 380 l 597 217 l 184 217 m 144 1314 q 183 1453 142 1399 q 295 1506 224 1506 q 356 1495 332 1506 q 399 1468 381 1483 q 433 1440 416 1452 q 469 1429 449 1429 q 506 1450 493 1429 q 519 1506 518 1472 l 635 1506 q 621 1409 636 1452 q 574 1339 605 1365 q 496 1314 543 1314 q 435 1325 459 1314 q 392 1353 410 1337 q 358 1381 374 1369 q 323 1393 342 1393 q 278 1373 296 1393 q 258 1314 260 1354 l 144 1314 m 224 1042 l 139 1128 l 370 1292 l 409 1292 l 640 1128 l 556 1042 l 391 1167 l 387 1167 l 224 1042 z "},"Ȁ":{"ha":781,"x_min":1,"x_max":781,"o":"m 1 0 l 295 1000 l 486 1000 l 781 0 l 583 0 l 513 268 l 498 342 l 393 766 l 388 766 l 283 342 l 268 268 l 198 0 l 1 0 m 184 217 l 184 380 l 597 380 l 597 217 l 184 217 m 222 1064 l 54 1282 l 179 1352 l 315 1110 l 222 1064 m 472 1064 l 310 1282 l 435 1352 l 568 1110 l 472 1064 z "},"Ä":{"ha":781,"x_min":1,"x_max":781,"o":"m 1 0 l 295 1000 l 486 1000 l 781 0 l 583 0 l 513 268 l 498 342 l 393 766 l 388 766 l 283 342 l 268 268 l 198 0 l 1 0 m 184 217 l 184 380 l 597 380 l 597 217 l 184 217 m 552 1056 q 472 1087 504 1056 q 441 1165 441 1118 q 472 1244 441 1213 q 552 1275 504 1275 q 629 1244 598 1275 q 660 1165 659 1213 q 629 1087 659 1118 q 552 1056 598 1056 m 235 1056 q 157 1087 188 1056 q 125 1165 125 1118 q 157 1244 125 1213 q 235 1275 188 1275 q 313 1244 282 1275 q 344 1165 344 1213 q 313 1087 344 1118 q 235 1056 282 1056 z "},"Ȧ":{"ha":781,"x_min":1,"x_max":781,"o":"m 1 0 l 295 1000 l 486 1000 l 781 0 l 583 0 l 513 268 l 498 342 l 393 766 l 388 766 l 283 342 l 268 268 l 198 0 l 1 0 m 184 217 l 184 380 l 597 380 l 597 217 l 184 217 m 390 1062 q 306 1097 340 1062 q 271 1181 271 1131 q 306 1266 271 1232 q 390 1300 340 1300 q 475 1266 441 1300 q 509 1181 509 1232 q 475 1097 509 1131 q 390 1062 441 1062 z "},"Ạ":{"ha":781,"x_min":1,"x_max":781,"o":"m 1 0 l 295 1000 l 486 1000 l 781 0 l 583 0 l 513 268 l 498 342 l 393 766 l 388 766 l 283 342 l 268 268 l 198 0 l 1 0 m 184 217 l 184 380 l 597 380 l 597 217 l 184 217 m 389 -318 q 305 -283 339 -318 q 271 -199 271 -249 q 305 -114 271 -149 q 389 -80 339 -80 q 474 -114 440 -80 q 508 -199 508 -149 q 474 -283 508 -249 q 389 -318 440 -318 z "},"À":{"ha":781,"x_min":1,"x_max":781,"o":"m 1 0 l 295 1000 l 486 1000 l 781 0 l 583 0 l 513 268 l 498 342 l 393 766 l 388 766 l 283 342 l 268 268 l 198 0 l 1 0 m 184 217 l 184 380 l 597 380 l 597 217 l 184 217 m 391 1049 l 157 1218 l 247 1334 l 469 1130 l 391 1049 z "},"Ả":{"ha":781,"x_min":1,"x_max":781,"o":"m 1 0 l 295 1000 l 486 1000 l 781 0 l 583 0 l 513 268 l 498 342 l 393 766 l 388 766 l 283 342 l 268 268 l 198 0 l 1 0 m 184 217 l 184 380 l 597 380 l 597 217 l 184 217 m 413 1059 l 345 1127 q 381 1158 366 1141 q 397 1197 397 1176 q 380 1228 397 1217 q 332 1239 363 1239 q 298 1236 319 1239 q 262 1227 277 1234 l 262 1337 q 304 1349 276 1345 q 354 1353 332 1353 q 468 1319 426 1353 q 511 1222 511 1286 q 480 1121 511 1165 q 413 1059 450 1078 z "},"Ȃ":{"ha":781,"x_min":1,"x_max":781,"o":"m 1 0 l 295 1000 l 486 1000 l 781 0 l 583 0 l 513 268 l 498 342 l 393 766 l 388 766 l 283 342 l 268 268 l 198 0 l 1 0 m 184 217 l 184 380 l 597 380 l 597 217 l 184 217 m 389 1274 q 512 1250 456 1274 q 603 1179 569 1225 q 635 1064 636 1132 l 519 1064 q 481 1145 521 1120 q 389 1170 442 1170 q 299 1145 340 1170 q 258 1064 259 1120 l 145 1064 q 179 1179 145 1132 q 268 1250 213 1225 q 389 1274 323 1274 z "},"Ā":{"ha":781,"x_min":1,"x_max":781,"o":"m 1 0 l 295 1000 l 486 1000 l 781 0 l 583 0 l 513 268 l 498 342 l 393 766 l 388 766 l 283 342 l 268 268 l 198 0 l 1 0 m 184 217 l 184 380 l 597 380 l 597 217 l 184 217 m 130 1101 l 130 1227 l 650 1227 l 650 1101 l 130 1101 z "},"Ą":{"ha":781,"x_min":1,"x_max":787,"o":"m 1 0 l 295 1000 l 486 1000 l 781 0 l 583 0 l 513 268 l 498 342 l 393 766 l 388 766 l 283 342 l 268 268 l 198 0 l 1 0 m 184 217 l 184 380 l 597 380 l 597 217 l 184 217 m 684 -289 q 582 -253 621 -289 q 543 -157 543 -216 q 581 -58 543 -102 q 684 31 618 -14 l 781 0 q 721 -45 749 -23 q 676 -90 693 -67 q 659 -136 659 -112 q 674 -169 659 -157 q 716 -181 688 -181 q 756 -175 735 -181 q 787 -162 777 -170 l 787 -269 q 738 -283 770 -277 q 684 -289 706 -289 z "},"Å":{"ha":781,"x_min":1,"x_max":781,"o":"m 1 0 l 295 1000 l 486 1000 l 781 0 l 583 0 l 513 268 l 498 342 l 393 766 l 388 766 l 283 342 l 268 268 l 198 0 l 1 0 m 184 217 l 184 380 l 597 380 l 597 217 l 184 217 m 391 1044 q 300 1067 340 1044 q 237 1130 260 1090 q 213 1219 213 1170 q 237 1310 213 1270 q 300 1374 260 1350 q 391 1397 340 1397 q 481 1374 441 1397 q 544 1310 521 1350 q 567 1219 567 1270 q 544 1130 567 1170 q 481 1067 521 1090 q 391 1044 441 1044 m 391 1147 q 440 1168 421 1147 q 459 1219 459 1190 q 440 1272 460 1253 q 391 1292 420 1292 q 342 1272 361 1292 q 321 1219 322 1253 q 341 1168 321 1190 q 391 1147 361 1147 z "},"Ǻ":{"ha":781,"x_min":1,"x_max":781,"o":"m 1 0 l 295 1000 l 486 1000 l 781 0 l 583 0 l 513 268 l 498 342 l 393 766 l 388 766 l 283 342 l 268 268 l 198 0 l 1 0 m 184 217 l 184 380 l 597 380 l 597 217 l 184 217 m 391 1039 q 275 1084 321 1039 q 228 1193 228 1128 q 275 1304 228 1260 q 391 1348 321 1348 q 506 1304 460 1348 q 553 1193 553 1260 q 507 1084 553 1128 q 391 1039 460 1039 m 391 1125 q 439 1145 420 1125 q 458 1194 458 1166 q 439 1242 458 1223 q 391 1261 420 1261 q 343 1242 363 1261 q 323 1193 323 1223 q 343 1145 323 1166 q 391 1125 363 1125 m 435 1380 l 357 1461 l 580 1664 l 669 1549 l 435 1380 z "},"Ã":{"ha":781,"x_min":1,"x_max":781,"o":"m 1 0 l 295 1000 l 486 1000 l 781 0 l 583 0 l 513 268 l 498 342 l 393 766 l 388 766 l 283 342 l 268 268 l 198 0 l 1 0 m 184 217 l 184 380 l 597 380 l 597 217 l 184 217 m 146 1070 q 185 1208 146 1154 q 296 1262 225 1262 q 359 1250 334 1262 q 401 1223 384 1238 q 435 1196 419 1208 q 469 1184 450 1184 q 509 1207 496 1184 q 522 1262 522 1230 l 636 1262 q 597 1125 637 1181 q 484 1070 557 1070 q 423 1082 448 1070 q 380 1110 399 1094 q 346 1138 362 1126 q 310 1150 330 1150 q 273 1128 285 1150 q 261 1070 261 1107 l 146 1070 z "},"Æ":{"ha":781,"x_min":7,"x_max":755,"o":"m 7 0 l 257 1000 l 429 1000 l 429 835 l 366 835 l 253 327 l 250 266 l 183 0 l 7 0 m 175 223 l 175 380 l 484 380 l 484 223 l 175 223 m 400 0 l 393 317 l 393 342 l 378 1000 l 755 1000 l 755 834 l 534 834 l 552 165 l 755 165 l 755 0 l 400 0 m 529 425 l 526 587 l 730 587 l 730 425 l 529 425 z "},"Ǽ":{"ha":781,"x_min":7,"x_max":755,"o":"m 7 0 l 257 1000 l 429 1000 l 429 835 l 366 835 l 253 327 l 250 266 l 183 0 l 7 0 m 175 223 l 175 380 l 484 380 l 484 223 l 175 223 m 400 0 l 393 317 l 393 342 l 378 1000 l 755 1000 l 755 834 l 534 834 l 552 165 l 755 165 l 755 0 l 400 0 m 529 425 l 526 587 l 730 587 l 730 425 l 529 425 m 492 1049 l 414 1130 l 636 1334 l 726 1218 l 492 1049 z "},"B":{"ha":781,"x_min":64,"x_max":735,"o":"m 236 0 l 236 171 l 429 171 q 515 207 482 171 q 549 304 549 243 q 514 397 549 363 q 424 431 480 431 l 231 431 l 231 582 l 382 582 q 438 598 414 582 q 475 643 462 614 q 489 709 489 672 q 458 797 489 765 q 380 829 428 829 l 231 829 l 231 1000 l 373 1000 q 534 967 467 1000 q 635 877 600 934 q 670 746 670 819 q 649 637 670 688 q 593 549 628 586 q 519 496 559 511 l 519 543 q 627 499 578 530 q 706 415 676 467 q 735 286 735 362 q 697 137 735 201 q 594 36 660 73 q 444 0 529 0 l 236 0 m 64 0 l 64 1000 l 252 1000 l 252 0 l 64 0 z "},"C":{"ha":781,"x_min":47,"x_max":740,"o":"m 494 -11 q 260 54 360 -11 q 103 234 159 118 q 47 501 47 349 q 102 767 47 652 q 256 946 157 882 q 487 1010 355 1010 q 617 987 547 1010 q 737 924 687 963 l 665 751 q 590 810 639 787 q 488 833 541 833 q 356 791 412 833 q 269 675 300 749 q 238 503 238 600 q 270 327 238 403 q 359 209 302 251 q 494 166 417 166 q 593 189 545 166 q 668 248 642 212 l 740 76 q 623 13 691 37 q 494 -11 555 -11 z "},"Ć":{"ha":781,"x_min":47,"x_max":740,"o":"m 494 -11 q 260 54 360 -11 q 103 234 159 118 q 47 501 47 349 q 102 767 47 652 q 256 946 157 882 q 487 1010 355 1010 q 617 987 547 1010 q 737 924 687 963 l 665 751 q 590 810 639 787 q 488 833 541 833 q 356 791 412 833 q 269 675 300 749 q 238 503 238 600 q 270 327 238 403 q 359 209 302 251 q 494 166 417 166 q 593 189 545 166 q 668 248 642 212 l 740 76 q 623 13 691 37 q 494 -11 555 -11 m 471 1049 l 393 1130 l 615 1334 l 705 1218 l 471 1049 z "},"Č":{"ha":781,"x_min":47,"x_max":740,"o":"m 494 -11 q 260 54 360 -11 q 103 234 159 119 q 47 501 47 349 q 102 767 47 652 q 256 946 157 882 q 487 1010 355 1010 q 617 987 547 1010 q 737 924 687 963 l 665 751 q 590 810 639 787 q 488 833 541 833 q 356 791 412 833 q 269 675 300 749 q 238 503 238 601 q 270 327 238 403 q 359 209 302 251 q 494 166 417 166 q 593 189 545 166 q 668 248 642 212 l 740 76 q 623 13 691 37 q 494 -11 555 -11 m 306 1300 l 469 1173 l 473 1173 l 638 1300 l 722 1211 l 491 1047 l 452 1047 l 221 1211 l 306 1300 z "},"Ç":{"ha":781,"x_min":47,"x_max":740,"o":"m 494 -11 q 260 54 360 -11 q 103 234 159 118 q 47 501 47 349 q 102 767 47 652 q 256 946 157 882 q 487 1010 355 1010 q 617 987 547 1010 q 737 924 687 963 l 665 751 q 590 810 639 787 q 488 833 541 833 q 356 791 412 833 q 269 675 300 749 q 238 503 238 600 q 270 327 238 403 q 359 209 302 251 q 494 166 417 166 q 593 189 545 166 q 668 248 642 212 l 740 76 q 623 13 691 37 q 494 -11 555 -11 m 370 -338 l 370 -243 q 472 -230 439 -246 q 505 -186 505 -214 q 478 -150 505 -165 q 405 -132 452 -135 l 448 0 l 530 0 l 492 -111 l 484 -67 q 581 -110 545 -77 q 616 -196 616 -143 q 557 -300 616 -260 q 370 -338 497 -340 z "},"Ḉ":{"ha":781,"x_min":47,"x_max":740,"o":"m 494 -11 q 260 54 360 -11 q 103 234 159 118 q 47 501 47 349 q 102 767 47 652 q 256 946 157 882 q 487 1010 355 1010 q 617 987 547 1010 q 737 924 687 963 l 665 751 q 590 810 639 787 q 488 833 541 833 q 356 791 412 833 q 269 675 300 749 q 238 503 238 600 q 270 327 238 403 q 359 209 302 251 q 494 166 417 166 q 593 189 545 166 q 668 248 642 212 l 740 76 q 623 13 691 37 q 494 -11 555 -11 m 370 -338 l 370 -243 q 472 -230 439 -246 q 505 -186 505 -214 q 478 -150 505 -165 q 405 -132 452 -135 l 448 0 l 530 0 l 492 -111 l 484 -67 q 581 -110 545 -77 q 616 -196 616 -143 q 557 -300 616 -260 q 370 -338 497 -340 m 471 1049 l 393 1130 l 615 1334 l 705 1218 l 471 1049 z "},"Ĉ":{"ha":781,"x_min":47,"x_max":740,"o":"m 494 -11 q 260 54 360 -11 q 103 234 159 118 q 47 501 47 349 q 102 767 47 652 q 256 946 157 882 q 487 1010 355 1010 q 617 987 547 1010 q 737 924 687 963 l 665 751 q 590 810 639 787 q 488 833 541 833 q 356 791 412 833 q 269 675 300 749 q 238 503 238 600 q 270 327 238 403 q 359 209 302 251 q 494 166 417 166 q 593 189 545 166 q 668 248 642 212 l 740 76 q 623 13 691 37 q 494 -11 555 -11 m 307 1051 l 222 1140 l 454 1304 l 492 1304 l 723 1140 l 640 1051 l 474 1178 l 470 1178 l 307 1051 z "},"Ċ":{"ha":781,"x_min":47,"x_max":740,"o":"m 494 -11 q 260 54 360 -11 q 103 234 159 118 q 47 501 47 349 q 102 767 47 652 q 256 946 157 882 q 487 1010 355 1010 q 617 987 547 1010 q 737 924 687 963 l 665 751 q 590 810 639 787 q 488 833 541 833 q 356 791 412 833 q 269 675 300 749 q 238 503 238 600 q 270 327 238 403 q 359 209 302 251 q 494 166 417 166 q 593 189 545 166 q 668 248 642 212 l 740 76 q 623 13 691 37 q 494 -11 555 -11 m 471 1062 q 386 1097 420 1062 q 352 1181 352 1131 q 386 1266 352 1232 q 471 1300 420 1300 q 555 1266 522 1300 q 589 1181 589 1232 q 555 1097 589 1131 q 471 1062 522 1062 z "},"D":{"ha":781,"x_min":61,"x_max":739,"o":"m 61 0 l 61 1000 l 328 1000 q 545 937 453 1000 q 688 764 637 875 q 739 507 739 653 q 690 242 739 357 q 552 64 641 128 q 342 0 463 0 l 61 0 m 248 174 l 349 174 q 458 216 412 174 q 528 333 503 258 q 552 507 552 408 q 528 674 552 602 q 458 785 503 745 q 349 825 412 825 l 248 825 l 248 174 z "},"Ǆ":{"ha":781,"x_min":35,"x_max":760,"o":"m 35 0 l 35 1000 l 178 1000 q 355 870 292 1000 q 418 507 418 741 q 359 133 418 267 q 194 0 300 0 l 35 0 m 174 170 l 197 170 q 256 259 234 170 q 278 507 278 347 q 256 744 278 659 q 197 829 234 829 l 174 829 l 174 170 m 408 0 l 408 32 l 586 829 l 586 831 l 430 831 l 430 1000 l 760 1000 l 760 965 l 581 171 l 581 168 l 753 168 l 753 0 l 408 0 m 566 1046 l 411 1211 l 493 1295 l 581 1175 l 582 1175 l 675 1295 l 754 1211 l 597 1046 l 566 1046 z "},"Ď":{"ha":781,"x_min":61,"x_max":739,"o":"m 61 0 l 61 1000 l 328 1000 q 545 937 453 1000 q 688 764 637 875 q 739 507 739 653 q 690 242 739 357 q 552 64 641 128 q 342 0 463 0 l 61 0 m 248 174 l 349 174 q 458 216 412 174 q 528 333 503 258 q 552 507 552 408 q 528 674 552 602 q 458 785 503 745 q 349 825 412 825 l 248 825 l 248 174 m 211 1300 l 374 1173 l 377 1173 l 543 1300 l 626 1211 l 395 1047 l 357 1047 l 125 1211 l 211 1300 z "},"Đ":{"ha":781,"x_min":7,"x_max":751,"o":"m 103 0 l 103 1000 l 358 1000 q 566 937 477 1000 q 702 764 654 875 q 751 507 751 653 q 704 242 751 357 q 572 64 657 128 q 372 0 487 0 l 103 0 m 279 174 l 378 174 q 483 216 439 174 q 551 333 527 258 q 574 507 574 408 q 551 674 574 602 q 484 785 528 745 q 378 825 439 825 l 279 825 l 279 174 m 7 453 l 7 558 l 410 558 l 410 453 l 7 453 z "},"Ḍ":{"ha":781,"x_min":61,"x_max":739,"o":"m 61 0 l 61 1000 l 328 1000 q 545 937 453 1000 q 688 764 637 875 q 739 507 739 653 q 690 242 739 357 q 552 64 641 128 q 342 0 463 0 l 61 0 m 248 174 l 349 174 q 458 216 412 174 q 528 333 503 258 q 552 507 552 408 q 528 674 552 602 q 458 785 503 745 q 349 825 412 825 l 248 825 l 248 174 m 374 -318 q 290 -283 324 -318 q 256 -199 256 -249 q 290 -114 256 -149 q 374 -80 324 -80 q 459 -114 425 -80 q 493 -199 493 -149 q 459 -283 493 -249 q 374 -318 425 -318 z "},"Ḏ":{"ha":781,"x_min":61,"x_max":739,"o":"m 61 0 l 61 1000 l 328 1000 q 545 937 453 1000 q 688 764 637 875 q 739 507 739 653 q 690 242 739 357 q 552 64 641 128 q 342 0 463 0 l 61 0 m 248 174 l 349 174 q 458 216 412 174 q 528 333 503 258 q 552 507 552 408 q 528 674 552 602 q 458 785 503 745 q 349 825 412 825 l 248 825 l 248 174 m 109 -281 l 109 -166 l 640 -166 l 640 -281 l 109 -281 z "},"ǅ":{"ha":781,"x_min":35,"x_max":766,"o":"m 35 0 l 35 1000 l 178 1000 q 355 870 292 1000 q 418 507 418 741 q 359 133 418 267 q 194 0 300 0 l 35 0 m 174 170 l 197 170 q 256 258 234 170 q 278 505 278 345 q 256 743 278 657 q 197 829 234 829 l 174 829 l 174 170 m 414 0 l 414 33 l 595 589 l 595 592 l 448 592 l 448 726 l 755 726 l 755 691 l 576 138 l 576 134 l 749 134 l 749 0 l 414 0 m 574 804 l 415 973 l 479 1053 l 589 926 l 592 926 l 702 1053 l 766 973 l 606 804 l 574 804 z "},"Ð":{"ha":781,"x_min":7,"x_max":751,"o":"m 103 0 l 103 1000 l 358 1000 q 566 937 477 1000 q 702 764 654 875 q 751 507 751 653 q 704 242 751 357 q 572 64 657 128 q 372 0 487 0 l 103 0 m 279 174 l 378 174 q 483 216 439 174 q 551 333 527 258 q 574 507 574 408 q 551 674 574 602 q 484 785 528 745 q 378 825 439 825 l 279 825 l 279 174 m 7 453 l 7 558 l 410 558 l 410 453 l 7 453 z "},"E":{"ha":781,"x_min":117,"x_max":698,"o":"m 117 0 l 117 1000 l 698 1000 l 698 825 l 311 825 l 311 591 l 635 591 l 635 422 l 311 422 l 311 174 l 698 174 l 698 0 l 117 0 z "},"É":{"ha":781,"x_min":117,"x_max":698,"o":"m 117 0 l 117 1000 l 698 1000 l 698 825 l 311 825 l 311 591 l 635 591 l 635 422 l 311 422 l 311 174 l 698 174 l 698 0 l 117 0 m 414 1049 l 335 1130 l 557 1334 l 647 1218 l 414 1049 z "},"Ĕ":{"ha":781,"x_min":117,"x_max":698,"o":"m 117 0 l 117 1000 l 698 1000 l 698 825 l 311 825 l 311 591 l 635 591 l 635 422 l 311 422 l 311 174 l 698 174 l 698 0 l 117 0 m 414 1061 q 293 1085 349 1061 q 204 1157 237 1109 q 170 1271 170 1204 l 283 1271 q 325 1191 284 1217 q 414 1165 365 1165 q 506 1191 467 1165 q 545 1271 546 1217 l 659 1271 q 627 1157 661 1204 q 537 1085 593 1109 q 414 1061 481 1061 z "},"Ě":{"ha":781,"x_min":117,"x_max":698,"o":"m 117 0 l 117 1000 l 698 1000 l 698 825 l 311 825 l 311 591 l 635 591 l 635 422 l 311 422 l 311 174 l 698 174 l 698 0 l 117 0 m 248 1300 l 411 1173 l 415 1173 l 581 1300 l 664 1211 l 433 1047 l 394 1047 l 163 1211 l 248 1300 z "},"Ḝ":{"ha":781,"x_min":117,"x_max":698,"o":"m 117 0 l 117 1000 l 698 1000 l 698 825 l 311 825 l 311 591 l 635 591 l 635 422 l 311 422 l 311 174 l 698 174 l 698 0 l 117 0 m 295 -338 l 295 -243 q 397 -230 365 -246 q 430 -186 430 -214 q 404 -150 430 -165 q 330 -132 378 -135 l 373 0 l 455 0 l 418 -111 l 409 -67 q 506 -110 470 -77 q 542 -196 542 -143 q 482 -300 542 -260 q 295 -338 422 -340 m 414 1061 q 293 1085 349 1061 q 204 1157 237 1109 q 170 1271 170 1204 l 283 1271 q 325 1191 284 1217 q 414 1165 365 1165 q 506 1191 467 1165 q 545 1271 546 1217 l 659 1271 q 627 1157 661 1204 q 537 1085 593 1109 q 414 1061 481 1061 z "},"Ê":{"ha":781,"x_min":117,"x_max":698,"o":"m 117 0 l 117 1000 l 698 1000 l 698 825 l 311 825 l 311 591 l 635 591 l 635 422 l 311 422 l 311 174 l 698 174 l 698 0 l 117 0 m 250 1051 l 165 1140 l 396 1304 l 435 1304 l 665 1140 l 583 1051 l 416 1178 l 412 1178 l 250 1051 z "},"Ế":{"ha":781,"x_min":117,"x_max":845,"o":"m 117 0 l 117 1000 l 698 1000 l 698 825 l 311 825 l 311 591 l 635 591 l 635 422 l 311 422 l 311 174 l 698 174 l 698 0 l 117 0 m 630 1226 l 547 1286 l 756 1503 l 845 1385 l 630 1226 m 249 1042 l 164 1128 l 395 1292 l 434 1292 l 665 1128 l 582 1042 l 416 1167 l 412 1167 l 249 1042 z "},"Ệ":{"ha":781,"x_min":117,"x_max":698,"o":"m 117 0 l 117 1000 l 698 1000 l 698 825 l 311 825 l 311 591 l 635 591 l 635 422 l 311 422 l 311 174 l 698 174 l 698 0 l 117 0 m 417 -318 q 333 -283 367 -318 q 298 -199 298 -249 q 333 -114 298 -149 q 417 -80 367 -80 q 502 -114 468 -80 q 536 -199 536 -149 q 502 -283 536 -249 q 417 -318 468 -318 m 254 1051 l 169 1140 l 400 1304 l 439 1304 l 669 1140 l 587 1051 l 420 1178 l 416 1178 l 254 1051 z "},"Ề":{"ha":781,"x_min":-18,"x_max":698,"o":"m 117 0 l 117 1000 l 698 1000 l 698 825 l 311 825 l 311 591 l 635 591 l 635 422 l 311 422 l 311 174 l 698 174 l 698 0 l 117 0 m 198 1226 l -18 1385 l 72 1503 l 281 1286 l 198 1226 m 578 1041 l 416 1167 l 412 1167 l 246 1041 l 163 1128 l 394 1292 l 433 1292 l 664 1128 l 578 1041 z "},"Ể":{"ha":781,"x_min":117,"x_max":705,"o":"m 117 0 l 117 1000 l 698 1000 l 698 825 l 311 825 l 311 591 l 635 591 l 635 422 l 311 422 l 311 174 l 698 174 l 698 0 l 117 0 m 613 1227 l 545 1278 q 579 1312 566 1295 q 592 1346 592 1330 q 575 1380 592 1368 q 526 1392 558 1392 q 492 1389 509 1392 q 456 1379 475 1385 l 456 1491 q 499 1501 471 1498 q 551 1505 528 1505 q 663 1473 621 1505 q 705 1373 705 1441 q 690 1310 705 1339 q 654 1260 675 1282 q 613 1227 633 1239 m 248 1042 l 163 1128 l 394 1292 l 433 1292 l 664 1128 l 581 1042 l 415 1167 l 411 1167 l 248 1042 z "},"Ễ":{"ha":781,"x_min":117,"x_max":698,"o":"m 117 0 l 117 1000 l 698 1000 l 698 825 l 311 825 l 311 591 l 635 591 l 635 422 l 311 422 l 311 174 l 698 174 l 698 0 l 117 0 m 168 1314 q 207 1453 165 1399 q 318 1506 248 1506 q 379 1495 355 1506 q 422 1468 404 1483 q 456 1440 439 1452 q 492 1429 472 1429 q 529 1450 516 1429 q 542 1506 541 1472 l 659 1506 q 644 1409 659 1452 q 597 1339 628 1365 q 519 1314 566 1314 q 458 1325 482 1314 q 415 1353 433 1337 q 381 1381 397 1369 q 347 1393 366 1393 q 301 1373 319 1393 q 281 1314 283 1354 l 168 1314 m 247 1042 l 162 1128 l 393 1292 l 432 1292 l 663 1128 l 579 1042 l 414 1167 l 410 1167 l 247 1042 z "},"Ȅ":{"ha":781,"x_min":77,"x_max":698,"o":"m 117 0 l 117 1000 l 698 1000 l 698 825 l 311 825 l 311 591 l 635 591 l 635 422 l 311 422 l 311 174 l 698 174 l 698 0 l 117 0 m 245 1064 l 77 1282 l 202 1352 l 338 1110 l 245 1064 m 495 1064 l 333 1282 l 458 1352 l 591 1110 l 495 1064 z "},"Ë":{"ha":781,"x_min":117,"x_max":698,"o":"m 117 0 l 117 1000 l 698 1000 l 698 825 l 311 825 l 311 591 l 635 591 l 635 422 l 311 422 l 311 174 l 698 174 l 698 0 l 117 0 m 575 1056 q 495 1087 527 1056 q 464 1165 464 1118 q 495 1244 464 1213 q 575 1275 527 1275 q 652 1244 621 1275 q 683 1165 682 1213 q 652 1087 682 1118 q 575 1056 621 1056 m 258 1056 q 180 1087 211 1056 q 149 1165 149 1118 q 180 1244 149 1213 q 258 1275 211 1275 q 336 1244 305 1275 q 367 1165 367 1213 q 336 1087 367 1118 q 258 1056 305 1056 z "},"Ė":{"ha":781,"x_min":117,"x_max":698,"o":"m 117 0 l 117 1000 l 698 1000 l 698 825 l 311 825 l 311 591 l 635 591 l 635 422 l 311 422 l 311 174 l 698 174 l 698 0 l 117 0 m 413 1062 q 329 1097 363 1062 q 294 1181 294 1131 q 329 1266 294 1232 q 413 1300 363 1300 q 498 1266 464 1300 q 532 1181 532 1232 q 498 1097 532 1131 q 413 1062 464 1062 z "},"Ẹ":{"ha":781,"x_min":117,"x_max":698,"o":"m 117 0 l 117 1000 l 698 1000 l 698 825 l 311 825 l 311 591 l 635 591 l 635 422 l 311 422 l 311 174 l 698 174 l 698 0 l 117 0 m 418 -318 q 334 -283 368 -318 q 300 -199 300 -249 q 334 -114 300 -149 q 418 -80 368 -80 q 503 -114 469 -80 q 537 -199 537 -149 q 503 -283 537 -249 q 418 -318 469 -318 z "},"È":{"ha":781,"x_min":117,"x_max":698,"o":"m 117 0 l 117 1000 l 698 1000 l 698 825 l 311 825 l 311 591 l 635 591 l 635 422 l 311 422 l 311 174 l 698 174 l 698 0 l 117 0 m 414 1049 l 180 1218 l 270 1334 l 492 1130 l 414 1049 z "},"Ẻ":{"ha":781,"x_min":117,"x_max":698,"o":"m 117 0 l 117 1000 l 698 1000 l 698 825 l 311 825 l 311 591 l 635 591 l 635 422 l 311 422 l 311 174 l 698 174 l 698 0 l 117 0 m 437 1059 l 369 1127 q 405 1158 389 1141 q 421 1197 421 1176 q 404 1228 421 1217 q 356 1239 387 1239 q 322 1236 343 1239 q 286 1227 301 1234 l 286 1337 q 328 1349 300 1345 q 378 1353 356 1353 q 492 1319 450 1353 q 534 1222 534 1286 q 504 1121 534 1165 q 437 1059 473 1078 z "},"Ȇ":{"ha":781,"x_min":117,"x_max":698,"o":"m 117 0 l 117 1000 l 698 1000 l 698 825 l 311 825 l 311 591 l 635 591 l 635 422 l 311 422 l 311 174 l 698 174 l 698 0 l 117 0 m 412 1274 q 535 1250 479 1274 q 626 1179 592 1225 q 658 1064 659 1132 l 543 1064 q 505 1145 544 1120 q 412 1170 465 1170 q 323 1145 363 1170 q 282 1064 283 1120 l 168 1064 q 202 1179 168 1132 q 292 1250 236 1225 q 412 1274 347 1274 z "},"Ē":{"ha":781,"x_min":117,"x_max":698,"o":"m 117 0 l 117 1000 l 698 1000 l 698 825 l 311 825 l 311 591 l 635 591 l 635 422 l 311 422 l 311 174 l 698 174 l 698 0 l 117 0 m 153 1101 l 153 1227 l 673 1227 l 673 1101 l 153 1101 z "},"Ḗ":{"ha":781,"x_min":117,"x_max":698,"o":"m 117 0 l 117 1000 l 698 1000 l 698 825 l 311 825 l 311 591 l 635 591 l 635 422 l 311 422 l 311 174 l 698 174 l 698 0 l 117 0 m 153 1101 l 153 1227 l 673 1227 l 673 1101 l 153 1101 m 414 1277 l 335 1358 l 557 1562 l 647 1446 l 414 1277 z "},"Ḕ":{"ha":781,"x_min":117,"x_max":698,"o":"m 117 0 l 117 1000 l 698 1000 l 698 825 l 311 825 l 311 591 l 635 591 l 635 422 l 311 422 l 311 174 l 698 174 l 698 0 l 117 0 m 153 1101 l 153 1227 l 673 1227 l 673 1101 l 153 1101 m 414 1277 l 180 1446 l 270 1562 l 492 1358 l 414 1277 z "},"Ę":{"ha":781,"x_min":117,"x_max":702,"o":"m 117 0 l 117 1000 l 698 1000 l 698 825 l 311 825 l 311 591 l 635 591 l 635 422 l 311 422 l 311 174 l 698 174 l 698 0 l 117 0 m 599 -289 q 497 -253 536 -289 q 458 -157 458 -216 q 496 -58 458 -102 q 600 31 534 -14 l 696 0 q 636 -45 665 -23 q 591 -90 608 -67 q 574 -136 574 -112 q 589 -169 574 -157 q 631 -181 604 -181 q 671 -175 650 -181 q 702 -162 692 -170 l 702 -269 q 653 -283 685 -277 q 599 -289 621 -289 z "},"Ẽ":{"ha":781,"x_min":117,"x_max":698,"o":"m 117 0 l 117 1000 l 698 1000 l 698 825 l 311 825 l 311 591 l 635 591 l 635 422 l 311 422 l 311 174 l 698 174 l 698 0 l 117 0 m 169 1070 q 209 1208 169 1154 q 319 1262 248 1262 q 382 1250 357 1262 q 425 1223 407 1238 q 458 1196 442 1208 q 492 1184 473 1184 q 532 1207 519 1184 q 545 1262 545 1230 l 659 1262 q 621 1125 661 1181 q 507 1070 581 1070 q 446 1082 471 1070 q 404 1110 422 1094 q 369 1138 385 1126 q 333 1150 353 1150 q 296 1128 308 1150 q 284 1070 284 1107 l 169 1070 z "},"Ə":{"ha":781,"x_min":45,"x_max":741,"o":"m 382 -11 q 203 48 279 -11 q 86 209 127 106 q 45 443 45 311 l 45 568 l 591 568 l 591 404 l 218 404 q 238 282 218 337 q 296 196 259 228 q 382 163 333 163 q 460 190 428 163 q 513 262 492 216 q 543 368 533 309 q 553 490 553 427 q 530 674 553 597 q 464 793 508 751 q 355 834 420 834 q 250 810 303 834 q 170 751 197 787 l 99 924 q 217 987 150 963 q 353 1010 284 1010 q 511 972 440 1010 q 633 864 582 934 q 713 698 685 793 q 741 489 741 602 q 717 292 741 383 q 646 133 692 201 q 533 27 600 65 q 382 -11 467 -11 z "},"F":{"ha":781,"x_min":128,"x_max":725,"o":"m 128 0 l 128 1000 l 725 1000 l 725 825 l 323 825 l 323 566 l 663 566 l 663 391 l 323 391 l 323 0 l 128 0 z "},"G":{"ha":781,"x_min":37,"x_max":730,"o":"m 448 -11 q 233 54 325 -11 q 89 233 140 119 q 37 495 37 347 q 93 767 37 651 q 246 947 149 883 q 465 1010 342 1010 q 606 988 538 1010 q 727 924 673 965 l 656 751 q 577 810 629 786 q 467 833 525 833 q 338 792 394 833 q 252 674 283 750 q 220 494 220 598 q 248 326 220 400 q 328 209 275 252 q 455 166 380 166 q 531 181 500 166 q 582 218 563 197 l 554 169 l 554 408 l 399 408 l 399 571 l 730 571 l 730 108 q 608 21 682 54 q 448 -11 534 -11 z "},"Ğ":{"ha":781,"x_min":37,"x_max":730,"o":"m 448 -11 q 233 54 325 -11 q 89 233 140 119 q 37 495 37 347 q 93 767 37 651 q 246 947 149 883 q 465 1010 342 1010 q 606 988 538 1010 q 727 924 673 965 l 656 751 q 577 810 629 786 q 467 833 525 833 q 338 792 394 833 q 252 674 283 750 q 220 494 220 598 q 248 326 220 400 q 328 209 275 252 q 455 166 380 166 q 531 181 500 166 q 582 218 563 197 l 554 169 l 554 408 l 399 408 l 399 571 l 730 571 l 730 108 q 608 21 682 54 q 448 -11 534 -11 m 431 1061 q 310 1085 366 1061 q 221 1157 254 1109 q 187 1271 187 1204 l 300 1271 q 341 1191 301 1217 q 431 1165 382 1165 q 523 1191 484 1165 q 562 1271 563 1217 l 676 1271 q 644 1157 677 1204 q 554 1085 610 1109 q 431 1061 498 1061 z "},"Ǧ":{"ha":781,"x_min":37,"x_max":730,"o":"m 448 -11 q 233 54 325 -11 q 89 233 140 119 q 37 495 37 347 q 93 767 37 651 q 246 947 149 883 q 465 1010 342 1010 q 606 988 538 1010 q 727 924 673 965 l 656 751 q 577 810 629 786 q 467 833 525 833 q 338 792 394 833 q 252 674 283 750 q 220 494 220 598 q 248 326 220 400 q 328 209 275 252 q 455 166 380 166 q 531 181 500 166 q 582 218 563 197 l 554 169 l 554 408 l 399 408 l 399 571 l 730 571 l 730 108 q 608 21 682 54 q 448 -11 534 -11 m 266 1300 l 429 1173 l 433 1173 l 598 1300 l 681 1211 l 450 1047 l 412 1047 l 180 1211 l 266 1300 z "},"Ĝ":{"ha":781,"x_min":37,"x_max":730,"o":"m 448 -11 q 233 54 325 -11 q 89 233 140 119 q 37 495 37 347 q 93 767 37 651 q 246 947 149 883 q 465 1010 342 1010 q 606 988 538 1010 q 727 924 673 965 l 656 751 q 577 810 629 786 q 467 833 525 833 q 338 792 394 833 q 252 674 283 750 q 220 494 220 598 q 248 326 220 400 q 328 209 275 252 q 455 166 380 166 q 531 181 500 166 q 582 218 563 197 l 554 169 l 554 408 l 399 408 l 399 571 l 730 571 l 730 108 q 608 21 682 54 q 448 -11 534 -11 m 267 1051 l 182 1140 l 413 1304 l 452 1304 l 682 1140 l 600 1051 l 433 1178 l 429 1178 l 267 1051 z "},"Ģ":{"ha":781,"x_min":37,"x_max":730,"o":"m 448 -11 q 233 54 325 -11 q 89 233 140 119 q 37 495 37 347 q 93 767 37 651 q 246 947 149 883 q 465 1010 342 1010 q 606 988 538 1010 q 727 924 673 965 l 656 751 q 577 810 629 786 q 467 833 525 833 q 338 792 394 833 q 252 674 283 750 q 220 494 220 598 q 248 326 220 400 q 328 209 275 252 q 455 166 380 166 q 531 181 500 166 q 582 218 563 197 l 554 169 l 554 408 l 399 408 l 399 571 l 730 571 l 730 108 q 608 21 682 54 q 448 -11 534 -11 m 380 -409 l 341 -360 l 401 -309 q 427 -281 414 -296 q 450 -250 441 -265 q 458 -220 458 -234 l 481 -220 q 469 -249 480 -235 q 433 -262 458 -262 q 377 -238 405 -262 q 349 -175 349 -214 q 376 -113 349 -136 q 433 -90 402 -90 q 496 -115 470 -90 q 522 -188 522 -139 q 507 -260 522 -228 q 474 -314 492 -292 q 442 -349 455 -337 l 380 -409 z "},"Ġ":{"ha":781,"x_min":37,"x_max":730,"o":"m 448 -11 q 233 54 325 -11 q 89 233 140 119 q 37 495 37 347 q 93 767 37 651 q 246 947 149 883 q 465 1010 342 1010 q 606 988 538 1010 q 727 924 673 965 l 656 751 q 577 810 629 786 q 467 833 525 833 q 338 792 394 833 q 252 674 283 750 q 220 494 220 598 q 248 326 220 400 q 328 209 275 252 q 455 166 380 166 q 531 181 500 166 q 582 218 563 197 l 554 169 l 554 408 l 399 408 l 399 571 l 730 571 l 730 108 q 608 21 682 54 q 448 -11 534 -11 m 431 1062 q 346 1097 380 1062 q 312 1181 312 1131 q 346 1266 312 1232 q 431 1300 380 1300 q 515 1266 481 1300 q 549 1181 549 1232 q 515 1097 549 1131 q 431 1062 481 1062 z "},"Ḡ":{"ha":781,"x_min":37,"x_max":730,"o":"m 448 -11 q 233 54 325 -11 q 89 233 140 119 q 37 495 37 347 q 93 767 37 651 q 246 947 149 883 q 465 1010 342 1010 q 606 988 538 1010 q 727 924 673 965 l 656 751 q 577 810 629 786 q 467 833 525 833 q 338 792 394 833 q 252 674 283 750 q 220 494 220 598 q 248 326 220 400 q 328 209 275 252 q 455 166 380 166 q 531 181 500 166 q 582 218 563 197 l 554 169 l 554 408 l 399 408 l 399 571 l 730 571 l 730 108 q 608 21 682 54 q 448 -11 534 -11 m 171 1101 l 171 1227 l 691 1227 l 691 1101 l 171 1101 z "},"H":{"ha":781,"x_min":61,"x_max":720,"o":"m 61 0 l 61 1000 l 252 1000 l 252 594 l 529 594 l 529 1000 l 720 1000 l 720 0 l 529 0 l 529 420 l 252 420 l 252 0 l 61 0 z "},"Ħ":{"ha":781,"x_min":10,"x_max":761,"o":"m 10 729 l 10 839 l 761 839 l 761 729 l 10 729 m 61 0 l 61 1000 l 252 1000 l 252 594 l 529 594 l 529 1000 l 720 1000 l 720 0 l 529 0 l 529 420 l 252 420 l 252 0 l 61 0 z "},"Ḫ":{"ha":781,"x_min":61,"x_max":720,"o":"m 61 0 l 61 1000 l 252 1000 l 252 594 l 529 594 l 529 1000 l 720 1000 l 720 0 l 529 0 l 529 420 l 252 420 l 252 0 l 61 0 m 390 -306 q 266 -276 321 -306 q 177 -195 210 -245 q 144 -80 144 -144 l 261 -80 q 298 -166 261 -132 q 390 -201 335 -201 q 483 -166 446 -201 q 520 -80 519 -132 l 637 -80 q 605 -195 637 -144 q 516 -276 572 -245 q 390 -306 460 -306 z "},"Ĥ":{"ha":781,"x_min":61,"x_max":720,"o":"m 61 0 l 61 1000 l 252 1000 l 252 594 l 529 594 l 529 1000 l 720 1000 l 720 0 l 529 0 l 529 420 l 252 420 l 252 0 l 61 0 m 227 1051 l 142 1140 l 373 1304 l 412 1304 l 642 1140 l 559 1051 l 393 1178 l 389 1178 l 227 1051 z "},"Ḥ":{"ha":781,"x_min":61,"x_max":720,"o":"m 61 0 l 61 1000 l 252 1000 l 252 594 l 529 594 l 529 1000 l 720 1000 l 720 0 l 529 0 l 529 420 l 252 420 l 252 0 l 61 0 m 391 -318 q 307 -283 341 -318 q 273 -199 273 -249 q 307 -114 273 -149 q 391 -80 341 -80 q 476 -114 442 -80 q 510 -199 510 -149 q 476 -283 510 -249 q 391 -318 442 -318 z "},"I":{"ha":781,"x_min":99,"x_max":682,"o":"m 294 0 l 294 1000 l 488 1000 l 488 0 l 294 0 m 99 0 l 99 170 l 682 170 l 682 0 l 99 0 m 99 830 l 99 1000 l 682 1000 l 682 830 l 99 830 z "},"Í":{"ha":781,"x_min":99,"x_max":682,"o":"m 294 0 l 294 1000 l 488 1000 l 488 0 l 294 0 m 99 0 l 99 170 l 682 170 l 682 0 l 99 0 m 99 830 l 99 1000 l 682 1000 l 682 830 l 99 830 m 390 1049 l 311 1130 l 534 1334 l 623 1218 l 390 1049 z "},"Ĭ":{"ha":781,"x_min":99,"x_max":682,"o":"m 294 0 l 294 1000 l 488 1000 l 488 0 l 294 0 m 99 0 l 99 170 l 682 170 l 682 0 l 99 0 m 99 830 l 99 1000 l 682 1000 l 682 830 l 99 830 m 391 1061 q 269 1085 325 1061 q 180 1157 214 1109 q 146 1271 146 1204 l 260 1271 q 301 1191 260 1217 q 391 1165 341 1165 q 483 1191 443 1165 q 521 1271 522 1217 l 635 1271 q 603 1157 637 1204 q 513 1085 570 1109 q 391 1061 457 1061 z "},"Ǐ":{"ha":781,"x_min":99,"x_max":682,"o":"m 294 0 l 294 1000 l 488 1000 l 488 0 l 294 0 m 99 0 l 99 170 l 682 170 l 682 0 l 99 0 m 99 830 l 99 1000 l 682 1000 l 682 830 l 99 830 m 224 1300 l 387 1173 l 391 1173 l 557 1300 l 640 1211 l 410 1047 l 370 1047 l 140 1211 l 224 1300 z "},"Î":{"ha":781,"x_min":99,"x_max":682,"o":"m 294 0 l 294 1000 l 488 1000 l 488 0 l 294 0 m 99 0 l 99 170 l 682 170 l 682 0 l 99 0 m 99 830 l 99 1000 l 682 1000 l 682 830 l 99 830 m 226 1051 l 141 1140 l 372 1304 l 411 1304 l 642 1140 l 559 1051 l 393 1178 l 389 1178 l 226 1051 z "},"Ȉ":{"ha":781,"x_min":53,"x_max":682,"o":"m 294 0 l 294 1000 l 488 1000 l 488 0 l 294 0 m 99 0 l 99 170 l 682 170 l 682 0 l 99 0 m 99 830 l 99 1000 l 682 1000 l 682 830 l 99 830 m 221 1064 l 53 1282 l 178 1352 l 315 1110 l 221 1064 m 471 1064 l 309 1282 l 434 1352 l 568 1110 l 471 1064 z "},"Ï":{"ha":781,"x_min":99,"x_max":682,"o":"m 294 0 l 294 1000 l 488 1000 l 488 0 l 294 0 m 99 0 l 99 170 l 682 170 l 682 0 l 99 0 m 99 830 l 99 1000 l 682 1000 l 682 830 l 99 830 m 551 1056 q 472 1087 503 1056 q 440 1165 440 1118 q 472 1244 440 1213 q 551 1275 503 1275 q 628 1244 597 1275 q 659 1165 659 1213 q 628 1087 659 1118 q 551 1056 597 1056 m 234 1056 q 156 1087 187 1056 q 125 1165 125 1118 q 156 1244 125 1213 q 234 1275 187 1275 q 312 1244 281 1275 q 343 1165 343 1213 q 312 1087 343 1118 q 234 1056 281 1056 z "},"Ḯ":{"ha":781,"x_min":99,"x_max":682,"o":"m 294 0 l 294 1000 l 488 1000 l 488 0 l 294 0 m 99 0 l 99 170 l 682 170 l 682 0 l 99 0 m 99 830 l 99 1000 l 682 1000 l 682 830 l 99 830 m 551 1056 q 472 1087 503 1056 q 440 1165 440 1118 q 472 1244 440 1213 q 551 1275 503 1275 q 628 1244 597 1275 q 659 1165 659 1213 q 628 1087 659 1118 q 551 1056 597 1056 m 234 1056 q 156 1087 187 1056 q 125 1165 125 1118 q 156 1244 125 1213 q 234 1275 187 1275 q 312 1244 281 1275 q 343 1165 343 1213 q 312 1087 343 1118 q 234 1056 281 1056 m 390 1277 l 311 1358 l 534 1562 l 623 1446 l 390 1277 z "},"İ":{"ha":781,"x_min":99,"x_max":682,"o":"m 294 0 l 294 1000 l 488 1000 l 488 0 l 294 0 m 99 0 l 99 170 l 682 170 l 682 0 l 99 0 m 99 830 l 99 1000 l 682 1000 l 682 830 l 99 830 m 389 1062 q 305 1097 339 1062 q 271 1181 271 1131 q 305 1266 271 1232 q 389 1300 339 1300 q 474 1266 440 1300 q 508 1181 508 1232 q 474 1097 508 1131 q 389 1062 440 1062 z "},"Ị":{"ha":781,"x_min":99,"x_max":682,"o":"m 294 0 l 294 1000 l 488 1000 l 488 0 l 294 0 m 99 0 l 99 170 l 682 170 l 682 0 l 99 0 m 99 830 l 99 1000 l 682 1000 l 682 830 l 99 830 m 390 -318 q 306 -283 340 -318 q 271 -199 271 -249 q 306 -114 271 -149 q 390 -80 340 -80 q 475 -114 441 -80 q 509 -199 509 -149 q 475 -283 509 -249 q 390 -318 441 -318 z "},"Ì":{"ha":781,"x_min":99,"x_max":682,"o":"m 294 0 l 294 1000 l 488 1000 l 488 0 l 294 0 m 99 0 l 99 170 l 682 170 l 682 0 l 99 0 m 99 830 l 99 1000 l 682 1000 l 682 830 l 99 830 m 390 1049 l 157 1218 l 246 1334 l 469 1130 l 390 1049 z "},"Ỉ":{"ha":781,"x_min":99,"x_max":682,"o":"m 294 0 l 294 1000 l 488 1000 l 488 0 l 294 0 m 99 0 l 99 170 l 682 170 l 682 0 l 99 0 m 99 830 l 99 1000 l 682 1000 l 682 830 l 99 830 m 413 1059 l 345 1127 q 381 1158 366 1141 q 397 1197 397 1176 q 380 1228 397 1217 q 332 1239 363 1239 q 298 1236 319 1239 q 262 1227 277 1234 l 262 1337 q 304 1349 276 1345 q 354 1353 332 1353 q 468 1319 426 1353 q 511 1222 511 1286 q 480 1121 511 1165 q 413 1059 450 1078 z "},"Ȋ":{"ha":781,"x_min":99,"x_max":682,"o":"m 294 0 l 294 1000 l 488 1000 l 488 0 l 294 0 m 99 0 l 99 170 l 682 170 l 682 0 l 99 0 m 99 830 l 99 1000 l 682 1000 l 682 830 l 99 830 m 389 1274 q 512 1250 455 1274 q 602 1179 568 1225 q 634 1064 635 1132 l 519 1064 q 481 1145 520 1120 q 389 1170 441 1170 q 299 1145 339 1170 q 258 1064 259 1120 l 144 1064 q 178 1179 144 1132 q 268 1250 212 1225 q 389 1274 323 1274 z "},"Ī":{"ha":781,"x_min":99,"x_max":682,"o":"m 294 0 l 294 1000 l 488 1000 l 488 0 l 294 0 m 99 0 l 99 170 l 682 170 l 682 0 l 99 0 m 99 830 l 99 1000 l 682 1000 l 682 830 l 99 830 m 157 1101 l 157 1227 l 623 1227 l 623 1101 l 157 1101 z "},"Į":{"ha":781,"x_min":99,"x_max":688,"o":"m 294 0 l 294 1000 l 488 1000 l 488 0 l 294 0 m 99 0 l 99 170 l 682 170 l 682 0 l 99 0 m 99 830 l 99 1000 l 682 1000 l 682 830 l 99 830 m 585 -289 q 483 -253 522 -289 q 444 -157 444 -216 q 481 -58 444 -102 q 585 31 519 -14 l 682 0 q 622 -45 650 -23 q 577 -90 594 -67 q 560 -136 560 -112 q 575 -169 560 -157 q 617 -181 589 -181 q 657 -175 636 -181 q 688 -162 678 -170 l 688 -269 q 639 -283 671 -277 q 585 -289 607 -289 z "},"Ĩ":{"ha":781,"x_min":99,"x_max":682,"o":"m 294 0 l 294 1000 l 488 1000 l 488 0 l 294 0 m 99 0 l 99 170 l 682 170 l 682 0 l 99 0 m 99 830 l 99 1000 l 682 1000 l 682 830 l 99 830 m 145 1070 q 185 1208 145 1154 q 295 1262 224 1262 q 358 1250 333 1262 q 401 1223 383 1238 q 434 1196 418 1208 q 469 1184 450 1184 q 508 1207 495 1184 q 521 1262 521 1230 l 635 1262 q 597 1125 637 1181 q 483 1070 557 1070 q 422 1082 447 1070 q 380 1110 398 1094 q 345 1138 361 1126 q 309 1150 329 1150 q 272 1128 284 1150 q 260 1070 260 1107 l 145 1070 z "},"J":{"ha":781,"x_min":27,"x_max":654,"o":"m 340 -11 q 173 30 243 -11 q 65 143 103 71 q 27 310 27 216 l 214 310 q 249 203 216 243 q 335 163 281 163 q 397 180 370 163 q 440 229 424 197 q 456 307 456 261 l 456 1000 l 654 1000 l 654 310 q 614 136 654 208 q 503 27 574 64 q 340 -11 432 -11 z "},"Ĵ":{"ha":781,"x_min":27,"x_max":800,"o":"m 340 -11 q 173 30 243 -11 q 65 143 103 71 q 27 310 27 216 l 214 310 q 249 203 216 243 q 335 163 281 163 q 397 180 370 163 q 440 229 424 197 q 456 307 456 261 l 456 1000 l 654 1000 l 654 310 q 614 136 654 208 q 503 27 574 64 q 340 -11 432 -11 m 385 1051 l 300 1140 l 531 1304 l 570 1304 l 800 1140 l 718 1051 l 551 1178 l 547 1178 l 385 1051 z "},"K":{"ha":781,"x_min":77,"x_max":788,"o":"m 77 0 l 77 1000 l 263 1000 l 263 550 l 309 550 l 245 519 l 549 1000 l 774 1000 l 409 452 l 409 555 l 788 0 l 561 0 l 245 476 l 309 446 l 263 446 l 263 0 l 77 0 z "},"Ķ":{"ha":781,"x_min":77,"x_max":788,"o":"m 77 0 l 77 1000 l 263 1000 l 263 550 l 309 550 l 245 519 l 549 1000 l 774 1000 l 409 452 l 409 555 l 788 0 l 561 0 l 245 476 l 309 446 l 263 446 l 263 0 l 77 0 m 355 -409 l 316 -360 l 376 -309 q 402 -281 389 -296 q 425 -250 416 -265 q 433 -220 433 -234 l 456 -220 q 444 -249 455 -235 q 408 -262 433 -262 q 352 -238 380 -262 q 324 -175 324 -214 q 351 -113 324 -136 q 408 -90 377 -90 q 471 -115 445 -90 q 496 -188 496 -139 q 482 -260 496 -228 q 449 -314 467 -292 q 417 -349 430 -337 l 355 -409 z "},"L":{"ha":781,"x_min":130,"x_max":714,"o":"m 130 0 l 130 1000 l 323 1000 l 323 174 l 714 174 l 714 0 l 130 0 z "},"Ǉ":{"ha":781,"x_min":56,"x_max":734,"o":"m 541 -11 q 397 72 441 -11 q 355 304 353 155 l 496 304 q 506 178 495 216 q 541 140 517 140 q 579 179 566 140 q 591 306 591 217 l 591 1000 l 734 1000 l 734 309 q 686 71 734 153 q 541 -11 637 -11 m 56 0 l 56 1000 l 199 1000 l 199 151 l 336 151 l 336 0 l 56 0 z "},"Ĺ":{"ha":781,"x_min":130,"x_max":714,"o":"m 130 0 l 130 1000 l 323 1000 l 323 174 l 714 174 l 714 0 l 130 0 m 227 1049 l 149 1130 l 371 1334 l 460 1218 l 227 1049 z "},"Ľ":{"ha":781,"x_min":130,"x_max":736,"o":"m 130 0 l 130 1000 l 323 1000 l 323 174 l 714 174 l 714 0 l 130 0 m 587 665 l 588 1000 l 736 1000 l 715 665 l 587 665 z "},"Ļ":{"ha":781,"x_min":130,"x_max":714,"o":"m 130 0 l 130 1000 l 323 1000 l 323 174 l 714 174 l 714 0 l 130 0 m 376 -409 l 338 -360 l 397 -309 q 424 -281 410 -296 q 446 -250 437 -265 q 454 -220 455 -234 l 478 -220 q 466 -249 477 -235 q 430 -262 455 -262 q 374 -238 401 -262 q 346 -175 346 -214 q 372 -113 346 -136 q 430 -90 399 -90 q 492 -115 467 -90 q 518 -188 518 -139 q 504 -260 518 -228 q 470 -314 489 -292 q 439 -349 452 -337 l 376 -409 z "},"Ŀ":{"ha":781,"x_min":130,"x_max":747,"o":"m 130 0 l 130 1000 l 323 1000 l 323 174 l 714 174 l 714 0 l 130 0 m 623 389 q 535 425 571 389 q 499 513 499 460 q 535 601 499 566 q 623 637 570 637 q 711 601 675 637 q 747 513 747 566 q 711 425 747 460 q 623 389 675 389 z "},"Ḷ":{"ha":781,"x_min":130,"x_max":714,"o":"m 130 0 l 130 1000 l 323 1000 l 323 174 l 714 174 l 714 0 l 130 0 m 428 -318 q 343 -283 378 -318 q 309 -199 309 -249 q 343 -114 309 -149 q 428 -80 378 -80 q 513 -114 479 -80 q 547 -199 547 -149 q 513 -283 547 -249 q 428 -318 479 -318 z "},"ǈ":{"ha":781,"x_min":67,"x_max":725,"o":"m 483 -296 q 389 -279 438 -296 q 304 -237 339 -263 l 353 -102 q 414 -136 380 -123 q 478 -150 448 -150 q 536 -127 514 -150 q 557 -57 557 -104 l 557 726 l 700 726 l 700 -61 q 672 -184 700 -132 q 596 -267 645 -237 q 483 -296 547 -296 m 67 0 l 67 1000 l 218 1000 l 218 151 l 403 151 l 403 0 l 67 0 m 401 582 l 401 726 l 700 726 l 700 582 l 401 582 m 620 824 q 544 854 574 824 q 515 933 515 885 q 545 1011 515 981 q 620 1041 574 1041 q 696 1010 667 1041 q 725 932 725 980 q 696 854 725 885 q 620 824 667 824 z "},"Ḻ":{"ha":781,"x_min":130,"x_max":714,"o":"m 130 0 l 130 1000 l 323 1000 l 323 174 l 714 174 l 714 0 l 130 0 m 163 -281 l 163 -166 l 693 -166 l 693 -281 l 163 -281 z "},"Ł":{"ha":781,"x_min":-8,"x_max":714,"o":"m 37 349 l -8 458 l 153 543 l 297 607 l 418 677 l 463 570 l 297 478 l 153 414 l 37 349 m 130 0 l 130 1000 l 323 1000 l 323 174 l 714 174 l 714 0 l 130 0 z "},"M":{"ha":781,"x_min":43,"x_max":739,"o":"m 43 0 l 43 1000 l 164 1000 l 388 596 l 393 596 l 617 1000 l 739 1000 l 739 0 l 564 0 l 564 413 l 567 599 l 561 599 l 416 327 l 366 327 l 220 599 l 214 599 l 217 413 l 217 0 l 43 0 z "},"Ṃ":{"ha":781,"x_min":43,"x_max":739,"o":"m 43 0 l 43 1000 l 164 1000 l 388 596 l 393 596 l 617 1000 l 739 1000 l 739 0 l 564 0 l 564 413 l 567 599 l 561 599 l 416 327 l 366 327 l 220 599 l 214 599 l 217 413 l 217 0 l 43 0 m 389 -318 q 305 -283 339 -318 q 271 -199 271 -249 q 305 -114 271 -149 q 389 -80 339 -80 q 474 -114 440 -80 q 508 -199 508 -149 q 474 -283 508 -249 q 389 -318 440 -318 z "},"N":{"ha":781,"x_min":61,"x_max":720,"o":"m 61 0 l 61 1000 l 193 1000 l 488 472 l 538 372 l 544 372 l 538 572 l 538 1000 l 720 1000 l 720 0 l 587 0 l 294 534 l 243 637 l 239 637 l 243 429 l 243 0 l 61 0 z "},"Ǌ":{"ha":781,"x_min":25,"x_max":762,"o":"m 25 0 l 25 1000 l 117 1000 l 245 532 l 266 441 l 269 441 l 262 547 l 262 1000 l 391 1000 l 391 0 l 299 0 l 170 472 l 149 564 l 147 564 l 153 456 l 153 0 l 25 0 m 592 -11 q 461 67 506 -11 q 419 287 417 145 l 547 287 q 557 173 546 205 q 591 140 569 140 q 622 177 616 140 q 628 292 628 214 l 628 1000 l 762 1000 l 762 294 q 721 69 762 149 q 592 -11 680 -11 z "},"Ń":{"ha":781,"x_min":61,"x_max":720,"o":"m 61 0 l 61 1000 l 193 1000 l 488 472 l 538 372 l 544 372 l 538 572 l 538 1000 l 720 1000 l 720 0 l 587 0 l 294 534 l 243 637 l 239 637 l 243 429 l 243 0 l 61 0 m 391 1049 l 312 1130 l 534 1334 l 624 1218 l 391 1049 z "},"Ň":{"ha":781,"x_min":61,"x_max":720,"o":"m 61 0 l 61 1000 l 193 1000 l 488 472 l 538 372 l 544 372 l 538 572 l 538 1000 l 720 1000 l 720 0 l 587 0 l 294 534 l 243 637 l 239 637 l 243 429 l 243 0 l 61 0 m 225 1300 l 388 1173 l 392 1173 l 557 1300 l 640 1211 l 410 1047 l 371 1047 l 140 1211 l 225 1300 z "},"Ņ":{"ha":781,"x_min":61,"x_max":720,"o":"m 61 0 l 61 1000 l 193 1000 l 488 472 l 538 372 l 544 372 l 538 572 l 538 1000 l 720 1000 l 720 0 l 587 0 l 294 534 l 243 637 l 239 637 l 243 429 l 243 0 l 61 0 m 337 -409 l 298 -360 l 358 -309 q 385 -281 371 -296 q 407 -250 398 -265 q 415 -220 416 -234 l 439 -220 q 427 -249 437 -235 q 391 -262 416 -262 q 334 -238 362 -262 q 307 -175 307 -214 q 333 -113 307 -136 q 391 -90 359 -90 q 453 -115 427 -90 q 479 -188 479 -139 q 464 -260 479 -228 q 431 -314 450 -292 q 399 -349 412 -337 l 337 -409 z "},"Ṅ":{"ha":781,"x_min":61,"x_max":720,"o":"m 61 0 l 61 1000 l 193 1000 l 488 472 l 538 372 l 544 372 l 538 572 l 538 1000 l 720 1000 l 720 0 l 587 0 l 294 534 l 243 637 l 239 637 l 243 429 l 243 0 l 61 0 m 390 1062 q 306 1097 340 1062 q 271 1181 271 1131 q 306 1266 271 1232 q 390 1300 340 1300 q 475 1266 441 1300 q 509 1181 509 1232 q 475 1097 509 1131 q 390 1062 441 1062 z "},"Ṇ":{"ha":781,"x_min":61,"x_max":720,"o":"m 61 0 l 61 1000 l 193 1000 l 488 472 l 538 372 l 544 372 l 538 572 l 538 1000 l 720 1000 l 720 0 l 587 0 l 294 534 l 243 637 l 239 637 l 243 429 l 243 0 l 61 0 m 389 -318 q 304 -283 338 -318 q 270 -199 270 -249 q 304 -114 270 -149 q 389 -80 338 -80 q 473 -114 439 -80 q 507 -199 507 -149 q 473 -283 507 -249 q 389 -318 439 -318 z "},"ǋ":{"ha":781,"x_min":53,"x_max":739,"o":"m 53 0 l 53 1000 l 157 1000 l 301 527 l 329 418 l 332 418 l 326 543 l 326 1000 l 465 1000 l 465 0 l 361 0 l 217 476 l 189 585 l 187 585 l 192 460 l 192 0 l 53 0 m 486 -296 q 393 -279 441 -296 q 309 -237 344 -263 l 357 -102 q 418 -137 385 -123 q 481 -151 452 -151 q 537 -127 516 -151 q 559 -57 559 -104 l 559 726 l 701 726 l 701 -61 q 674 -184 701 -132 q 598 -267 646 -237 q 486 -296 549 -296 m 635 826 q 560 857 589 826 q 530 936 530 888 q 560 1014 530 983 q 635 1044 589 1044 q 710 1013 681 1044 q 739 934 739 983 q 710 857 739 887 q 635 826 682 826 z "},"Ṉ":{"ha":781,"x_min":61,"x_max":720,"o":"m 61 0 l 61 1000 l 193 1000 l 488 472 l 538 372 l 544 372 l 538 572 l 538 1000 l 720 1000 l 720 0 l 587 0 l 294 534 l 243 637 l 239 637 l 243 429 l 243 0 l 61 0 m 123 -281 l 123 -166 l 654 -166 l 654 -281 l 123 -281 z "},"Ñ":{"ha":781,"x_min":61,"x_max":720,"o":"m 61 0 l 61 1000 l 193 1000 l 488 472 l 538 372 l 544 372 l 538 572 l 538 1000 l 720 1000 l 720 0 l 587 0 l 294 534 l 243 637 l 239 637 l 243 429 l 243 0 l 61 0 m 146 1070 q 185 1208 146 1154 q 296 1262 225 1262 q 359 1250 334 1262 q 401 1223 384 1238 q 435 1196 419 1208 q 469 1184 450 1184 q 509 1207 496 1184 q 522 1262 522 1230 l 636 1262 q 597 1125 637 1181 q 484 1070 557 1070 q 423 1082 448 1070 q 380 1110 399 1094 q 346 1138 362 1126 q 310 1150 330 1150 q 273 1128 285 1150 q 261 1070 261 1107 l 146 1070 z "},"Ŋ":{"ha":781,"x_min":61,"x_max":720,"o":"m 61 0 l 61 1000 l 193 1000 l 488 472 l 538 372 l 544 372 l 538 572 l 538 1000 l 720 1000 l 720 0 l 587 0 l 294 534 l 243 637 l 239 637 l 243 429 l 243 0 l 61 0 m 500 -301 q 445 -296 473 -301 q 405 -281 417 -290 l 405 -119 q 441 -133 420 -128 q 475 -138 461 -138 q 512 -125 497 -139 q 536 -90 528 -112 q 544 -43 544 -68 l 544 123 l 720 123 l 720 -33 q 696 -172 720 -111 q 622 -267 671 -233 q 500 -301 573 -301 z "},"O":{"ha":781,"x_min":40,"x_max":741,"o":"m 390 -11 q 200 50 279 -11 q 81 224 122 110 q 40 500 40 338 q 81 777 40 663 q 200 950 122 890 q 390 1010 278 1010 q 579 950 500 1010 q 700 776 658 890 q 741 500 741 662 q 700 224 741 338 q 580 50 659 110 q 390 -11 501 -11 m 390 166 q 482 205 445 166 q 539 319 519 245 q 558 500 558 394 q 538 681 557 607 q 480 794 518 755 q 390 833 443 833 q 299 794 336 833 q 243 680 262 754 q 223 500 223 606 q 243 321 223 395 q 300 206 263 246 q 390 166 338 166 z "},"Ó":{"ha":781,"x_min":40,"x_max":741,"o":"m 390 -11 q 200 50 279 -11 q 81 224 122 110 q 40 500 40 338 q 81 777 40 663 q 200 950 122 890 q 390 1010 278 1010 q 579 950 500 1010 q 700 776 658 890 q 741 500 741 662 q 700 224 741 338 q 580 50 659 110 q 390 -11 501 -11 m 390 166 q 482 205 445 166 q 539 319 519 245 q 558 500 558 394 q 538 681 557 607 q 480 794 518 755 q 390 833 443 833 q 299 794 336 833 q 243 680 262 754 q 223 500 223 606 q 243 321 223 395 q 300 206 263 246 q 390 166 338 166 m 391 1049 l 312 1130 l 534 1334 l 624 1218 l 391 1049 z "},"Ŏ":{"ha":781,"x_min":40,"x_max":741,"o":"m 390 -11 q 200 50 279 -11 q 81 224 122 110 q 40 500 40 338 q 81 777 40 663 q 200 950 122 890 q 390 1010 278 1010 q 579 950 500 1010 q 700 776 658 890 q 741 500 741 662 q 700 224 741 338 q 580 50 659 110 q 390 -11 501 -11 m 390 166 q 482 205 445 166 q 539 319 519 245 q 558 500 558 394 q 538 681 557 607 q 480 794 518 755 q 390 833 443 833 q 299 794 336 833 q 243 680 262 754 q 223 500 223 606 q 243 321 223 395 q 300 206 263 246 q 390 166 338 166 m 391 1061 q 270 1085 326 1061 q 181 1157 214 1109 q 147 1271 147 1204 l 260 1271 q 301 1191 261 1217 q 391 1165 342 1165 q 483 1191 444 1165 q 522 1271 523 1217 l 636 1271 q 604 1157 637 1204 q 514 1085 570 1109 q 391 1061 458 1061 z "},"Ô":{"ha":781,"x_min":40,"x_max":741,"o":"m 390 -11 q 200 50 279 -11 q 81 224 122 110 q 40 500 40 338 q 81 777 40 663 q 200 950 122 890 q 390 1010 278 1010 q 579 950 500 1010 q 700 776 658 890 q 741 500 741 662 q 700 224 741 338 q 580 50 659 110 q 390 -11 501 -11 m 390 166 q 482 205 445 166 q 539 319 519 245 q 558 500 558 394 q 538 681 557 607 q 480 794 518 755 q 390 833 443 833 q 299 794 336 833 q 243 680 262 754 q 223 500 223 606 q 243 321 223 395 q 300 206 263 246 q 390 166 338 166 m 227 1051 l 142 1140 l 373 1304 l 412 1304 l 642 1140 l 559 1051 l 393 1178 l 389 1178 l 227 1051 z "},"Ố":{"ha":781,"x_min":40,"x_max":822,"o":"m 390 -11 q 200 50 279 -11 q 81 224 122 110 q 40 500 40 338 q 81 777 40 663 q 200 950 122 890 q 390 1010 278 1010 q 579 950 500 1010 q 700 776 658 890 q 741 500 741 662 q 700 224 741 338 q 580 50 659 110 q 390 -11 501 -11 m 390 166 q 482 205 445 166 q 539 319 519 245 q 558 500 558 394 q 538 681 557 607 q 480 794 518 755 q 390 833 443 833 q 299 794 336 833 q 243 680 262 754 q 223 500 223 606 q 243 321 223 395 q 300 206 263 246 q 390 166 338 166 m 607 1226 l 524 1286 l 733 1503 l 822 1385 l 607 1226 m 226 1042 l 141 1128 l 372 1292 l 411 1292 l 642 1128 l 559 1042 l 393 1167 l 389 1167 l 226 1042 z "},"Ộ":{"ha":781,"x_min":40,"x_max":741,"o":"m 390 -11 q 200 50 279 -11 q 81 224 122 110 q 40 500 40 338 q 81 777 40 663 q 200 950 122 890 q 390 1010 278 1010 q 579 950 500 1010 q 700 776 658 890 q 741 500 741 662 q 700 224 741 338 q 580 50 659 110 q 390 -11 501 -11 m 390 166 q 482 205 445 166 q 539 319 519 245 q 558 500 558 394 q 538 681 557 607 q 480 794 518 755 q 390 833 443 833 q 299 794 336 833 q 243 680 262 754 q 223 500 223 606 q 243 321 223 395 q 300 206 263 246 q 390 166 338 166 m 389 -318 q 305 -283 339 -318 q 271 -199 271 -249 q 305 -114 271 -149 q 389 -80 339 -80 q 474 -114 440 -80 q 508 -199 508 -149 q 474 -283 508 -249 q 389 -318 440 -318 m 227 1051 l 142 1140 l 373 1304 l 412 1304 l 642 1140 l 559 1051 l 393 1178 l 389 1178 l 227 1051 z "},"Ồ":{"ha":781,"x_min":-41,"x_max":741,"o":"m 390 -11 q 200 50 279 -11 q 81 224 122 110 q 40 500 40 338 q 81 777 40 663 q 200 950 122 890 q 390 1010 278 1010 q 579 950 500 1010 q 700 776 658 890 q 741 500 741 662 q 700 224 741 338 q 580 50 659 110 q 390 -11 501 -11 m 390 166 q 482 205 445 166 q 539 319 519 245 q 558 500 558 394 q 538 681 557 607 q 480 794 518 755 q 390 833 443 833 q 299 794 336 833 q 243 680 262 754 q 223 500 223 606 q 243 321 223 395 q 300 206 263 246 q 390 166 338 166 m 175 1226 l -41 1385 l 49 1503 l 258 1286 l 175 1226 m 555 1041 l 393 1167 l 389 1167 l 223 1041 l 140 1128 l 371 1292 l 410 1292 l 641 1128 l 555 1041 z "},"Ổ":{"ha":781,"x_min":40,"x_max":741,"o":"m 390 -11 q 200 50 279 -11 q 81 224 122 110 q 40 500 40 338 q 81 777 40 663 q 200 950 122 890 q 390 1010 278 1010 q 579 950 500 1010 q 700 776 658 890 q 741 500 741 662 q 700 224 741 338 q 580 50 659 110 q 390 -11 501 -11 m 390 166 q 482 205 445 166 q 539 319 519 245 q 558 500 558 394 q 538 681 557 607 q 480 794 518 755 q 390 833 443 833 q 299 794 336 833 q 243 680 262 754 q 223 500 223 606 q 243 321 223 395 q 300 206 263 246 q 390 166 338 166 m 590 1227 l 522 1278 q 556 1312 543 1295 q 569 1346 569 1330 q 552 1380 569 1368 q 503 1392 535 1392 q 469 1389 486 1392 q 433 1379 452 1385 l 433 1491 q 476 1501 448 1498 q 528 1505 505 1505 q 640 1473 597 1505 q 682 1373 682 1441 q 667 1310 682 1339 q 631 1260 652 1282 q 590 1227 610 1239 m 225 1042 l 140 1128 l 371 1292 l 410 1292 l 641 1128 l 557 1042 l 392 1167 l 388 1167 l 225 1042 z "},"Ỗ":{"ha":781,"x_min":40,"x_max":741,"o":"m 390 -11 q 200 50 279 -11 q 81 224 122 110 q 40 500 40 338 q 81 777 40 663 q 200 950 122 890 q 390 1010 278 1010 q 579 950 500 1010 q 700 776 658 890 q 741 500 741 662 q 700 224 741 338 q 580 50 659 110 q 390 -11 501 -11 m 390 166 q 482 205 445 166 q 539 319 519 245 q 558 500 558 394 q 538 681 557 607 q 480 794 518 755 q 390 833 443 833 q 299 794 336 833 q 243 680 262 754 q 223 500 223 606 q 243 321 223 395 q 300 206 263 246 q 390 166 338 166 m 144 1314 q 183 1453 142 1399 q 295 1506 224 1506 q 356 1495 332 1506 q 399 1468 381 1483 q 433 1440 416 1452 q 469 1429 449 1429 q 506 1450 493 1429 q 519 1506 518 1472 l 635 1506 q 621 1409 636 1452 q 574 1339 605 1365 q 496 1314 543 1314 q 435 1325 459 1314 q 392 1353 410 1337 q 358 1381 374 1369 q 323 1393 342 1393 q 278 1373 296 1393 q 258 1314 260 1354 l 144 1314 m 224 1042 l 139 1128 l 370 1292 l 409 1292 l 640 1128 l 556 1042 l 391 1167 l 387 1167 l 224 1042 z "},"Ȍ":{"ha":781,"x_min":40,"x_max":741,"o":"m 390 -11 q 200 50 279 -11 q 81 224 122 110 q 40 500 40 338 q 81 777 40 663 q 200 950 122 890 q 390 1010 278 1010 q 579 950 500 1010 q 700 776 658 890 q 741 500 741 662 q 700 224 741 338 q 580 50 659 110 q 390 -11 501 -11 m 390 166 q 482 205 445 166 q 539 319 519 245 q 558 500 558 394 q 538 681 557 607 q 480 794 518 755 q 390 833 443 833 q 299 794 336 833 q 243 680 262 754 q 223 500 223 606 q 243 321 223 395 q 300 206 263 246 q 390 166 338 166 m 222 1064 l 54 1282 l 179 1352 l 315 1110 l 222 1064 m 472 1064 l 310 1282 l 435 1352 l 568 1110 l 472 1064 z "},"Ö":{"ha":781,"x_min":40,"x_max":741,"o":"m 390 -11 q 200 50 279 -11 q 81 224 122 110 q 40 500 40 338 q 81 777 40 663 q 200 950 122 890 q 390 1010 278 1010 q 579 950 500 1010 q 700 776 658 890 q 741 500 741 662 q 700 224 741 338 q 580 50 659 110 q 390 -11 501 -11 m 390 166 q 482 205 445 166 q 539 319 519 245 q 558 500 558 394 q 538 681 557 607 q 480 794 518 755 q 390 833 443 833 q 299 794 336 833 q 243 680 262 754 q 223 500 223 606 q 243 321 223 395 q 300 206 263 246 q 390 166 338 166 m 552 1056 q 472 1087 504 1056 q 441 1165 441 1118 q 472 1244 441 1213 q 552 1275 504 1275 q 629 1244 598 1275 q 660 1165 659 1213 q 629 1087 659 1118 q 552 1056 598 1056 m 235 1056 q 157 1087 188 1056 q 125 1165 125 1118 q 157 1244 125 1213 q 235 1275 188 1275 q 313 1244 282 1275 q 344 1165 344 1213 q 313 1087 344 1118 q 235 1056 282 1056 z "},"Ȫ":{"ha":781,"x_min":40,"x_max":741,"o":"m 390 -11 q 200 50 279 -11 q 81 224 122 110 q 40 500 40 338 q 81 777 40 663 q 200 950 122 890 q 390 1010 278 1010 q 579 950 500 1010 q 700 776 658 890 q 741 500 741 662 q 700 224 741 338 q 580 50 659 110 q 390 -11 501 -11 m 390 166 q 482 205 445 166 q 539 319 519 245 q 558 500 558 394 q 538 681 557 607 q 480 794 518 755 q 390 833 443 833 q 299 794 336 833 q 243 680 262 754 q 223 500 223 606 q 243 321 223 395 q 300 206 263 246 q 390 166 338 166 m 552 1056 q 472 1087 504 1056 q 441 1165 441 1118 q 472 1244 441 1213 q 552 1275 504 1275 q 629 1244 598 1275 q 660 1165 659 1213 q 629 1087 659 1118 q 552 1056 598 1056 m 235 1056 q 157 1087 188 1056 q 125 1165 125 1118 q 157 1244 125 1213 q 235 1275 188 1275 q 313 1244 282 1275 q 344 1165 344 1213 q 313 1087 344 1118 q 235 1056 282 1056 m 130 1329 l 130 1455 l 650 1455 l 650 1329 l 130 1329 z "},"Ȱ":{"ha":781,"x_min":40,"x_max":741,"o":"m 390 -11 q 200 50 279 -11 q 81 224 122 110 q 40 500 40 338 q 81 777 40 663 q 200 950 122 890 q 390 1010 278 1010 q 579 950 500 1010 q 700 776 658 890 q 741 500 741 662 q 700 224 741 338 q 580 50 659 110 q 390 -11 501 -11 m 390 166 q 482 205 445 166 q 539 319 519 245 q 558 500 558 394 q 538 681 557 607 q 480 794 518 755 q 390 833 443 833 q 299 794 336 833 q 243 680 262 754 q 223 500 223 606 q 243 321 223 395 q 300 206 263 246 q 390 166 338 166 m 390 1062 q 306 1097 340 1062 q 271 1181 271 1131 q 306 1266 271 1232 q 390 1300 340 1300 q 475 1266 441 1300 q 509 1181 509 1232 q 475 1097 509 1131 q 390 1062 441 1062 m 130 1351 l 130 1477 l 650 1477 l 650 1351 l 130 1351 z "},"Ọ":{"ha":781,"x_min":40,"x_max":741,"o":"m 390 -11 q 200 50 279 -11 q 81 224 122 110 q 40 500 40 338 q 81 777 40 663 q 200 950 122 890 q 390 1010 278 1010 q 579 950 500 1010 q 700 776 658 890 q 741 500 741 662 q 700 224 741 338 q 580 50 659 110 q 390 -11 501 -11 m 390 166 q 482 205 445 166 q 539 319 519 245 q 558 500 558 394 q 538 681 557 607 q 480 794 518 755 q 390 833 443 833 q 299 794 336 833 q 243 680 262 754 q 223 500 223 606 q 243 321 223 395 q 300 206 263 246 q 390 166 338 166 m 391 -318 q 306 -283 340 -318 q 272 -199 272 -249 q 306 -114 272 -149 q 391 -80 340 -80 q 475 -114 441 -80 q 509 -199 509 -149 q 475 -283 509 -249 q 391 -318 441 -318 z "},"Ò":{"ha":781,"x_min":40,"x_max":741,"o":"m 390 -11 q 200 50 279 -11 q 81 224 122 110 q 40 500 40 338 q 81 777 40 663 q 200 950 122 890 q 390 1010 278 1010 q 579 950 500 1010 q 700 776 658 890 q 741 500 741 662 q 700 224 741 338 q 580 50 659 110 q 390 -11 501 -11 m 390 166 q 482 205 445 166 q 539 319 519 245 q 558 500 558 394 q 538 681 557 607 q 480 794 518 755 q 390 833 443 833 q 299 794 336 833 q 243 680 262 754 q 223 500 223 606 q 243 321 223 395 q 300 206 263 246 q 390 166 338 166 m 391 1049 l 157 1218 l 247 1334 l 469 1130 l 391 1049 z "},"Ỏ":{"ha":781,"x_min":40,"x_max":741,"o":"m 390 -11 q 200 50 279 -11 q 81 224 122 110 q 40 500 40 338 q 81 777 40 663 q 200 950 122 890 q 390 1010 278 1010 q 579 950 500 1010 q 700 776 658 890 q 741 500 741 662 q 700 224 741 338 q 580 50 659 110 q 390 -11 501 -11 m 390 166 q 482 205 445 166 q 539 319 519 245 q 558 500 558 394 q 538 681 557 607 q 480 794 518 755 q 390 833 443 833 q 299 794 336 833 q 243 680 262 754 q 223 500 223 606 q 243 321 223 395 q 300 206 263 246 q 390 166 338 166 m 414 1059 l 346 1127 q 382 1158 366 1141 q 398 1197 398 1176 q 381 1228 398 1217 q 333 1239 364 1239 q 299 1236 320 1239 q 262 1227 278 1234 l 262 1337 q 305 1349 277 1345 q 355 1353 333 1353 q 469 1319 427 1353 q 511 1222 511 1286 q 481 1121 511 1165 q 414 1059 450 1078 z "},"Ơ":{"ha":781,"x_min":40,"x_max":802,"o":"m 390 -11 q 200 50 279 -11 q 81 224 122 110 q 40 500 40 338 q 81 777 40 663 q 200 950 122 890 q 390 1010 278 1010 q 579 950 500 1010 q 700 776 658 890 q 741 500 741 662 q 700 224 741 338 q 580 50 659 110 q 390 -11 501 -11 m 390 166 q 482 205 445 166 q 539 319 519 245 q 558 500 558 394 q 538 681 557 607 q 480 794 518 755 q 390 833 443 833 q 299 794 336 833 q 243 680 262 754 q 223 500 223 606 q 243 321 223 395 q 300 206 263 246 q 390 166 338 166 m 530 844 l 528 966 q 629 999 598 966 q 661 1097 661 1031 q 659 1128 661 1108 q 654 1166 657 1149 l 788 1191 q 799 1138 796 1168 q 802 1090 802 1109 q 763 956 802 1013 q 661 870 723 899 q 530 844 599 840 z "},"Ớ":{"ha":781,"x_min":40,"x_max":802,"o":"m 390 -11 q 200 50 279 -11 q 81 224 122 110 q 40 500 40 338 q 81 777 40 663 q 200 950 122 890 q 390 1010 278 1010 q 579 950 500 1010 q 700 776 658 890 q 741 500 741 662 q 700 224 741 338 q 580 50 659 110 q 390 -11 501 -11 m 390 166 q 482 205 445 166 q 539 319 519 245 q 558 500 558 394 q 538 681 557 607 q 480 794 518 755 q 390 833 443 833 q 299 794 336 833 q 243 680 262 754 q 223 500 223 606 q 243 321 223 395 q 300 206 263 246 q 390 166 338 166 m 530 844 l 528 966 q 629 999 598 966 q 661 1097 661 1031 q 659 1128 661 1108 q 654 1166 657 1149 l 788 1191 q 799 1138 796 1168 q 802 1090 802 1109 q 763 956 802 1013 q 661 870 723 899 q 530 844 599 840 m 391 1049 l 312 1130 l 534 1334 l 624 1218 l 391 1049 z "},"Ợ":{"ha":781,"x_min":40,"x_max":802,"o":"m 390 -11 q 200 50 279 -11 q 81 224 122 110 q 40 500 40 338 q 81 777 40 663 q 200 950 122 890 q 390 1010 278 1010 q 579 950 500 1010 q 700 776 658 890 q 741 500 741 662 q 700 224 741 338 q 580 50 659 110 q 390 -11 501 -11 m 390 166 q 482 205 445 166 q 539 319 519 245 q 558 500 558 394 q 538 681 557 607 q 480 794 518 755 q 390 833 443 833 q 299 794 336 833 q 243 680 262 754 q 223 500 223 606 q 243 321 223 395 q 300 206 263 246 q 390 166 338 166 m 530 844 l 528 966 q 629 999 598 966 q 661 1097 661 1031 q 659 1128 661 1108 q 654 1166 657 1149 l 788 1191 q 799 1138 796 1168 q 802 1090 802 1109 q 763 956 802 1013 q 661 870 723 899 q 530 844 599 840 m 389 -318 q 305 -283 339 -318 q 271 -199 271 -249 q 305 -114 271 -149 q 389 -80 339 -80 q 474 -114 440 -80 q 508 -199 508 -149 q 474 -283 508 -249 q 389 -318 440 -318 z "},"Ờ":{"ha":781,"x_min":40,"x_max":802,"o":"m 390 -11 q 200 50 279 -11 q 81 224 122 110 q 40 500 40 338 q 81 777 40 663 q 200 950 122 890 q 390 1010 278 1010 q 579 950 500 1010 q 700 776 658 890 q 741 500 741 662 q 700 224 741 338 q 580 50 659 110 q 390 -11 501 -11 m 390 166 q 482 205 445 166 q 539 319 519 245 q 558 500 558 394 q 538 681 557 607 q 480 794 518 755 q 390 833 443 833 q 299 794 336 833 q 243 680 262 754 q 223 500 223 606 q 243 321 223 395 q 300 206 263 246 q 390 166 338 166 m 530 844 l 528 966 q 629 999 598 966 q 661 1097 661 1031 q 659 1128 661 1108 q 654 1166 657 1149 l 788 1191 q 799 1138 796 1168 q 802 1090 802 1109 q 763 956 802 1013 q 661 870 723 899 q 530 844 599 840 m 391 1049 l 157 1218 l 247 1334 l 469 1130 l 391 1049 z "},"Ở":{"ha":781,"x_min":40,"x_max":802,"o":"m 390 -11 q 200 50 279 -11 q 81 224 122 110 q 40 500 40 338 q 81 777 40 663 q 200 950 122 890 q 390 1010 278 1010 q 579 950 500 1010 q 700 776 658 890 q 741 500 741 662 q 700 224 741 338 q 580 50 659 110 q 390 -11 501 -11 m 390 166 q 482 205 445 166 q 539 319 519 245 q 558 500 558 394 q 538 681 557 607 q 480 794 518 755 q 390 833 443 833 q 299 794 336 833 q 243 680 262 754 q 223 500 223 606 q 243 321 223 395 q 300 206 263 246 q 390 166 338 166 m 530 844 l 528 966 q 629 999 598 966 q 661 1097 661 1031 q 659 1128 661 1108 q 654 1166 657 1149 l 788 1191 q 799 1138 796 1168 q 802 1090 802 1109 q 763 956 802 1013 q 661 870 723 899 q 530 844 599 840 m 414 1059 l 346 1127 q 382 1158 366 1141 q 398 1197 398 1176 q 381 1228 398 1217 q 333 1239 364 1239 q 299 1236 320 1239 q 262 1227 278 1234 l 262 1337 q 305 1349 277 1345 q 355 1353 333 1353 q 469 1319 427 1353 q 511 1222 511 1286 q 481 1121 511 1165 q 414 1059 450 1078 z "},"Ỡ":{"ha":781,"x_min":40,"x_max":802,"o":"m 390 -11 q 200 50 279 -11 q 81 224 122 110 q 40 500 40 338 q 81 777 40 663 q 200 950 122 890 q 390 1010 278 1010 q 579 950 500 1010 q 700 776 658 890 q 741 500 741 662 q 700 224 741 338 q 580 50 659 110 q 390 -11 501 -11 m 390 166 q 482 205 445 166 q 539 319 519 245 q 558 500 558 394 q 538 681 557 607 q 480 794 518 755 q 390 833 443 833 q 299 794 336 833 q 243 680 262 754 q 223 500 223 606 q 243 321 223 395 q 300 206 263 246 q 390 166 338 166 m 530 844 l 528 966 q 629 999 598 966 q 661 1097 661 1031 q 659 1128 661 1108 q 654 1166 657 1149 l 788 1191 q 799 1138 796 1168 q 802 1090 802 1109 q 763 956 802 1013 q 661 870 723 899 q 530 844 599 840 m 146 1070 q 185 1208 146 1154 q 296 1262 225 1262 q 359 1250 334 1262 q 401 1223 384 1238 q 435 1196 419 1208 q 469 1184 450 1184 q 509 1207 496 1184 q 522 1262 522 1230 l 636 1262 q 597 1125 637 1181 q 484 1070 557 1070 q 423 1082 448 1070 q 380 1110 399 1094 q 346 1138 362 1126 q 310 1150 330 1150 q 273 1128 285 1150 q 261 1070 261 1107 l 146 1070 z "},"Ő":{"ha":781,"x_min":40,"x_max":741,"o":"m 390 -11 q 200 50 279 -11 q 81 224 122 110 q 40 500 40 338 q 81 777 40 663 q 200 950 122 890 q 390 1010 278 1010 q 579 950 500 1010 q 700 776 658 890 q 741 500 741 662 q 700 224 741 338 q 580 50 659 110 q 390 -11 501 -11 m 390 166 q 482 205 445 166 q 539 319 519 245 q 558 500 558 394 q 538 681 557 607 q 480 794 518 755 q 390 833 443 833 q 299 794 336 833 q 243 680 262 754 q 223 500 223 606 q 243 321 223 395 q 300 206 263 246 q 390 166 338 166 m 306 1064 l 210 1110 l 350 1352 l 471 1282 l 306 1064 m 559 1064 l 466 1110 l 600 1352 l 724 1282 l 559 1064 z "},"Ȏ":{"ha":781,"x_min":40,"x_max":741,"o":"m 390 -11 q 200 50 279 -11 q 81 224 122 110 q 40 500 40 338 q 81 777 40 663 q 200 950 122 890 q 390 1010 278 1010 q 579 950 500 1010 q 700 776 658 890 q 741 500 741 662 q 700 224 741 338 q 580 50 659 110 q 390 -11 501 -11 m 390 166 q 482 205 445 166 q 539 319 519 245 q 558 500 558 394 q 538 681 557 607 q 480 794 518 755 q 390 833 443 833 q 299 794 336 833 q 243 680 262 754 q 223 500 223 606 q 243 321 223 395 q 300 206 263 246 q 390 166 338 166 m 389 1274 q 512 1250 456 1274 q 603 1179 569 1225 q 635 1064 636 1132 l 520 1064 q 481 1145 521 1120 q 389 1170 442 1170 q 300 1145 340 1170 q 259 1064 260 1120 l 145 1064 q 179 1179 145 1132 q 269 1250 213 1225 q 389 1274 324 1274 z "},"Ō":{"ha":781,"x_min":40,"x_max":741,"o":"m 390 -11 q 200 50 279 -11 q 81 224 122 110 q 40 500 40 338 q 81 777 40 663 q 200 950 122 890 q 390 1010 278 1010 q 579 950 500 1010 q 700 776 658 890 q 741 500 741 662 q 700 224 741 338 q 580 50 659 110 q 390 -11 501 -11 m 390 166 q 482 205 445 166 q 539 319 519 245 q 558 500 558 394 q 538 681 557 607 q 480 794 518 755 q 390 833 443 833 q 299 794 336 833 q 243 680 262 754 q 223 500 223 606 q 243 321 223 395 q 300 206 263 246 q 390 166 338 166 m 130 1101 l 130 1227 l 650 1227 l 650 1101 l 130 1101 z "},"Ṓ":{"ha":781,"x_min":40,"x_max":741,"o":"m 130 1101 l 130 1227 l 650 1227 l 650 1101 l 130 1101 m 391 1278 l 312 1358 l 535 1562 l 624 1446 l 391 1278 m 390 -11 q 200 50 279 -11 q 81 224 122 110 q 40 500 40 338 q 81 777 40 663 q 200 950 122 890 q 390 1010 278 1010 q 579 950 500 1010 q 700 776 658 890 q 741 500 741 662 q 700 224 741 338 q 580 50 659 110 q 390 -11 501 -11 m 390 166 q 482 205 445 166 q 539 319 519 245 q 558 500 558 394 q 538 681 557 607 q 480 794 518 755 q 390 833 443 833 q 299 794 336 833 q 243 680 262 754 q 223 500 223 606 q 243 321 223 395 q 300 206 263 246 q 390 166 338 166 z "},"Ṑ":{"ha":781,"x_min":40,"x_max":741,"o":"m 390 -11 q 200 50 279 -11 q 81 224 122 110 q 40 500 40 338 q 81 777 40 663 q 200 950 122 890 q 390 1010 278 1010 q 579 950 500 1010 q 700 776 658 890 q 741 500 741 662 q 700 224 741 338 q 580 50 659 110 q 390 -11 501 -11 m 390 166 q 482 205 445 166 q 539 319 519 245 q 558 500 558 394 q 538 681 557 607 q 480 794 518 755 q 390 833 443 833 q 299 794 336 833 q 243 680 262 754 q 223 500 223 606 q 243 321 223 395 q 300 206 263 246 q 390 166 338 166 m 130 1101 l 130 1227 l 650 1227 l 650 1101 l 130 1101 m 391 1277 l 157 1446 l 247 1562 l 469 1358 l 391 1277 z "},"Ǫ":{"ha":781,"x_min":40,"x_max":741,"o":"m 390 -11 q 200 50 279 -11 q 81 224 122 110 q 40 500 40 338 q 81 777 40 663 q 200 950 122 890 q 390 1010 278 1010 q 579 950 500 1010 q 700 776 658 890 q 741 500 741 662 q 700 224 741 338 q 580 50 659 110 q 390 -11 501 -11 m 390 166 q 482 205 445 166 q 539 319 519 245 q 558 500 558 394 q 538 681 557 607 q 480 794 518 755 q 390 833 443 833 q 299 794 336 833 q 243 680 262 754 q 223 500 223 606 q 243 321 223 395 q 300 206 263 246 q 390 166 338 166 m 363 -289 q 262 -253 301 -289 q 222 -157 222 -216 q 260 -58 222 -102 q 364 31 298 -14 l 460 0 q 401 -45 429 -23 q 356 -90 373 -67 q 339 -136 339 -112 q 354 -169 339 -157 q 396 -181 368 -181 q 436 -175 415 -181 q 467 -162 457 -170 l 467 -269 q 418 -283 450 -277 q 363 -289 386 -289 z "},"Ø":{"ha":781,"x_min":-5,"x_max":787,"o":"m 390 -11 q 200 50 279 -11 q 81 224 122 110 q 40 500 40 338 q 81 777 40 663 q 200 950 122 890 q 390 1010 278 1010 q 579 950 500 1010 q 700 776 658 890 q 741 500 741 662 q 700 224 741 338 q 580 50 659 110 q 390 -11 501 -11 m 390 166 q 482 205 445 166 q 539 319 519 245 q 558 500 558 394 q 538 681 557 607 q 480 794 518 755 q 390 833 443 833 q 299 794 336 833 q 243 680 262 754 q 223 500 223 606 q 243 321 223 395 q 300 206 263 246 q 390 166 338 166 m -5 0 l 616 1000 l 787 1000 l 168 0 l -5 0 z "},"Ǿ":{"ha":781,"x_min":-5,"x_max":787,"o":"m 390 -11 q 200 50 279 -11 q 81 224 122 110 q 40 500 40 338 q 81 777 40 663 q 200 950 122 890 q 390 1010 278 1010 q 579 950 500 1010 q 700 776 658 890 q 741 500 741 662 q 700 224 741 338 q 580 50 659 110 q 390 -11 501 -11 m 390 166 q 482 205 445 166 q 539 319 519 245 q 558 500 558 394 q 538 681 557 607 q 480 794 518 755 q 390 833 443 833 q 299 794 336 833 q 243 680 262 754 q 223 500 223 606 q 243 321 223 395 q 300 206 263 246 q 390 166 338 166 m -5 0 l 616 1000 l 787 1000 l 168 0 l -5 0 m 391 1049 l 312 1130 l 534 1334 l 624 1218 l 391 1049 z "},"Õ":{"ha":781,"x_min":40,"x_max":741,"o":"m 390 -11 q 200 50 279 -11 q 81 224 122 110 q 40 500 40 338 q 81 777 40 663 q 200 950 122 890 q 390 1010 278 1010 q 579 950 500 1010 q 700 776 658 890 q 741 500 741 662 q 700 224 741 338 q 580 50 659 110 q 390 -11 501 -11 m 390 166 q 482 205 445 166 q 539 319 519 245 q 558 500 558 394 q 538 681 557 607 q 480 794 518 755 q 390 833 443 833 q 299 794 336 833 q 243 680 262 754 q 223 500 223 606 q 243 321 223 395 q 300 206 263 246 q 390 166 338 166 m 146 1070 q 185 1208 146 1154 q 296 1262 225 1262 q 359 1250 334 1262 q 401 1223 384 1238 q 435 1196 419 1208 q 469 1184 450 1184 q 509 1207 496 1184 q 522 1262 522 1230 l 636 1262 q 597 1125 637 1181 q 484 1070 557 1070 q 423 1082 448 1070 q 380 1110 399 1094 q 346 1138 362 1126 q 310 1150 330 1150 q 273 1128 285 1150 q 261 1070 261 1107 l 146 1070 z "},"Ṍ":{"ha":781,"x_min":40,"x_max":741,"o":"m 390 -11 q 200 50 279 -11 q 81 224 122 110 q 40 500 40 338 q 81 777 40 663 q 200 950 122 890 q 390 1010 278 1010 q 579 950 500 1010 q 700 776 658 890 q 741 500 741 662 q 700 224 741 338 q 580 50 659 110 q 390 -11 501 -11 m 390 166 q 482 205 445 166 q 539 319 519 245 q 558 500 558 394 q 538 681 557 607 q 480 794 518 755 q 390 833 443 833 q 299 794 336 833 q 243 680 262 754 q 223 500 223 606 q 243 321 223 395 q 300 206 263 246 q 390 166 338 166 m 146 1070 q 185 1208 146 1154 q 296 1262 225 1262 q 359 1250 334 1262 q 401 1223 384 1238 q 435 1196 419 1208 q 469 1184 450 1184 q 509 1207 496 1184 q 522 1262 522 1230 l 636 1262 q 597 1125 637 1181 q 484 1070 557 1070 q 423 1082 448 1070 q 380 1110 399 1094 q 346 1138 362 1126 q 310 1150 330 1150 q 273 1128 285 1150 q 261 1070 261 1107 l 146 1070 m 391 1303 l 312 1383 l 534 1588 l 624 1472 l 391 1303 z "},"Ṏ":{"ha":781,"x_min":40,"x_max":741,"o":"m 390 -11 q 200 50 279 -11 q 81 224 122 110 q 40 500 40 338 q 81 777 40 663 q 200 950 122 890 q 390 1010 278 1010 q 579 950 500 1010 q 700 776 658 890 q 741 500 741 662 q 700 224 741 338 q 580 50 659 110 q 390 -11 501 -11 m 390 166 q 482 205 445 166 q 539 319 519 245 q 558 500 558 394 q 538 681 557 607 q 480 794 518 755 q 390 833 443 833 q 299 794 336 833 q 243 680 262 754 q 223 500 223 606 q 243 321 223 395 q 300 206 263 246 q 390 166 338 166 m 146 1070 q 185 1208 146 1154 q 296 1262 225 1262 q 359 1250 334 1262 q 401 1223 384 1238 q 435 1196 419 1208 q 469 1184 450 1184 q 509 1207 496 1184 q 522 1262 522 1230 l 636 1262 q 597 1125 637 1181 q 484 1070 557 1070 q 423 1082 448 1070 q 380 1110 399 1094 q 346 1138 362 1126 q 310 1150 330 1150 q 273 1128 285 1150 q 261 1070 261 1107 l 146 1070 m 552 1310 q 472 1341 504 1310 q 441 1419 441 1372 q 472 1497 441 1466 q 552 1529 504 1529 q 629 1497 598 1529 q 660 1419 659 1466 q 629 1341 659 1372 q 552 1310 598 1310 m 235 1310 q 157 1341 188 1310 q 125 1419 125 1372 q 157 1497 125 1466 q 235 1529 188 1529 q 313 1497 282 1529 q 344 1419 344 1466 q 313 1341 344 1372 q 235 1310 282 1310 z "},"Ȭ":{"ha":781,"x_min":40,"x_max":741,"o":"m 390 -11 q 200 50 279 -11 q 81 224 122 110 q 40 500 40 338 q 81 777 40 663 q 200 950 122 890 q 390 1010 278 1010 q 579 950 500 1010 q 700 776 658 890 q 741 500 741 662 q 700 224 741 338 q 580 50 659 110 q 390 -11 501 -11 m 390 166 q 482 205 445 166 q 539 319 519 245 q 558 500 558 394 q 538 681 557 607 q 480 794 518 755 q 390 833 443 833 q 299 794 336 833 q 243 680 262 754 q 223 500 223 606 q 243 321 223 395 q 300 206 263 246 q 390 166 338 166 m 146 1070 q 185 1208 146 1154 q 296 1262 225 1262 q 359 1250 334 1262 q 401 1223 384 1238 q 435 1196 419 1208 q 469 1184 450 1184 q 509 1207 496 1184 q 522 1262 522 1230 l 636 1262 q 597 1125 637 1181 q 484 1070 557 1070 q 423 1082 448 1070 q 380 1110 399 1094 q 346 1138 362 1126 q 310 1150 330 1150 q 273 1128 285 1150 q 261 1070 261 1107 l 146 1070 m 130 1355 l 130 1481 l 650 1481 l 650 1355 l 130 1355 z "},"Œ":{"ha":781,"x_min":24,"x_max":758,"o":"m 281 -11 q 147 50 205 -11 q 57 225 90 111 q 24 500 24 339 q 57 775 24 661 q 146 950 89 889 q 281 1010 204 1010 q 369 982 333 1010 q 427 903 404 954 q 463 788 450 852 l 437 788 l 437 1000 l 758 1000 l 758 825 l 576 825 l 576 591 l 734 591 l 734 422 l 576 422 l 576 174 l 758 174 l 758 0 l 437 0 l 437 214 l 463 214 q 427 97 450 148 q 368 18 404 46 q 281 -11 332 -11 m 309 161 q 396 249 364 161 q 429 500 429 337 q 397 750 429 662 q 311 839 366 839 q 227 750 254 839 q 199 500 199 661 q 227 251 199 341 q 309 161 254 161 z "},"P":{"ha":781,"x_min":100,"x_max":741,"o":"m 254 345 l 254 518 l 402 518 q 480 538 446 518 q 532 593 513 558 q 551 674 551 629 q 508 785 551 744 q 395 825 466 825 l 254 825 l 254 1000 l 408 1000 q 584 960 509 1000 q 700 849 659 921 q 741 680 741 777 q 699 506 741 581 q 584 388 658 430 q 412 345 509 345 l 254 345 m 100 0 l 100 1000 l 293 1000 l 293 0 l 100 0 z "},"Þ":{"ha":781,"x_min":98,"x_max":737,"o":"m 245 174 l 245 345 l 414 345 q 486 365 455 345 q 534 421 517 385 q 551 503 551 457 q 511 615 551 575 q 407 656 472 656 l 245 656 l 245 827 l 416 827 q 585 789 513 827 q 697 679 657 750 q 737 508 737 607 q 697 335 737 410 q 586 216 657 259 q 421 174 515 174 l 245 174 m 98 0 l 98 1000 l 290 1000 l 290 0 l 98 0 z "},"Q":{"ha":781,"x_min":41,"x_max":768,"o":"m 388 -11 q 201 49 279 -11 q 82 223 123 109 q 41 500 41 338 q 83 777 41 663 q 202 951 124 891 q 391 1011 281 1011 q 580 951 503 1011 q 696 778 656 891 q 736 506 736 665 q 710 277 736 376 q 634 111 684 177 l 589 90 q 508 15 561 41 q 388 -11 454 -11 m 608 0 l 542 109 l 443 163 l 312 368 l 469 368 l 556 220 l 649 175 l 768 0 l 608 0 m 391 161 q 489 197 451 161 q 544 308 526 233 q 562 496 562 382 q 543 678 561 602 q 488 794 526 753 q 391 834 450 834 q 294 795 333 834 q 236 681 256 756 q 216 496 216 606 q 235 315 216 390 q 293 201 254 241 q 391 161 332 161 z "},"R":{"ha":781,"x_min":68,"x_max":760,"o":"m 211 362 l 211 522 l 373 522 q 448 541 415 522 q 500 595 481 560 q 519 675 519 629 q 476 785 519 745 q 366 825 433 825 l 211 825 l 211 1000 l 395 1000 q 551 964 481 1000 q 663 862 621 929 q 704 698 704 795 q 661 528 704 604 q 538 407 618 452 q 348 362 458 362 l 211 362 m 68 0 l 68 1000 l 256 1000 l 256 0 l 68 0 m 548 0 l 348 390 l 488 505 l 760 0 l 548 0 z "},"Ŕ":{"ha":781,"x_min":68,"x_max":760,"o":"m 211 362 l 211 522 l 373 522 q 448 541 415 522 q 500 595 481 560 q 519 675 519 629 q 476 785 519 745 q 366 825 433 825 l 211 825 l 211 1000 l 395 1000 q 551 964 481 1000 q 663 862 621 929 q 704 698 704 795 q 661 528 704 604 q 538 407 618 452 q 348 362 458 362 l 211 362 m 68 0 l 68 1000 l 256 1000 l 256 0 l 68 0 m 548 0 l 348 390 l 488 505 l 760 0 l 548 0 m 355 1049 l 276 1130 l 498 1334 l 588 1218 l 355 1049 z "},"Ř":{"ha":781,"x_min":68,"x_max":760,"o":"m 211 362 l 211 522 l 373 522 q 448 541 415 522 q 500 595 481 560 q 519 675 519 629 q 476 785 519 745 q 366 825 433 825 l 211 825 l 211 1000 l 395 1000 q 551 964 481 1000 q 663 862 621 929 q 704 698 704 795 q 661 528 704 604 q 538 407 618 452 q 348 362 458 362 l 211 362 m 68 0 l 68 1000 l 256 1000 l 256 0 l 68 0 m 548 0 l 348 390 l 488 505 l 760 0 l 548 0 m 189 1300 l 352 1173 l 356 1173 l 522 1300 l 605 1211 l 374 1047 l 336 1047 l 104 1211 l 189 1300 z "},"Ŗ":{"ha":781,"x_min":68,"x_max":760,"o":"m 211 362 l 211 522 l 373 522 q 448 541 415 522 q 500 595 481 560 q 519 675 519 629 q 476 785 519 745 q 366 825 433 825 l 211 825 l 211 1000 l 395 1000 q 551 964 481 1000 q 663 862 621 929 q 704 698 704 795 q 661 528 704 604 q 538 407 618 452 q 348 362 458 362 l 211 362 m 68 0 l 68 1000 l 256 1000 l 256 0 l 68 0 m 548 0 l 348 390 l 488 505 l 760 0 l 548 0 m 341 -409 l 302 -360 l 362 -309 q 389 -281 375 -296 q 411 -250 402 -265 q 419 -220 420 -234 l 443 -220 q 431 -249 441 -235 q 395 -262 420 -262 q 338 -238 366 -262 q 311 -175 311 -214 q 337 -113 311 -136 q 395 -90 363 -90 q 457 -115 431 -90 q 483 -188 483 -139 q 468 -260 483 -228 q 435 -314 454 -292 q 404 -349 416 -337 l 341 -409 z "},"Ȑ":{"ha":781,"x_min":18,"x_max":760,"o":"m 211 362 l 211 522 l 373 522 q 448 541 415 522 q 500 595 481 560 q 519 675 519 629 q 476 785 519 745 q 366 825 433 825 l 211 825 l 211 1000 l 395 1000 q 551 964 481 1000 q 663 862 621 929 q 704 698 704 795 q 661 528 704 604 q 538 407 618 452 q 348 362 458 362 l 211 362 m 68 0 l 68 1000 l 256 1000 l 256 0 l 68 0 m 548 0 l 348 390 l 488 505 l 760 0 l 548 0 m 186 1064 l 18 1282 l 143 1352 l 279 1110 l 186 1064 m 436 1064 l 274 1282 l 399 1352 l 532 1110 l 436 1064 z "},"Ṛ":{"ha":781,"x_min":68,"x_max":760,"o":"m 211 362 l 211 522 l 373 522 q 448 541 415 522 q 500 595 481 560 q 519 675 519 629 q 476 785 519 745 q 366 825 433 825 l 211 825 l 211 1000 l 395 1000 q 551 964 481 1000 q 663 862 621 929 q 704 698 704 795 q 661 528 704 604 q 538 407 618 452 q 348 362 458 362 l 211 362 m 68 0 l 68 1000 l 256 1000 l 256 0 l 68 0 m 548 0 l 348 390 l 488 505 l 760 0 l 548 0 m 393 -318 q 308 -283 342 -318 q 274 -199 274 -249 q 308 -114 274 -149 q 393 -80 342 -80 q 477 -114 444 -80 q 511 -199 511 -149 q 477 -283 511 -249 q 393 -318 444 -318 z "},"Ȓ":{"ha":781,"x_min":68,"x_max":760,"o":"m 211 362 l 211 522 l 373 522 q 448 541 415 522 q 500 595 481 560 q 519 675 519 629 q 476 785 519 745 q 366 825 433 825 l 211 825 l 211 1000 l 395 1000 q 551 964 481 1000 q 663 862 621 929 q 704 698 704 795 q 661 528 704 604 q 538 407 618 452 q 348 362 458 362 l 211 362 m 68 0 l 68 1000 l 256 1000 l 256 0 l 68 0 m 548 0 l 348 390 l 488 505 l 760 0 l 548 0 m 353 1274 q 476 1250 420 1274 q 567 1179 533 1225 q 599 1064 600 1132 l 484 1064 q 446 1145 486 1120 q 353 1170 406 1170 q 264 1145 304 1170 q 223 1064 224 1120 l 110 1064 q 143 1179 110 1132 q 233 1250 177 1225 q 353 1274 288 1274 z "},"Ṟ":{"ha":781,"x_min":68,"x_max":760,"o":"m 211 362 l 211 522 l 373 522 q 448 541 415 522 q 500 595 481 560 q 519 675 519 629 q 476 785 519 745 q 366 825 433 825 l 211 825 l 211 1000 l 395 1000 q 551 964 481 1000 q 663 862 621 929 q 704 698 704 795 q 661 528 704 604 q 538 407 618 452 q 348 362 458 362 l 211 362 m 68 0 l 68 1000 l 256 1000 l 256 0 l 68 0 m 548 0 l 348 390 l 488 505 l 760 0 l 548 0 m 127 -281 l 127 -166 l 658 -166 l 658 -281 l 127 -281 z "},"S":{"ha":781,"x_min":52,"x_max":719,"o":"m 402 -11 q 251 21 323 -11 q 127 107 180 52 q 52 231 74 161 l 237 308 q 274 238 250 270 q 332 186 299 205 q 401 166 364 166 q 464 182 436 166 q 508 225 492 198 q 524 287 524 253 q 500 356 524 329 q 437 404 476 384 q 351 442 398 425 q 256 481 303 460 q 170 535 209 503 q 106 614 130 567 q 82 730 82 661 q 121 879 82 816 q 228 976 159 941 q 385 1010 296 1010 q 524 985 462 1010 q 629 915 586 959 q 694 813 673 870 l 516 740 q 485 791 505 770 q 439 825 465 813 q 384 837 413 837 q 308 810 340 837 q 276 734 276 783 q 300 664 276 692 q 363 617 324 637 q 450 581 403 598 q 545 543 498 564 q 631 491 592 522 q 695 414 671 460 q 719 298 719 367 q 677 139 719 209 q 563 29 635 69 q 402 -11 491 -11 z "},"Ś":{"ha":781,"x_min":52,"x_max":719,"o":"m 402 -11 q 251 21 323 -11 q 127 107 180 52 q 52 231 74 161 l 237 308 q 274 238 250 270 q 332 186 299 205 q 401 166 364 166 q 464 182 436 166 q 508 225 492 198 q 524 287 524 253 q 500 356 524 329 q 437 404 476 384 q 351 442 398 425 q 256 481 303 460 q 170 535 209 503 q 106 614 130 567 q 82 730 82 661 q 121 879 82 816 q 228 976 159 941 q 385 1010 296 1010 q 524 985 462 1010 q 629 915 586 959 q 694 813 673 870 l 516 740 q 485 791 505 770 q 439 825 465 813 q 384 837 413 837 q 308 810 340 837 q 276 734 276 783 q 300 664 276 692 q 363 617 324 637 q 450 581 403 598 q 545 543 498 564 q 631 491 592 522 q 695 414 671 460 q 719 298 719 367 q 677 139 719 209 q 563 29 635 69 q 402 -11 491 -11 m 391 1049 l 313 1130 l 535 1334 l 625 1218 l 391 1049 z "},"Ṥ":{"ha":781,"x_min":52,"x_max":719,"o":"m 402 -11 q 251 21 323 -11 q 127 107 180 52 q 52 231 74 161 l 237 308 q 274 238 250 270 q 332 186 299 205 q 401 166 364 166 q 464 182 436 166 q 508 225 492 198 q 524 287 524 253 q 500 356 524 329 q 437 404 476 384 q 351 442 398 425 q 256 481 303 460 q 170 535 209 503 q 106 614 130 567 q 82 730 82 661 q 121 879 82 816 q 228 976 159 941 q 385 1010 296 1010 q 524 985 462 1010 q 629 915 586 959 q 694 813 673 870 l 516 740 q 485 791 505 770 q 439 825 465 813 q 384 837 413 837 q 308 810 340 837 q 276 734 276 783 q 300 664 276 692 q 363 617 324 637 q 450 581 403 598 q 545 543 498 564 q 631 491 592 522 q 695 414 671 460 q 719 298 719 367 q 677 139 719 209 q 563 29 635 69 q 402 -11 491 -11 m 493 1061 l 412 1131 l 598 1381 l 708 1275 l 493 1061 m 250 1092 q 165 1126 199 1092 q 131 1211 131 1161 q 165 1296 131 1261 q 250 1330 199 1330 q 334 1296 300 1330 q 368 1211 368 1261 q 334 1126 368 1161 q 250 1092 300 1092 z "},"Š":{"ha":781,"x_min":52,"x_max":719,"o":"m 402 -11 q 251 21 323 -11 q 127 107 180 52 q 52 231 74 161 l 237 308 q 274 238 250 270 q 332 186 299 205 q 401 166 364 166 q 464 182 436 166 q 508 225 492 198 q 524 287 524 253 q 500 356 524 329 q 437 404 476 384 q 351 442 398 425 q 256 481 303 460 q 170 535 209 503 q 106 614 130 567 q 82 730 82 661 q 121 879 82 816 q 228 976 159 941 q 385 1010 296 1010 q 524 985 462 1010 q 629 915 586 959 q 694 813 673 870 l 516 740 q 485 791 505 770 q 439 825 465 813 q 384 837 413 837 q 308 810 340 837 q 276 734 276 783 q 300 664 276 692 q 363 617 324 637 q 450 581 403 598 q 545 543 498 564 q 631 491 592 522 q 695 414 671 460 q 719 298 719 367 q 677 139 719 209 q 563 29 635 69 q 402 -11 491 -11 m 226 1300 l 389 1173 l 392 1173 l 558 1300 l 641 1211 l 410 1047 l 372 1047 l 140 1211 l 226 1300 z "},"Ṧ":{"ha":781,"x_min":52,"x_max":719,"o":"m 402 -11 q 251 21 323 -11 q 127 107 180 52 q 52 231 74 161 l 237 308 q 274 238 250 270 q 332 186 299 205 q 401 166 364 166 q 464 182 436 166 q 508 225 492 198 q 524 287 524 253 q 500 356 524 329 q 437 404 476 384 q 351 442 398 425 q 256 481 303 460 q 170 535 209 503 q 106 614 130 567 q 82 730 82 661 q 121 879 82 816 q 228 976 159 941 q 385 1010 296 1010 q 524 985 462 1010 q 629 915 586 959 q 694 813 673 870 l 516 740 q 485 791 505 770 q 439 825 465 813 q 384 837 413 837 q 308 810 340 837 q 276 734 276 783 q 300 664 276 692 q 363 617 324 637 q 450 581 403 598 q 545 543 498 564 q 631 491 592 522 q 695 414 671 460 q 719 298 719 367 q 677 139 719 209 q 563 29 635 69 q 402 -11 491 -11 m 226 1300 l 389 1173 l 392 1173 l 558 1300 l 641 1211 l 410 1047 l 372 1047 l 140 1211 l 226 1300 m 390 1284 q 306 1318 340 1284 q 271 1402 271 1353 q 306 1488 271 1453 q 390 1522 340 1522 q 475 1488 441 1522 q 509 1402 509 1453 q 475 1318 509 1353 q 390 1284 441 1284 z "},"Ş":{"ha":781,"x_min":52,"x_max":719,"o":"m 402 -11 q 251 21 323 -11 q 127 107 180 52 q 52 231 74 161 l 237 308 q 274 238 250 270 q 332 186 299 205 q 401 166 364 166 q 464 182 436 166 q 508 225 492 198 q 524 287 524 253 q 500 356 524 329 q 437 404 476 384 q 351 442 398 425 q 256 481 303 460 q 170 535 209 503 q 106 614 130 567 q 82 730 82 661 q 121 879 82 816 q 228 976 159 941 q 385 1010 296 1010 q 524 985 462 1010 q 629 915 586 959 q 694 813 673 870 l 516 740 q 485 791 505 770 q 439 825 465 813 q 384 837 413 837 q 308 810 340 837 q 276 734 276 783 q 300 664 276 692 q 363 617 324 637 q 450 581 403 598 q 545 543 498 564 q 631 491 592 522 q 695 414 671 460 q 719 298 719 367 q 677 139 719 209 q 563 29 635 69 q 402 -11 491 -11 m 298 -338 l 298 -243 q 401 -230 368 -246 q 433 -186 433 -214 q 407 -150 433 -165 q 334 -132 381 -135 l 376 0 l 458 0 l 421 -111 l 412 -67 q 509 -110 473 -77 q 545 -196 545 -143 q 486 -300 545 -260 q 298 -338 426 -340 z "},"Ŝ":{"ha":781,"x_min":52,"x_max":719,"o":"m 402 -11 q 251 21 323 -11 q 127 107 180 52 q 52 231 74 161 l 237 308 q 274 238 250 270 q 332 186 299 205 q 401 166 364 166 q 464 182 436 166 q 508 225 492 198 q 524 287 524 253 q 500 356 524 329 q 437 404 476 384 q 351 442 398 425 q 256 481 303 460 q 170 535 209 503 q 106 614 130 567 q 82 730 82 661 q 121 879 82 816 q 228 976 159 941 q 385 1010 296 1010 q 524 985 462 1010 q 629 915 586 959 q 694 813 673 870 l 516 740 q 485 791 505 770 q 439 825 465 813 q 384 837 413 837 q 308 810 340 837 q 276 734 276 783 q 300 664 276 692 q 363 617 324 637 q 450 581 403 598 q 545 543 498 564 q 631 491 592 522 q 695 414 671 460 q 719 298 719 367 q 677 139 719 209 q 563 29 635 69 q 402 -11 491 -11 m 227 1051 l 142 1140 l 373 1304 l 412 1304 l 642 1140 l 559 1051 l 393 1178 l 389 1178 l 227 1051 z "},"Ș":{"ha":781,"x_min":52,"x_max":719,"o":"m 402 -11 q 251 21 323 -11 q 127 107 180 52 q 52 231 74 161 l 237 308 q 274 238 250 270 q 332 186 299 205 q 401 166 364 166 q 464 182 436 166 q 508 225 492 198 q 524 287 524 253 q 500 356 524 329 q 437 404 476 384 q 351 442 398 425 q 256 481 303 460 q 170 535 209 503 q 106 614 130 567 q 82 730 82 661 q 121 879 82 816 q 228 976 159 941 q 385 1010 296 1010 q 524 985 462 1010 q 629 915 586 959 q 694 813 673 870 l 516 740 q 485 791 505 770 q 439 825 465 813 q 384 837 413 837 q 308 810 340 837 q 276 734 276 783 q 300 664 276 692 q 363 617 324 637 q 450 581 403 598 q 545 543 498 564 q 631 491 592 522 q 695 414 671 460 q 719 298 719 367 q 677 139 719 209 q 563 29 635 69 q 402 -11 491 -11 m 355 -409 l 316 -360 l 376 -309 q 402 -281 389 -296 q 425 -250 416 -265 q 433 -220 433 -234 l 456 -220 q 444 -249 455 -235 q 408 -262 433 -262 q 352 -238 380 -262 q 324 -175 324 -214 q 351 -113 324 -136 q 408 -90 377 -90 q 471 -115 445 -90 q 496 -188 496 -139 q 482 -260 496 -228 q 449 -314 467 -292 q 417 -349 430 -337 l 355 -409 z "},"Ṡ":{"ha":781,"x_min":52,"x_max":719,"o":"m 402 -11 q 251 21 323 -11 q 127 107 180 52 q 52 231 74 161 l 237 308 q 274 238 250 270 q 332 186 299 205 q 401 166 364 166 q 464 182 436 166 q 508 225 492 198 q 524 287 524 253 q 500 356 524 329 q 437 404 476 384 q 351 442 398 425 q 256 481 303 460 q 170 535 209 503 q 106 614 130 567 q 82 730 82 661 q 121 879 82 816 q 228 976 159 941 q 385 1010 296 1010 q 524 985 462 1010 q 629 915 586 959 q 694 813 673 870 l 516 740 q 485 791 505 770 q 439 825 465 813 q 384 837 413 837 q 308 810 340 837 q 276 734 276 783 q 300 664 276 692 q 363 617 324 637 q 450 581 403 598 q 545 543 498 564 q 631 491 592 522 q 695 414 671 460 q 719 298 719 367 q 677 139 719 209 q 563 29 635 69 q 402 -11 491 -11 m 390 1062 q 306 1097 340 1062 q 271 1181 271 1131 q 306 1266 271 1232 q 390 1300 340 1300 q 475 1266 441 1300 q 509 1181 509 1232 q 475 1097 509 1131 q 390 1062 441 1062 z "},"Ṣ":{"ha":781,"x_min":52,"x_max":719,"o":"m 402 -11 q 251 21 323 -11 q 127 107 180 52 q 52 231 74 161 l 237 308 q 274 238 250 270 q 332 186 299 205 q 401 166 364 166 q 464 182 436 166 q 508 225 492 198 q 524 287 524 253 q 500 356 524 329 q 437 404 476 384 q 351 442 398 425 q 256 481 303 460 q 170 535 209 503 q 106 614 130 567 q 82 730 82 661 q 121 879 82 816 q 228 976 159 941 q 385 1010 296 1010 q 524 985 462 1010 q 629 915 586 959 q 694 813 673 870 l 516 740 q 485 791 505 770 q 439 825 465 813 q 384 837 413 837 q 308 810 340 837 q 276 734 276 783 q 300 664 276 692 q 363 617 324 637 q 450 581 403 598 q 545 543 498 564 q 631 491 592 522 q 695 414 671 460 q 719 298 719 367 q 677 139 719 209 q 563 29 635 69 q 402 -11 491 -11 m 406 -318 q 322 -283 356 -318 q 288 -199 288 -249 q 322 -114 288 -149 q 406 -80 356 -80 q 491 -114 457 -80 q 525 -199 525 -149 q 491 -283 525 -249 q 406 -318 457 -318 z "},"Ṩ":{"ha":781,"x_min":52,"x_max":719,"o":"m 402 -11 q 251 21 323 -11 q 127 107 180 52 q 52 231 74 161 l 237 308 q 274 238 250 270 q 332 186 299 205 q 401 166 364 166 q 464 182 436 166 q 508 225 492 198 q 524 287 524 253 q 500 356 524 329 q 437 404 476 384 q 351 442 398 425 q 256 481 303 460 q 170 535 209 503 q 106 614 130 567 q 82 730 82 661 q 121 879 82 816 q 228 976 159 941 q 385 1010 296 1010 q 524 985 462 1010 q 629 915 586 959 q 694 813 673 870 l 516 740 q 485 791 505 770 q 439 825 465 813 q 384 837 413 837 q 308 810 340 837 q 276 734 276 783 q 300 664 276 692 q 363 617 324 637 q 450 581 403 598 q 545 543 498 564 q 631 491 592 522 q 695 414 671 460 q 719 298 719 367 q 677 139 719 209 q 563 29 635 69 q 402 -11 491 -11 m 405 -318 q 320 -283 355 -318 q 286 -199 286 -249 q 320 -114 286 -149 q 405 -80 355 -80 q 490 -114 456 -80 q 524 -199 524 -149 q 490 -283 524 -249 q 405 -318 456 -318 m 406 1062 q 321 1097 355 1062 q 287 1181 287 1131 q 321 1266 287 1232 q 406 1300 355 1300 q 490 1266 456 1300 q 524 1181 524 1232 q 490 1097 524 1131 q 406 1062 456 1062 z "},"ẞ":{"ha":781,"x_min":63,"x_max":758,"o":"m 446 -11 q 407 -8 425 -11 q 369 -2 389 -6 l 369 176 q 414 166 399 168 q 439 163 429 163 q 514 183 483 163 q 561 239 545 203 q 577 325 576 275 q 545 441 578 395 q 444 488 512 488 l 387 488 l 387 525 l 490 863 l 500 810 q 464 831 492 823 q 401 840 435 840 q 321 825 351 840 q 275 789 290 811 q 254 741 259 767 q 248 690 248 715 l 248 0 l 63 0 l 63 711 q 78 817 63 770 q 123 901 94 865 q 192 962 152 937 q 283 998 233 986 q 393 1010 334 1010 q 501 1002 445 1010 q 607 978 557 994 q 687 943 656 963 l 687 922 l 552 538 l 543 627 q 661 577 612 619 q 734 469 709 535 q 758 321 758 402 q 720 147 758 222 q 611 31 681 72 q 446 -11 541 -11 z "},"T":{"ha":781,"x_min":45,"x_max":736,"o":"m 294 0 l 294 854 l 488 854 l 488 0 l 294 0 m 45 825 l 45 1000 l 736 1000 l 736 825 l 45 825 z "},"Ŧ":{"ha":781,"x_min":45,"x_max":736,"o":"m 294 0 l 294 854 l 488 854 l 488 0 l 294 0 m 45 825 l 45 1000 l 736 1000 l 736 825 l 45 825 m 184 414 l 184 519 l 599 519 l 599 414 l 184 414 z "},"Ť":{"ha":781,"x_min":45,"x_max":736,"o":"m 294 0 l 294 854 l 488 854 l 488 0 l 294 0 m 45 825 l 45 1000 l 736 1000 l 736 825 l 45 825 m 225 1300 l 388 1173 l 392 1173 l 557 1300 l 640 1211 l 410 1047 l 371 1047 l 140 1211 l 225 1300 z "},"Ţ":{"ha":781,"x_min":45,"x_max":736,"o":"m 294 0 l 294 854 l 488 854 l 488 0 l 294 0 m 45 825 l 45 1000 l 736 1000 l 736 825 l 45 825 m 271 -338 l 271 -243 q 374 -230 341 -246 q 406 -186 406 -214 q 380 -150 406 -165 q 307 -132 354 -135 l 349 0 l 431 0 l 394 -111 l 385 -67 q 482 -110 446 -77 q 518 -196 518 -143 q 458 -300 518 -260 q 271 -338 399 -340 z "},"Ț":{"ha":781,"x_min":45,"x_max":736,"o":"m 294 0 l 294 854 l 488 854 l 488 0 l 294 0 m 45 825 l 45 1000 l 736 1000 l 736 825 l 45 825 m 339 -409 l 300 -360 l 360 -309 q 387 -281 373 -296 q 409 -250 400 -265 q 417 -220 418 -234 l 441 -220 q 429 -249 439 -235 q 393 -262 418 -262 q 336 -238 364 -262 q 309 -175 309 -214 q 335 -113 309 -136 q 393 -90 361 -90 q 455 -115 429 -90 q 481 -188 481 -139 q 466 -260 481 -228 q 433 -314 452 -292 q 401 -349 414 -337 l 339 -409 z "},"Ṭ":{"ha":781,"x_min":45,"x_max":736,"o":"m 294 0 l 294 854 l 488 854 l 488 0 l 294 0 m 45 825 l 45 1000 l 736 1000 l 736 825 l 45 825 m 391 -318 q 306 -283 340 -318 q 272 -199 272 -249 q 306 -114 272 -149 q 391 -80 340 -80 q 475 -114 441 -80 q 509 -199 509 -149 q 475 -283 509 -249 q 391 -318 441 -318 z "},"Ṯ":{"ha":781,"x_min":45,"x_max":736,"o":"m 294 0 l 294 854 l 488 854 l 488 0 l 294 0 m 45 825 l 45 1000 l 736 1000 l 736 825 l 45 825 m 125 -281 l 125 -166 l 656 -166 l 656 -281 l 125 -281 z "},"U":{"ha":781,"x_min":61,"x_max":720,"o":"m 391 -11 q 216 34 290 -11 q 101 162 142 79 q 61 356 61 244 l 61 1000 l 249 1000 l 249 343 q 287 212 249 260 q 391 163 324 163 q 495 212 458 163 q 532 343 532 260 l 532 1000 l 720 1000 l 720 356 q 680 162 720 244 q 566 34 640 79 q 391 -11 492 -11 z "},"Ú":{"ha":781,"x_min":61,"x_max":720,"o":"m 391 -11 q 216 34 290 -11 q 101 162 142 79 q 61 356 61 244 l 61 1000 l 249 1000 l 249 343 q 287 212 249 260 q 391 163 324 163 q 495 212 458 163 q 532 343 532 260 l 532 1000 l 720 1000 l 720 356 q 680 162 720 244 q 566 34 640 79 q 391 -11 492 -11 m 391 1049 l 312 1130 l 534 1334 l 624 1218 l 391 1049 z "},"Ŭ":{"ha":781,"x_min":61,"x_max":720,"o":"m 391 -11 q 216 34 290 -11 q 101 162 142 79 q 61 356 61 244 l 61 1000 l 249 1000 l 249 343 q 287 212 249 260 q 391 163 324 163 q 495 212 458 163 q 532 343 532 260 l 532 1000 l 720 1000 l 720 356 q 680 162 720 244 q 566 34 640 79 q 391 -11 492 -11 m 391 1061 q 269 1085 325 1061 q 180 1157 214 1109 q 146 1271 146 1204 l 260 1271 q 301 1191 260 1217 q 391 1165 341 1165 q 483 1191 443 1165 q 521 1271 522 1217 l 635 1271 q 603 1157 637 1204 q 513 1085 570 1109 q 391 1061 457 1061 z "},"Û":{"ha":781,"x_min":61,"x_max":720,"o":"m 391 -11 q 216 34 290 -11 q 101 162 142 79 q 61 356 61 244 l 61 1000 l 249 1000 l 249 343 q 287 212 249 260 q 391 163 324 163 q 495 212 458 163 q 532 343 532 260 l 532 1000 l 720 1000 l 720 356 q 680 162 720 244 q 566 34 640 79 q 391 -11 492 -11 m 226 1051 l 141 1140 l 372 1304 l 411 1304 l 642 1140 l 559 1051 l 393 1178 l 389 1178 l 226 1051 z "},"Ȕ":{"ha":781,"x_min":54,"x_max":720,"o":"m 391 -11 q 216 34 290 -11 q 101 162 142 79 q 61 356 61 244 l 61 1000 l 249 1000 l 249 343 q 287 212 249 260 q 391 163 324 163 q 495 212 458 163 q 532 343 532 260 l 532 1000 l 720 1000 l 720 356 q 680 162 720 244 q 566 34 640 79 q 391 -11 492 -11 m 222 1064 l 54 1282 l 179 1352 l 315 1110 l 222 1064 m 472 1064 l 310 1282 l 435 1352 l 568 1110 l 472 1064 z "},"Ü":{"ha":781,"x_min":61,"x_max":720,"o":"m 391 -11 q 216 34 290 -11 q 101 162 142 79 q 61 356 61 244 l 61 1000 l 249 1000 l 249 343 q 287 212 249 260 q 391 163 324 163 q 495 212 458 163 q 532 343 532 260 l 532 1000 l 720 1000 l 720 356 q 680 162 720 244 q 566 34 640 79 q 391 -11 492 -11 m 552 1056 q 472 1087 504 1056 q 441 1165 441 1118 q 472 1244 441 1213 q 552 1275 504 1275 q 629 1244 598 1275 q 660 1165 659 1213 q 629 1087 659 1118 q 552 1056 598 1056 m 235 1056 q 157 1087 188 1056 q 125 1165 125 1118 q 157 1244 125 1213 q 235 1275 188 1275 q 313 1244 282 1275 q 344 1165 344 1213 q 313 1087 344 1118 q 235 1056 282 1056 z "},"Ụ":{"ha":781,"x_min":61,"x_max":720,"o":"m 391 -11 q 216 34 290 -11 q 101 162 142 79 q 61 356 61 244 l 61 1000 l 249 1000 l 249 343 q 287 212 249 260 q 391 163 324 163 q 495 212 458 163 q 532 343 532 260 l 532 1000 l 720 1000 l 720 356 q 680 162 720 244 q 566 34 640 79 q 391 -11 492 -11 m 390 -318 q 306 -283 340 -318 q 271 -199 271 -249 q 306 -114 271 -149 q 390 -80 340 -80 q 475 -114 441 -80 q 509 -199 509 -149 q 475 -283 509 -249 q 390 -318 441 -318 z "},"Ù":{"ha":781,"x_min":61,"x_max":720,"o":"m 391 -11 q 216 34 290 -11 q 101 162 142 79 q 61 356 61 244 l 61 1000 l 249 1000 l 249 343 q 287 212 249 260 q 391 163 324 163 q 495 212 458 163 q 532 343 532 260 l 532 1000 l 720 1000 l 720 356 q 680 162 720 244 q 566 34 640 79 q 391 -11 492 -11 m 391 1049 l 157 1218 l 247 1334 l 469 1130 l 391 1049 z "},"Ủ":{"ha":781,"x_min":61,"x_max":720,"o":"m 391 -11 q 216 34 290 -11 q 101 162 142 79 q 61 356 61 244 l 61 1000 l 249 1000 l 249 343 q 287 212 249 260 q 391 163 324 163 q 495 212 458 163 q 532 343 532 260 l 532 1000 l 720 1000 l 720 356 q 680 162 720 244 q 566 34 640 79 q 391 -11 492 -11 m 413 1059 l 345 1127 q 381 1158 366 1141 q 397 1197 397 1176 q 380 1228 397 1217 q 332 1239 363 1239 q 298 1236 319 1239 q 262 1227 277 1234 l 262 1337 q 304 1349 276 1345 q 354 1353 332 1353 q 468 1319 426 1353 q 511 1222 511 1286 q 480 1121 511 1165 q 413 1059 450 1078 z "},"Ư":{"ha":781,"x_min":61,"x_max":945,"o":"m 391 -11 q 216 34 290 -11 q 101 162 142 79 q 61 356 61 244 l 61 1000 l 249 1000 l 249 343 q 287 212 249 260 q 391 163 324 163 q 495 212 458 163 q 532 343 532 260 l 532 1000 l 720 1000 l 720 356 q 680 162 720 244 q 566 34 640 79 q 391 -11 492 -11 m 673 878 l 670 1000 q 772 1033 741 1000 q 803 1131 803 1065 q 801 1162 803 1142 q 796 1200 800 1183 l 930 1225 q 942 1172 939 1202 q 945 1124 945 1143 q 905 990 945 1046 q 803 904 865 933 q 673 878 741 874 z "},"Ứ":{"ha":781,"x_min":61,"x_max":945,"o":"m 391 -11 q 216 34 290 -11 q 101 162 142 79 q 61 356 61 244 l 61 1000 l 249 1000 l 249 343 q 287 212 249 260 q 391 163 324 163 q 495 212 458 163 q 532 343 532 260 l 532 1000 l 720 1000 l 720 356 q 680 162 720 244 q 566 34 640 79 q 391 -11 492 -11 m 673 878 l 670 1000 q 772 1033 741 1000 q 803 1131 803 1065 q 801 1162 803 1142 q 796 1200 800 1183 l 930 1225 q 942 1172 939 1202 q 945 1124 945 1143 q 905 990 945 1046 q 803 904 865 933 q 673 878 741 874 m 391 1049 l 312 1130 l 534 1334 l 624 1218 l 391 1049 z "},"Ự":{"ha":781,"x_min":61,"x_max":945,"o":"m 391 -11 q 216 34 290 -11 q 101 162 142 79 q 61 356 61 244 l 61 1000 l 249 1000 l 249 343 q 287 212 249 260 q 391 163 324 163 q 495 212 458 163 q 532 343 532 260 l 532 1000 l 720 1000 l 720 356 q 680 162 720 244 q 566 34 640 79 q 391 -11 492 -11 m 673 878 l 670 1000 q 772 1033 741 1000 q 803 1131 803 1065 q 801 1162 803 1142 q 796 1200 800 1183 l 930 1225 q 942 1172 939 1202 q 945 1124 945 1143 q 905 990 945 1046 q 803 904 865 933 q 673 878 741 874 m 390 -318 q 306 -283 340 -318 q 271 -199 271 -249 q 306 -114 271 -149 q 390 -80 340 -80 q 475 -114 441 -80 q 509 -199 509 -149 q 475 -283 509 -249 q 390 -318 441 -318 z "},"Ừ":{"ha":781,"x_min":61,"x_max":945,"o":"m 391 -11 q 216 34 290 -11 q 101 162 142 79 q 61 356 61 244 l 61 1000 l 249 1000 l 249 343 q 287 212 249 260 q 391 163 324 163 q 495 212 458 163 q 532 343 532 260 l 532 1000 l 720 1000 l 720 356 q 680 162 720 244 q 566 34 640 79 q 391 -11 492 -11 m 673 878 l 670 1000 q 772 1033 741 1000 q 803 1131 803 1065 q 801 1162 803 1142 q 796 1200 800 1183 l 930 1225 q 942 1172 939 1202 q 945 1124 945 1143 q 905 990 945 1046 q 803 904 865 933 q 673 878 741 874 m 391 1049 l 157 1218 l 247 1334 l 469 1130 l 391 1049 z "},"Ử":{"ha":781,"x_min":61,"x_max":945,"o":"m 391 -11 q 216 34 290 -11 q 101 162 142 79 q 61 356 61 244 l 61 1000 l 249 1000 l 249 343 q 287 212 249 260 q 391 163 324 163 q 495 212 458 163 q 532 343 532 260 l 532 1000 l 720 1000 l 720 356 q 680 162 720 244 q 566 34 640 79 q 391 -11 492 -11 m 673 878 l 670 1000 q 772 1033 741 1000 q 803 1131 803 1065 q 801 1162 803 1142 q 796 1200 800 1183 l 930 1225 q 942 1172 939 1202 q 945 1124 945 1143 q 905 990 945 1046 q 803 904 865 933 q 673 878 741 874 m 413 1059 l 345 1127 q 381 1158 366 1141 q 397 1197 397 1176 q 380 1228 397 1217 q 332 1239 363 1239 q 298 1236 319 1239 q 262 1227 277 1234 l 262 1337 q 304 1349 276 1345 q 354 1353 332 1353 q 468 1319 426 1353 q 511 1222 511 1286 q 480 1121 511 1165 q 413 1059 450 1078 z "},"Ữ":{"ha":781,"x_min":61,"x_max":945,"o":"m 391 -11 q 216 34 290 -11 q 101 162 142 79 q 61 356 61 244 l 61 1000 l 249 1000 l 249 343 q 287 212 249 260 q 391 163 324 163 q 495 212 458 163 q 532 343 532 260 l 532 1000 l 720 1000 l 720 356 q 680 162 720 244 q 566 34 640 79 q 391 -11 492 -11 m 673 878 l 670 1000 q 772 1033 741 1000 q 803 1131 803 1065 q 801 1162 803 1142 q 796 1200 800 1183 l 930 1225 q 942 1172 939 1202 q 945 1124 945 1143 q 905 990 945 1046 q 803 904 865 933 q 673 878 741 874 m 146 1070 q 185 1208 146 1154 q 296 1262 225 1262 q 359 1250 334 1262 q 401 1223 384 1238 q 435 1196 419 1208 q 469 1184 450 1184 q 509 1207 496 1184 q 522 1262 522 1230 l 636 1262 q 597 1125 637 1181 q 484 1070 557 1070 q 423 1082 448 1070 q 380 1110 399 1094 q 346 1138 362 1126 q 310 1150 330 1150 q 273 1128 285 1150 q 261 1070 261 1107 l 146 1070 z "},"Ű":{"ha":781,"x_min":61,"x_max":724,"o":"m 391 -11 q 216 34 290 -11 q 101 162 142 79 q 61 356 61 244 l 61 1000 l 249 1000 l 249 343 q 287 212 249 260 q 391 163 324 163 q 495 212 458 163 q 532 343 532 260 l 532 1000 l 720 1000 l 720 356 q 680 162 720 244 q 566 34 640 79 q 391 -11 492 -11 m 306 1064 l 210 1110 l 350 1352 l 471 1282 l 306 1064 m 559 1064 l 466 1110 l 600 1352 l 724 1282 l 559 1064 z "},"Ȗ":{"ha":781,"x_min":61,"x_max":720,"o":"m 391 -11 q 216 34 290 -11 q 101 162 142 79 q 61 356 61 244 l 61 1000 l 249 1000 l 249 343 q 287 212 249 260 q 391 163 324 163 q 495 212 458 163 q 532 343 532 260 l 532 1000 l 720 1000 l 720 356 q 680 162 720 244 q 566 34 640 79 q 391 -11 492 -11 m 389 1274 q 512 1250 456 1274 q 603 1179 569 1225 q 635 1064 636 1132 l 519 1064 q 481 1145 521 1120 q 389 1170 442 1170 q 299 1145 340 1170 q 258 1064 259 1120 l 145 1064 q 179 1179 145 1132 q 268 1250 213 1225 q 389 1274 323 1274 z "},"Ū":{"ha":781,"x_min":61,"x_max":720,"o":"m 391 -11 q 216 34 290 -11 q 101 162 142 79 q 61 356 61 244 l 61 1000 l 249 1000 l 249 343 q 287 212 249 260 q 391 163 324 163 q 495 212 458 163 q 532 343 532 260 l 532 1000 l 720 1000 l 720 356 q 680 162 720 244 q 566 34 640 79 q 391 -11 492 -11 m 130 1101 l 130 1227 l 650 1227 l 650 1101 l 130 1101 z "},"Ṻ":{"ha":781,"x_min":61,"x_max":720,"o":"m 391 -11 q 216 34 290 -11 q 101 162 142 79 q 61 356 61 244 l 61 1000 l 249 1000 l 249 343 q 287 212 249 260 q 391 163 324 163 q 495 212 458 163 q 532 343 532 260 l 532 1000 l 720 1000 l 720 356 q 680 162 720 244 q 566 34 640 79 q 391 -11 492 -11 m 130 1101 l 130 1227 l 650 1227 l 650 1101 l 130 1101 m 552 1284 q 472 1315 504 1284 q 441 1393 441 1346 q 472 1472 441 1440 q 552 1503 504 1503 q 629 1472 598 1503 q 660 1393 659 1440 q 629 1315 659 1346 q 552 1284 598 1284 m 235 1284 q 157 1315 188 1284 q 125 1393 125 1346 q 157 1472 125 1440 q 235 1503 188 1503 q 313 1472 282 1503 q 344 1393 344 1440 q 313 1315 344 1346 q 235 1284 282 1284 z "},"Ų":{"ha":781,"x_min":61,"x_max":720,"o":"m 391 -11 q 216 34 290 -11 q 101 162 142 79 q 61 356 61 244 l 61 1000 l 249 1000 l 249 343 q 287 212 249 260 q 391 163 324 163 q 495 212 458 163 q 532 343 532 260 l 532 1000 l 720 1000 l 720 356 q 680 162 720 244 q 566 34 640 79 q 391 -11 492 -11 m 373 -289 q 271 -253 311 -289 q 232 -157 232 -216 q 270 -58 232 -102 q 374 31 308 -14 l 470 0 q 411 -45 439 -23 q 366 -90 382 -67 q 349 -136 349 -112 q 363 -169 349 -157 q 406 -181 378 -181 q 446 -175 425 -181 q 476 -162 467 -170 l 476 -269 q 427 -283 459 -277 q 373 -289 395 -289 z "},"Ů":{"ha":781,"x_min":61,"x_max":720,"o":"m 391 -11 q 216 34 290 -11 q 101 162 142 79 q 61 356 61 244 l 61 1000 l 249 1000 l 249 343 q 287 212 249 260 q 391 163 324 163 q 495 212 458 163 q 532 343 532 260 l 532 1000 l 720 1000 l 720 356 q 680 162 720 244 q 566 34 640 79 q 391 -11 492 -11 m 391 1044 q 300 1067 340 1044 q 237 1130 260 1090 q 213 1219 213 1170 q 237 1310 213 1270 q 300 1374 260 1350 q 391 1397 340 1397 q 481 1374 441 1397 q 544 1310 521 1350 q 567 1219 567 1270 q 544 1130 567 1170 q 481 1067 521 1090 q 391 1044 441 1044 m 391 1147 q 440 1168 421 1147 q 459 1219 459 1190 q 440 1272 460 1253 q 391 1292 420 1292 q 342 1272 361 1292 q 321 1219 322 1253 q 341 1168 321 1190 q 391 1147 361 1147 z "},"Ũ":{"ha":781,"x_min":61,"x_max":720,"o":"m 391 -11 q 216 34 290 -11 q 101 162 142 79 q 61 356 61 244 l 61 1000 l 249 1000 l 249 343 q 287 212 249 260 q 391 163 324 163 q 495 212 458 163 q 532 343 532 260 l 532 1000 l 720 1000 l 720 356 q 680 162 720 244 q 566 34 640 79 q 391 -11 492 -11 m 146 1070 q 185 1208 146 1154 q 296 1262 225 1262 q 359 1250 334 1262 q 401 1223 384 1238 q 435 1196 419 1208 q 469 1184 450 1184 q 509 1207 496 1184 q 522 1262 522 1230 l 636 1262 q 597 1125 637 1181 q 484 1070 557 1070 q 423 1082 448 1070 q 380 1110 399 1094 q 346 1138 362 1126 q 310 1150 330 1150 q 273 1128 285 1150 q 261 1070 261 1107 l 146 1070 z "},"Ṹ":{"ha":781,"x_min":61,"x_max":720,"o":"m 391 -11 q 216 34 290 -11 q 101 162 142 79 q 61 356 61 244 l 61 1000 l 249 1000 l 249 343 q 287 212 249 260 q 391 163 324 163 q 495 212 458 163 q 532 343 532 260 l 532 1000 l 720 1000 l 720 356 q 680 162 720 244 q 566 34 640 79 q 391 -11 492 -11 m 146 1070 q 185 1208 146 1154 q 296 1262 225 1262 q 359 1250 334 1262 q 401 1223 384 1238 q 435 1196 419 1208 q 469 1184 450 1184 q 509 1207 496 1184 q 522 1262 522 1230 l 636 1262 q 597 1125 637 1181 q 484 1070 557 1070 q 423 1082 448 1070 q 380 1110 399 1094 q 346 1138 362 1126 q 310 1150 330 1150 q 273 1128 285 1150 q 261 1070 261 1107 l 146 1070 m 391 1303 l 312 1383 l 534 1588 l 624 1472 l 391 1303 z "},"V":{"ha":781,"x_min":1,"x_max":781,"o":"m 296 0 l 1 1000 l 201 1000 l 316 539 l 388 267 l 393 267 l 466 539 l 579 1000 l 781 1000 l 487 0 l 296 0 z "},"W":{"ha":781,"x_min":30,"x_max":753,"o":"m 121 0 q 74 222 95 115 q 42 436 54 330 q 30 653 30 542 l 30 1000 l 193 1000 l 193 653 q 198 509 193 580 q 210 374 202 439 q 226 254 217 310 l 231 254 l 351 631 l 430 631 l 550 254 l 555 254 q 572 374 565 310 q 585 509 580 439 q 589 653 589 579 l 589 1000 l 753 1000 l 753 653 q 741 436 753 542 q 708 222 728 330 q 661 0 688 115 l 503 0 l 393 363 l 388 363 l 278 0 l 121 0 z "},"Ẃ":{"ha":781,"x_min":30,"x_max":753,"o":"m 121 0 q 74 222 95 115 q 42 436 54 330 q 30 653 30 542 l 30 1000 l 193 1000 l 193 653 q 198 509 193 580 q 210 374 202 439 q 226 254 217 310 l 231 254 l 351 631 l 430 631 l 550 254 l 555 254 q 572 374 565 310 q 585 509 580 439 q 589 653 589 579 l 589 1000 l 753 1000 l 753 653 q 741 436 753 542 q 708 222 728 330 q 661 0 688 115 l 503 0 l 393 363 l 388 363 l 278 0 l 121 0 m 391 1049 l 312 1130 l 534 1334 l 624 1218 l 391 1049 z "},"Ŵ":{"ha":781,"x_min":30,"x_max":753,"o":"m 121 0 q 74 222 95 115 q 42 436 54 330 q 30 653 30 542 l 30 1000 l 193 1000 l 193 653 q 198 509 193 580 q 210 374 202 439 q 226 254 217 310 l 231 254 l 351 631 l 430 631 l 550 254 l 555 254 q 572 374 565 310 q 585 509 580 439 q 589 653 589 579 l 589 1000 l 753 1000 l 753 653 q 741 436 753 542 q 708 222 728 330 q 661 0 688 115 l 503 0 l 393 363 l 388 363 l 278 0 l 121 0 m 226 1051 l 141 1140 l 372 1304 l 411 1304 l 642 1140 l 559 1051 l 393 1178 l 389 1178 l 226 1051 z "},"Ẅ":{"ha":781,"x_min":30,"x_max":753,"o":"m 121 0 q 74 222 95 115 q 42 436 54 330 q 30 653 30 542 l 30 1000 l 193 1000 l 193 653 q 198 509 193 580 q 210 374 202 439 q 226 254 217 310 l 231 254 l 351 631 l 430 631 l 550 254 l 555 254 q 572 374 565 310 q 585 509 580 439 q 589 653 589 579 l 589 1000 l 753 1000 l 753 653 q 741 436 753 542 q 708 222 728 330 q 661 0 688 115 l 503 0 l 393 363 l 388 363 l 278 0 l 121 0 m 552 1056 q 472 1087 504 1056 q 441 1165 441 1118 q 472 1244 441 1213 q 552 1275 504 1275 q 629 1244 598 1275 q 660 1165 659 1213 q 629 1087 659 1118 q 552 1056 598 1056 m 235 1056 q 157 1087 188 1056 q 125 1165 125 1118 q 157 1244 125 1213 q 235 1275 188 1275 q 313 1244 282 1275 q 344 1165 344 1213 q 313 1087 344 1118 q 235 1056 282 1056 z "},"Ẁ":{"ha":781,"x_min":30,"x_max":753,"o":"m 121 0 q 74 222 95 115 q 42 436 54 330 q 30 653 30 542 l 30 1000 l 193 1000 l 193 653 q 198 509 193 580 q 210 374 202 439 q 226 254 217 310 l 231 254 l 351 631 l 430 631 l 550 254 l 555 254 q 572 374 565 310 q 585 509 580 439 q 589 653 589 579 l 589 1000 l 753 1000 l 753 653 q 741 436 753 542 q 708 222 728 330 q 661 0 688 115 l 503 0 l 393 363 l 388 363 l 278 0 l 121 0 m 391 1049 l 157 1218 l 247 1334 l 469 1130 l 391 1049 z "},"X":{"ha":781,"x_min":-3,"x_max":785,"o":"m 564 0 l 392 355 l 386 355 l 264 499 l 264 503 l 2 1000 l 215 1000 l 389 627 l 394 627 l 518 502 l 518 498 l 785 0 l 564 0 m -3 0 l 264 498 l 264 502 l 386 627 l 392 627 l 565 1000 l 779 1000 l 518 503 l 518 499 l 394 355 l 389 355 l 216 0 l -3 0 z "},"Y":{"ha":781,"x_min":-9,"x_max":790,"o":"m 296 0 l 296 399 l -9 1000 l 208 1000 l 301 789 l 388 587 l 393 587 l 480 789 l 574 1000 l 790 1000 l 486 399 l 486 0 l 296 0 z "},"Ý":{"ha":781,"x_min":-9,"x_max":790,"o":"m 296 0 l 296 399 l -9 1000 l 208 1000 l 301 789 l 388 587 l 393 587 l 480 789 l 574 1000 l 790 1000 l 486 399 l 486 0 l 296 0 m 391 1049 l 312 1130 l 534 1334 l 624 1218 l 391 1049 z "},"Ŷ":{"ha":781,"x_min":-9,"x_max":790,"o":"m 296 0 l 296 399 l -9 1000 l 208 1000 l 301 789 l 388 587 l 393 587 l 480 789 l 574 1000 l 790 1000 l 486 399 l 486 0 l 296 0 m 226 1051 l 141 1140 l 372 1304 l 411 1304 l 642 1140 l 559 1051 l 393 1178 l 389 1178 l 226 1051 z "},"Ÿ":{"ha":781,"x_min":-9,"x_max":790,"o":"m 296 0 l 296 399 l -9 1000 l 208 1000 l 301 789 l 388 587 l 393 587 l 480 789 l 574 1000 l 790 1000 l 486 399 l 486 0 l 296 0 m 552 1056 q 472 1087 504 1056 q 441 1165 441 1118 q 472 1244 441 1213 q 552 1275 504 1275 q 629 1244 598 1275 q 660 1165 659 1213 q 629 1087 659 1118 q 552 1056 598 1056 m 235 1056 q 157 1087 188 1056 q 125 1165 125 1118 q 157 1244 125 1213 q 235 1275 188 1275 q 313 1244 282 1275 q 344 1165 344 1213 q 313 1087 344 1118 q 235 1056 282 1056 z "},"Ẏ":{"ha":781,"x_min":-9,"x_max":790,"o":"m 296 0 l 296 399 l -9 1000 l 208 1000 l 301 789 l 388 587 l 393 587 l 480 789 l 574 1000 l 790 1000 l 486 399 l 486 0 l 296 0 m 390 1062 q 306 1097 340 1062 q 271 1181 271 1131 q 306 1266 271 1232 q 390 1300 340 1300 q 475 1266 441 1300 q 509 1181 509 1232 q 475 1097 509 1131 q 390 1062 441 1062 z "},"Ỵ":{"ha":781,"x_min":-9,"x_max":790,"o":"m 296 0 l 296 399 l -9 1000 l 208 1000 l 301 789 l 388 587 l 393 587 l 480 789 l 574 1000 l 790 1000 l 486 399 l 486 0 l 296 0 m 389 -318 q 305 -283 339 -318 q 271 -199 271 -249 q 305 -114 271 -149 q 389 -80 339 -80 q 474 -114 440 -80 q 508 -199 508 -149 q 474 -283 508 -249 q 389 -318 440 -318 z "},"Ỳ":{"ha":781,"x_min":-9,"x_max":790,"o":"m 296 0 l 296 399 l -9 1000 l 208 1000 l 301 789 l 388 587 l 393 587 l 480 789 l 574 1000 l 790 1000 l 486 399 l 486 0 l 296 0 m 391 1049 l 157 1218 l 247 1334 l 469 1130 l 391 1049 z "},"Ỷ":{"ha":781,"x_min":-9,"x_max":790,"o":"m 296 0 l 296 399 l -9 1000 l 208 1000 l 301 789 l 388 587 l 393 587 l 480 789 l 574 1000 l 790 1000 l 486 399 l 486 0 l 296 0 m 413 1059 l 345 1127 q 381 1158 366 1141 q 397 1197 397 1176 q 380 1228 397 1217 q 332 1239 363 1239 q 298 1236 319 1239 q 262 1227 277 1234 l 262 1337 q 304 1349 276 1345 q 354 1353 332 1353 q 468 1319 426 1353 q 511 1222 511 1286 q 480 1121 511 1165 q 413 1059 450 1078 z "},"Ȳ":{"ha":781,"x_min":-9,"x_max":790,"o":"m 296 0 l 296 399 l -9 1000 l 208 1000 l 301 789 l 388 587 l 393 587 l 480 789 l 574 1000 l 790 1000 l 486 399 l 486 0 l 296 0 m 130 1101 l 130 1227 l 650 1227 l 650 1101 l 130 1101 z "},"Ỹ":{"ha":781,"x_min":-9,"x_max":790,"o":"m 296 0 l 296 399 l -9 1000 l 208 1000 l 301 789 l 388 587 l 393 587 l 480 789 l 574 1000 l 790 1000 l 486 399 l 486 0 l 296 0 m 146 1070 q 185 1208 146 1154 q 296 1262 225 1262 q 359 1250 334 1262 q 401 1223 384 1238 q 435 1196 419 1208 q 469 1184 450 1184 q 509 1207 496 1184 q 522 1262 522 1230 l 636 1262 q 597 1125 637 1181 q 484 1070 557 1070 q 423 1082 448 1070 q 380 1110 399 1094 q 346 1138 362 1126 q 310 1150 330 1150 q 273 1128 285 1150 q 261 1070 261 1107 l 146 1070 z "},"Z":{"ha":781,"x_min":48,"x_max":734,"o":"m 48 0 l 48 31 l 441 825 l 441 827 l 69 827 l 69 1000 l 725 1000 l 725 968 l 335 175 l 335 172 l 734 172 l 734 0 l 48 0 z "},"Ź":{"ha":781,"x_min":48,"x_max":734,"o":"m 48 0 l 48 31 l 441 825 l 441 827 l 69 827 l 69 1000 l 725 1000 l 725 968 l 335 175 l 335 172 l 734 172 l 734 0 l 48 0 m 393 1049 l 314 1130 l 536 1334 l 626 1218 l 393 1049 z "},"Ž":{"ha":781,"x_min":48,"x_max":734,"o":"m 48 0 l 48 31 l 441 825 l 441 827 l 69 827 l 69 1000 l 725 1000 l 725 968 l 335 175 l 335 172 l 734 172 l 734 0 l 48 0 m 227 1300 l 390 1173 l 394 1173 l 559 1300 l 643 1211 l 412 1047 l 373 1047 l 142 1211 l 227 1300 z "},"Ż":{"ha":781,"x_min":48,"x_max":734,"o":"m 48 0 l 48 31 l 441 825 l 441 827 l 69 827 l 69 1000 l 725 1000 l 725 968 l 335 175 l 335 172 l 734 172 l 734 0 l 48 0 m 392 1062 q 308 1097 342 1062 q 273 1181 273 1131 q 308 1266 273 1232 q 392 1300 342 1300 q 477 1266 443 1300 q 511 1181 511 1232 q 477 1097 511 1131 q 392 1062 443 1062 z "},"Ẓ":{"ha":781,"x_min":48,"x_max":734,"o":"m 48 0 l 48 31 l 441 825 l 441 827 l 69 827 l 69 1000 l 725 1000 l 725 968 l 335 175 l 335 172 l 734 172 l 734 0 l 48 0 m 394 -318 q 310 -283 344 -318 q 275 -199 275 -249 q 310 -114 275 -149 q 394 -80 344 -80 q 479 -114 445 -80 q 513 -199 513 -149 q 479 -283 513 -249 q 394 -318 445 -318 z "},"a":{"ha":781,"x_min":71,"x_max":731,"o":"m 309 -11 q 184 18 237 -11 q 101 97 131 47 q 71 211 71 147 q 105 329 71 277 q 204 411 139 381 q 362 441 269 441 l 530 441 l 530 321 l 395 321 q 325 311 357 321 q 271 278 292 300 q 250 220 250 256 q 263 173 250 193 q 300 142 277 153 q 355 131 324 131 q 426 146 391 131 q 484 190 460 161 q 507 257 507 218 l 507 342 l 498 376 l 498 471 q 493 510 498 490 q 475 547 488 530 q 439 573 463 564 q 378 583 415 583 q 308 575 345 583 q 237 554 271 568 q 176 522 203 540 l 115 670 q 196 706 149 691 q 293 730 242 722 q 391 739 343 739 q 550 704 487 739 q 645 609 614 669 q 675 473 675 549 l 675 243 q 685 183 675 205 q 716 153 694 161 l 731 148 l 665 -11 l 641 -3 q 558 47 591 14 q 519 116 526 79 l 564 89 l 483 89 l 536 106 q 452 24 514 59 q 309 -11 389 -11 z "},"á":{"ha":781,"x_min":71,"x_max":731,"o":"m 309 -11 q 184 18 237 -11 q 101 97 131 47 q 71 211 71 147 q 105 329 71 277 q 204 411 139 381 q 362 441 269 441 l 530 441 l 530 321 l 395 321 q 325 311 357 321 q 271 278 292 300 q 250 220 250 256 q 263 173 250 193 q 300 142 277 153 q 355 131 324 131 q 426 146 391 131 q 484 190 460 161 q 507 257 507 218 l 507 342 l 498 376 l 498 471 q 493 510 498 490 q 475 547 488 530 q 439 573 463 564 q 378 583 415 583 q 308 575 345 583 q 237 554 271 568 q 176 522 203 540 l 115 670 q 196 706 149 691 q 293 730 242 722 q 391 739 343 739 q 550 704 487 739 q 645 609 614 669 q 675 473 675 549 l 675 243 q 685 183 675 205 q 716 153 694 161 l 731 148 l 665 -11 l 641 -3 q 558 47 591 14 q 519 116 526 79 l 564 89 l 483 89 l 536 106 q 452 24 514 59 q 309 -11 389 -11 m 398 787 l 317 857 l 503 1108 l 613 1002 l 398 787 z "},"ă":{"ha":781,"x_min":71,"x_max":731,"o":"m 309 -11 q 184 18 237 -11 q 101 97 131 47 q 71 211 71 147 q 105 329 71 277 q 204 411 139 381 q 362 441 269 441 l 530 441 l 530 321 l 395 321 q 325 311 357 321 q 271 278 292 300 q 250 220 250 256 q 263 173 250 193 q 300 142 277 153 q 355 131 324 131 q 426 146 391 131 q 484 190 460 161 q 507 257 507 218 l 507 342 l 498 376 l 498 471 q 493 510 498 490 q 475 547 488 530 q 439 573 463 564 q 378 583 415 583 q 308 575 345 583 q 237 554 271 568 q 176 522 203 540 l 115 670 q 196 706 149 691 q 293 730 242 722 q 391 739 343 739 q 550 704 487 739 q 645 609 614 669 q 675 473 675 549 l 675 243 q 685 183 675 205 q 716 153 694 161 l 731 148 l 665 -11 l 641 -3 q 558 47 591 14 q 519 116 526 79 l 564 89 l 483 89 l 536 106 q 452 24 514 59 q 309 -11 389 -11 m 397 812 q 272 843 328 812 q 184 924 216 873 q 151 1038 151 975 l 268 1038 q 305 952 268 987 q 397 917 342 917 q 489 952 452 917 q 527 1038 526 987 l 644 1038 q 611 924 644 975 q 523 843 578 873 q 397 812 467 812 z "},"ắ":{"ha":781,"x_min":71,"x_max":731,"o":"m 309 -11 q 184 18 237 -11 q 101 97 131 47 q 71 211 71 147 q 105 329 71 277 q 204 411 139 381 q 362 441 269 441 l 530 441 l 530 321 l 395 321 q 325 311 357 321 q 271 278 292 300 q 250 220 250 256 q 263 173 250 193 q 300 142 277 153 q 355 131 324 131 q 426 146 391 131 q 484 190 460 161 q 507 257 507 218 l 507 342 l 498 376 l 498 471 q 493 510 498 490 q 475 547 488 530 q 439 573 463 564 q 378 583 415 583 q 308 575 345 583 q 237 554 271 568 q 176 522 203 540 l 115 670 q 196 706 149 691 q 293 730 242 722 q 391 739 343 739 q 550 704 487 739 q 645 609 614 669 q 675 473 675 549 l 675 243 q 685 183 675 205 q 716 153 694 161 l 731 148 l 665 -11 l 641 -3 q 558 47 591 14 q 519 116 526 79 l 564 89 l 483 89 l 536 106 q 452 24 514 59 q 309 -11 389 -11 m 380 979 l 313 1067 l 533 1259 l 616 1146 l 380 979 m 398 812 q 271 839 326 812 q 185 912 216 865 q 154 1022 154 960 l 268 1022 q 304 943 268 973 q 398 912 340 912 q 494 943 457 912 q 530 1022 530 973 l 643 1022 q 612 912 643 960 q 526 839 581 865 q 398 812 471 812 z "},"ặ":{"ha":781,"x_min":71,"x_max":731,"o":"m 309 -11 q 184 18 237 -11 q 101 97 131 47 q 71 211 71 147 q 105 329 71 277 q 204 411 139 381 q 362 441 269 441 l 530 441 l 530 321 l 395 321 q 325 311 357 321 q 271 278 292 300 q 250 220 250 256 q 263 173 250 193 q 300 142 277 153 q 355 131 324 131 q 426 146 391 131 q 484 190 460 161 q 507 257 507 218 l 507 342 l 498 376 l 498 471 q 493 510 498 490 q 475 547 488 530 q 439 573 463 564 q 378 583 415 583 q 308 575 345 583 q 237 554 271 568 q 176 522 203 540 l 115 670 q 196 706 149 691 q 293 730 242 722 q 391 739 343 739 q 550 704 487 739 q 645 609 614 669 q 675 473 675 549 l 675 243 q 685 183 675 205 q 716 153 694 161 l 731 148 l 665 -11 l 641 -3 q 558 47 591 14 q 519 116 526 79 l 564 89 l 483 89 l 536 106 q 452 24 514 59 q 309 -11 389 -11 m 386 -318 q 301 -283 336 -318 q 267 -199 267 -249 q 301 -114 267 -149 q 386 -80 336 -80 q 471 -114 437 -80 q 505 -199 505 -149 q 471 -283 505 -249 q 386 -318 437 -318 m 397 812 q 272 843 328 812 q 184 924 216 873 q 151 1038 151 975 l 268 1038 q 305 952 268 987 q 397 917 342 917 q 489 952 452 917 q 527 1038 526 987 l 644 1038 q 611 924 644 975 q 523 843 578 873 q 397 812 467 812 z "},"ằ":{"ha":781,"x_min":71,"x_max":731,"o":"m 309 -11 q 184 18 237 -11 q 101 97 131 47 q 71 211 71 147 q 105 329 71 277 q 204 411 139 381 q 362 441 269 441 l 530 441 l 530 321 l 395 321 q 325 311 357 321 q 271 278 292 300 q 250 220 250 256 q 263 173 250 193 q 300 142 277 153 q 355 131 324 131 q 426 146 391 131 q 484 190 460 161 q 507 257 507 218 l 507 342 l 498 376 l 498 471 q 493 510 498 490 q 475 547 488 530 q 439 573 463 564 q 378 583 415 583 q 308 575 345 583 q 237 554 271 568 q 176 522 203 540 l 115 670 q 196 706 149 691 q 293 730 242 722 q 391 739 343 739 q 550 704 487 739 q 645 609 614 669 q 675 473 675 549 l 675 243 q 685 183 675 205 q 716 153 694 161 l 731 148 l 665 -11 l 641 -3 q 558 47 591 14 q 519 116 526 79 l 564 89 l 483 89 l 536 106 q 452 24 514 59 q 309 -11 389 -11 m 416 979 l 181 1146 l 263 1259 l 484 1067 l 416 979 m 398 812 q 270 839 326 812 q 184 912 215 865 q 153 1022 153 960 l 267 1022 q 303 943 267 973 q 398 912 339 912 q 492 943 456 912 q 528 1022 528 973 l 643 1022 q 612 912 643 960 q 526 839 581 865 q 398 812 471 812 z "},"ẳ":{"ha":781,"x_min":71,"x_max":731,"o":"m 309 -11 q 184 18 237 -11 q 101 97 131 47 q 71 211 71 147 q 105 329 71 277 q 204 411 139 381 q 362 441 269 441 l 530 441 l 530 321 l 395 321 q 325 311 357 321 q 271 278 292 300 q 250 220 250 256 q 263 173 250 193 q 300 142 277 153 q 355 131 324 131 q 426 146 391 131 q 484 190 460 161 q 507 257 507 218 l 507 342 l 498 376 l 498 471 q 493 510 498 490 q 475 547 488 530 q 439 573 463 564 q 378 583 415 583 q 308 575 345 583 q 237 554 271 568 q 176 522 203 540 l 115 670 q 196 706 149 691 q 293 730 242 722 q 391 739 343 739 q 550 704 487 739 q 645 609 614 669 q 675 473 675 549 l 675 243 q 685 183 675 205 q 716 153 694 161 l 731 148 l 665 -11 l 641 -3 q 558 47 591 14 q 519 116 526 79 l 564 89 l 483 89 l 536 106 q 452 24 514 59 q 309 -11 389 -11 m 398 812 q 270 839 326 812 q 184 912 215 865 q 153 1022 153 960 l 267 1022 q 303 943 267 973 q 398 912 339 912 q 492 943 456 912 q 528 1022 528 973 l 643 1022 q 612 912 643 960 q 526 839 581 865 q 398 812 471 812 m 407 965 l 339 1033 q 375 1064 359 1046 q 391 1103 391 1082 q 374 1134 391 1123 q 326 1145 357 1145 q 292 1142 313 1145 q 256 1133 271 1139 l 256 1244 q 298 1255 270 1251 q 348 1259 326 1259 q 462 1225 419 1259 q 505 1128 505 1192 q 474 1027 505 1072 q 407 965 444 983 z "},"ẵ":{"ha":781,"x_min":71,"x_max":731,"o":"m 309 -11 q 184 18 237 -11 q 101 97 131 47 q 71 211 71 147 q 105 329 71 277 q 204 411 139 381 q 362 441 269 441 l 530 441 l 530 321 l 395 321 q 325 311 357 321 q 271 278 292 300 q 250 220 250 256 q 263 173 250 193 q 300 142 277 153 q 355 131 324 131 q 426 146 391 131 q 484 190 460 161 q 507 257 507 218 l 507 342 l 498 376 l 498 471 q 493 510 498 490 q 475 547 488 530 q 439 573 463 564 q 378 583 415 583 q 308 575 345 583 q 237 554 271 568 q 176 522 203 540 l 115 670 q 196 706 149 691 q 293 730 242 722 q 391 739 343 739 q 550 704 487 739 q 645 609 614 669 q 675 473 675 549 l 675 243 q 685 183 675 205 q 716 153 694 161 l 731 148 l 665 -11 l 641 -3 q 558 47 591 14 q 519 116 526 79 l 564 89 l 483 89 l 536 106 q 452 24 514 59 q 309 -11 389 -11 m 153 1067 q 193 1206 153 1152 q 304 1259 233 1259 q 366 1248 340 1259 q 409 1221 391 1236 q 443 1194 427 1205 q 478 1182 458 1182 q 516 1203 504 1182 q 528 1259 528 1223 l 644 1259 q 627 1162 645 1205 q 574 1093 608 1118 q 491 1067 539 1067 q 431 1079 456 1067 q 389 1106 407 1090 q 354 1134 370 1122 q 317 1146 338 1146 q 280 1126 293 1146 q 267 1067 268 1106 l 153 1067 m 398 812 q 270 839 326 812 q 184 912 215 865 q 153 1022 153 960 l 267 1022 q 303 943 267 973 q 398 912 339 912 q 492 943 456 912 q 528 1022 528 973 l 643 1022 q 612 912 643 960 q 526 839 581 865 q 398 812 471 812 z "},"ǎ":{"ha":781,"x_min":71,"x_max":731,"o":"m 309 -11 q 184 18 237 -11 q 101 97 131 47 q 71 211 71 147 q 105 329 71 277 q 204 411 139 381 q 362 441 269 441 l 530 441 l 530 321 l 395 321 q 325 311 357 321 q 271 278 292 300 q 250 220 250 256 q 263 173 250 193 q 300 142 277 153 q 355 131 324 131 q 426 146 391 131 q 484 190 460 161 q 507 257 507 218 l 507 342 l 498 376 l 498 471 q 493 510 498 490 q 475 547 488 530 q 439 573 463 564 q 378 583 415 583 q 308 575 345 583 q 237 554 271 568 q 176 522 203 540 l 115 670 q 196 706 149 691 q 293 730 242 722 q 391 739 343 739 q 550 704 487 739 q 645 609 614 669 q 675 473 675 549 l 675 243 q 685 183 675 205 q 716 153 694 161 l 731 148 l 665 -11 l 641 -3 q 558 47 591 14 q 519 116 526 79 l 564 89 l 483 89 l 536 106 q 452 24 514 59 q 309 -11 389 -11 m 222 1079 l 395 922 l 401 922 l 571 1079 l 646 991 l 416 788 l 378 788 l 150 991 l 222 1079 z "},"â":{"ha":781,"x_min":71,"x_max":731,"o":"m 309 -11 q 184 18 237 -11 q 101 97 131 47 q 71 211 71 147 q 105 329 71 277 q 204 411 139 381 q 362 441 269 441 l 530 441 l 530 321 l 395 321 q 325 311 357 321 q 271 278 292 300 q 250 220 250 256 q 263 173 250 193 q 300 142 277 153 q 355 131 324 131 q 426 146 391 131 q 484 190 460 161 q 507 257 507 218 l 507 342 l 498 376 l 498 471 q 493 510 498 490 q 475 547 488 530 q 439 573 463 564 q 378 583 415 583 q 308 575 345 583 q 237 554 271 568 q 176 522 203 540 l 115 670 q 196 706 149 691 q 293 730 242 722 q 391 739 343 739 q 550 704 487 739 q 645 609 614 669 q 675 473 675 549 l 675 243 q 685 183 675 205 q 716 153 694 161 l 731 148 l 665 -11 l 641 -3 q 558 47 591 14 q 519 116 526 79 l 564 89 l 483 89 l 536 106 q 452 24 514 59 q 309 -11 389 -11 m 223 784 l 151 872 l 378 1075 l 417 1075 l 646 872 l 572 784 l 401 941 l 396 941 l 223 784 z "},"ấ":{"ha":781,"x_min":71,"x_max":828,"o":"m 309 -11 q 184 18 237 -11 q 101 97 131 47 q 71 211 71 147 q 105 329 71 277 q 204 411 139 381 q 362 441 269 441 l 530 441 l 530 321 l 395 321 q 325 311 357 321 q 271 278 292 300 q 250 220 250 256 q 263 173 250 193 q 300 142 277 153 q 355 131 324 131 q 426 146 391 131 q 484 190 460 161 q 507 257 507 218 l 507 342 l 498 376 l 498 471 q 493 510 498 490 q 475 547 488 530 q 439 573 463 564 q 378 583 415 583 q 308 575 345 583 q 237 554 271 568 q 176 522 203 540 l 115 670 q 196 706 149 691 q 293 730 242 722 q 391 739 343 739 q 550 704 487 739 q 645 609 614 669 q 675 473 675 549 l 675 243 q 685 183 675 205 q 716 153 694 161 l 731 148 l 665 -11 l 641 -3 q 558 47 591 14 q 519 116 526 79 l 564 89 l 483 89 l 536 106 q 452 24 514 59 q 309 -11 389 -11 m 613 979 l 530 1039 l 739 1257 l 828 1139 l 613 979 m 232 795 l 147 882 l 378 1045 l 417 1045 l 648 882 l 565 795 l 399 920 l 395 920 l 232 795 z "},"ậ":{"ha":781,"x_min":71,"x_max":731,"o":"m 309 -11 q 184 18 237 -11 q 101 97 131 47 q 71 211 71 147 q 105 329 71 277 q 204 411 139 381 q 362 441 269 441 l 530 441 l 530 321 l 395 321 q 325 311 357 321 q 271 278 292 300 q 250 220 250 256 q 263 173 250 193 q 300 142 277 153 q 355 131 324 131 q 426 146 391 131 q 484 190 460 161 q 507 257 507 218 l 507 342 l 498 376 l 498 471 q 493 510 498 490 q 475 547 488 530 q 439 573 463 564 q 378 583 415 583 q 308 575 345 583 q 237 554 271 568 q 176 522 203 540 l 115 670 q 196 706 149 691 q 293 730 242 722 q 391 739 343 739 q 550 704 487 739 q 645 609 614 669 q 675 473 675 549 l 675 243 q 685 183 675 205 q 716 153 694 161 l 731 148 l 665 -11 l 641 -3 q 558 47 591 14 q 519 116 526 79 l 564 89 l 483 89 l 536 106 q 452 24 514 59 q 309 -11 389 -11 m 386 -318 q 301 -283 336 -318 q 267 -199 267 -249 q 301 -114 267 -149 q 386 -80 336 -80 q 471 -114 437 -80 q 505 -199 505 -149 q 471 -283 505 -249 q 386 -318 437 -318 m 223 784 l 151 872 l 378 1075 l 417 1075 l 646 872 l 572 784 l 401 941 l 396 941 l 223 784 z "},"ầ":{"ha":781,"x_min":-31,"x_max":731,"o":"m 309 -11 q 184 18 237 -11 q 101 97 131 47 q 71 211 71 147 q 105 329 71 277 q 204 411 139 381 q 362 441 269 441 l 530 441 l 530 321 l 395 321 q 325 311 357 321 q 271 278 292 300 q 250 220 250 256 q 263 173 250 193 q 300 142 277 153 q 355 131 324 131 q 426 146 391 131 q 484 190 460 161 q 507 257 507 218 l 507 342 l 498 376 l 498 471 q 493 510 498 490 q 475 547 488 530 q 439 573 463 564 q 378 583 415 583 q 308 575 345 583 q 237 554 271 568 q 176 522 203 540 l 115 670 q 196 706 149 691 q 293 730 242 722 q 391 739 343 739 q 550 704 487 739 q 645 609 614 669 q 675 473 675 549 l 675 243 q 685 183 675 205 q 716 153 694 161 l 731 148 l 665 -11 l 641 -3 q 558 47 591 14 q 519 116 526 79 l 564 89 l 483 89 l 536 106 q 452 24 514 59 q 309 -11 389 -11 m 184 979 l -31 1139 l 58 1257 l 267 1039 l 184 979 m 565 795 l 402 920 l 398 920 l 232 795 l 149 882 l 380 1045 l 418 1045 l 650 882 l 565 795 z "},"ẩ":{"ha":781,"x_min":71,"x_max":731,"o":"m 309 -11 q 184 18 237 -11 q 101 97 131 47 q 71 211 71 147 q 105 329 71 277 q 204 411 139 381 q 362 441 269 441 l 530 441 l 530 321 l 395 321 q 325 311 357 321 q 271 278 292 300 q 250 220 250 256 q 263 173 250 193 q 300 142 277 153 q 355 131 324 131 q 426 146 391 131 q 484 190 460 161 q 507 257 507 218 l 507 342 l 498 376 l 498 471 q 493 510 498 490 q 475 547 488 530 q 439 573 463 564 q 378 583 415 583 q 308 575 345 583 q 237 554 271 568 q 176 522 203 540 l 115 670 q 196 706 149 691 q 293 730 242 722 q 391 739 343 739 q 550 704 487 739 q 645 609 614 669 q 675 473 675 549 l 675 243 q 685 183 675 205 q 716 153 694 161 l 731 148 l 665 -11 l 641 -3 q 558 47 591 14 q 519 116 526 79 l 564 89 l 483 89 l 536 106 q 452 24 514 59 q 309 -11 389 -11 m 598 980 l 530 1031 q 564 1065 551 1048 q 577 1099 577 1083 q 560 1133 577 1121 q 511 1145 543 1145 q 477 1142 494 1145 q 441 1132 460 1139 l 441 1244 q 485 1255 456 1251 q 536 1258 513 1258 q 648 1226 606 1258 q 690 1126 690 1194 q 675 1063 690 1092 q 639 1014 661 1035 q 598 980 618 992 m 233 795 l 149 882 l 379 1045 l 418 1045 l 649 882 l 566 795 l 400 920 l 396 920 l 233 795 z "},"ẫ":{"ha":781,"x_min":71,"x_max":731,"o":"m 309 -11 q 184 18 237 -11 q 101 97 131 47 q 71 211 71 147 q 105 329 71 277 q 204 411 139 381 q 362 441 269 441 l 530 441 l 530 321 l 395 321 q 325 311 357 321 q 271 278 292 300 q 250 220 250 256 q 263 173 250 193 q 300 142 277 153 q 355 131 324 131 q 426 146 391 131 q 484 190 460 161 q 507 257 507 218 l 507 342 l 498 376 l 498 471 q 493 510 498 490 q 475 547 488 530 q 439 573 463 564 q 378 583 415 583 q 308 575 345 583 q 237 554 271 568 q 176 522 203 540 l 115 670 q 196 706 149 691 q 293 730 242 722 q 391 739 343 739 q 550 704 487 739 q 645 609 614 669 q 675 473 675 549 l 675 243 q 685 183 675 205 q 716 153 694 161 l 731 148 l 665 -11 l 641 -3 q 558 47 591 14 q 519 116 526 79 l 564 89 l 483 89 l 536 106 q 452 24 514 59 q 309 -11 389 -11 m 153 1067 q 192 1206 151 1152 q 304 1259 233 1259 q 365 1248 340 1259 q 408 1221 390 1236 q 441 1194 425 1205 q 478 1182 458 1182 q 514 1203 502 1182 q 528 1259 527 1225 l 644 1259 q 629 1162 645 1205 q 583 1093 614 1118 q 505 1067 551 1067 q 444 1079 468 1067 q 401 1106 419 1090 q 367 1134 383 1122 q 332 1146 351 1146 q 287 1126 305 1146 q 267 1067 269 1107 l 153 1067 m 233 795 l 148 882 l 378 1045 l 418 1045 l 648 882 l 565 795 l 399 920 l 395 920 l 233 795 z "},"ȁ":{"ha":781,"x_min":71,"x_max":731,"o":"m 309 -11 q 184 18 237 -11 q 101 97 131 47 q 71 211 71 147 q 105 329 71 277 q 204 411 139 381 q 362 441 269 441 l 530 441 l 530 321 l 395 321 q 325 311 357 321 q 271 278 292 300 q 250 220 250 256 q 263 173 250 193 q 300 142 277 153 q 355 131 324 131 q 426 146 391 131 q 484 190 460 161 q 507 257 507 218 l 507 342 l 498 376 l 498 471 q 493 510 498 490 q 475 547 488 530 q 439 573 463 564 q 378 583 415 583 q 308 575 345 583 q 237 554 271 568 q 176 522 203 540 l 115 670 q 196 706 149 691 q 293 730 242 722 q 391 739 343 739 q 550 704 487 739 q 645 609 614 669 q 675 473 675 549 l 675 243 q 685 183 675 205 q 716 153 694 161 l 731 148 l 665 -11 l 641 -3 q 558 47 591 14 q 519 116 526 79 l 564 89 l 483 89 l 536 106 q 452 24 514 59 q 309 -11 389 -11 m 502 797 l 350 1032 l 477 1094 l 601 821 l 502 797 m 266 797 l 113 1032 l 238 1094 l 363 821 l 266 797 z "},"ä":{"ha":781,"x_min":71,"x_max":731,"o":"m 309 -11 q 184 18 237 -11 q 101 97 131 47 q 71 211 71 147 q 105 329 71 277 q 204 411 139 381 q 362 441 269 441 l 530 441 l 530 321 l 395 321 q 325 311 357 321 q 271 278 292 300 q 250 220 250 256 q 263 173 250 193 q 300 142 277 153 q 355 131 324 131 q 426 146 391 131 q 484 190 460 161 q 507 257 507 218 l 507 342 l 498 376 l 498 471 q 493 510 498 490 q 475 547 488 530 q 439 573 463 564 q 378 583 415 583 q 308 575 345 583 q 237 554 271 568 q 176 522 203 540 l 115 670 q 196 706 149 691 q 293 730 242 722 q 391 739 343 739 q 550 704 487 739 q 645 609 614 669 q 675 473 675 549 l 675 243 q 685 183 675 205 q 716 153 694 161 l 731 148 l 665 -11 l 641 -3 q 558 47 591 14 q 519 116 526 79 l 564 89 l 483 89 l 536 106 q 452 24 514 59 q 309 -11 389 -11 m 555 829 q 477 861 509 829 q 445 939 445 893 q 477 1017 445 985 q 555 1048 509 1048 q 632 1017 601 1048 q 664 939 664 985 q 632 861 664 893 q 555 829 601 829 m 241 829 q 164 861 196 829 q 132 939 132 893 q 164 1017 132 985 q 241 1048 196 1048 q 320 1017 288 1048 q 351 939 351 985 q 320 861 351 893 q 241 829 288 829 z "},"ȧ":{"ha":781,"x_min":71,"x_max":731,"o":"m 309 -11 q 184 18 237 -11 q 101 97 131 47 q 71 211 71 147 q 105 329 71 277 q 204 411 139 381 q 362 441 269 441 l 530 441 l 530 321 l 395 321 q 325 311 357 321 q 271 278 292 300 q 250 220 250 256 q 263 173 250 193 q 300 142 277 153 q 355 131 324 131 q 426 146 391 131 q 484 190 460 161 q 507 257 507 218 l 507 342 l 498 376 l 498 471 q 493 510 498 490 q 475 547 488 530 q 439 573 463 564 q 378 583 415 583 q 308 575 345 583 q 237 554 271 568 q 176 522 203 540 l 115 670 q 196 706 149 691 q 293 730 242 722 q 391 739 343 739 q 550 704 487 739 q 645 609 614 669 q 675 473 675 549 l 675 243 q 685 183 675 205 q 716 153 694 161 l 731 148 l 665 -11 l 641 -3 q 558 47 591 14 q 519 116 526 79 l 564 89 l 483 89 l 536 106 q 452 24 514 59 q 309 -11 389 -11 m 398 819 q 314 853 348 819 q 279 938 279 888 q 314 1022 279 988 q 398 1057 348 1057 q 483 1022 449 1057 q 517 938 517 988 q 483 853 517 888 q 398 819 449 819 z "},"ạ":{"ha":781,"x_min":71,"x_max":731,"o":"m 309 -11 q 184 18 237 -11 q 101 97 131 47 q 71 211 71 147 q 105 329 71 277 q 204 411 139 381 q 362 441 269 441 l 530 441 l 530 321 l 395 321 q 325 311 357 321 q 271 278 292 300 q 250 220 250 256 q 263 173 250 193 q 300 142 277 153 q 355 131 324 131 q 426 146 391 131 q 484 190 460 161 q 507 257 507 218 l 507 342 l 498 376 l 498 471 q 493 510 498 490 q 475 547 488 530 q 439 573 463 564 q 378 583 415 583 q 308 575 345 583 q 237 554 271 568 q 176 522 203 540 l 115 670 q 196 706 149 691 q 293 730 242 722 q 391 739 343 739 q 550 704 487 739 q 645 609 614 669 q 675 473 675 549 l 675 243 q 685 183 675 205 q 716 153 694 161 l 731 148 l 665 -11 l 641 -3 q 558 47 591 14 q 519 116 526 79 l 564 89 l 483 89 l 536 106 q 452 24 514 59 q 309 -11 389 -11 m 386 -318 q 301 -283 336 -318 q 267 -199 267 -249 q 301 -114 267 -149 q 386 -80 336 -80 q 471 -114 437 -80 q 505 -199 505 -149 q 471 -283 505 -249 q 386 -318 437 -318 z "},"à":{"ha":781,"x_min":71,"x_max":731,"o":"m 309 -11 q 184 18 237 -11 q 101 97 131 47 q 71 211 71 147 q 105 329 71 277 q 204 411 139 381 q 362 441 269 441 l 530 441 l 530 321 l 395 321 q 325 311 357 321 q 271 278 292 300 q 250 220 250 256 q 263 173 250 193 q 300 142 277 153 q 355 131 324 131 q 426 146 391 131 q 484 190 460 161 q 507 257 507 218 l 507 342 l 498 376 l 498 471 q 493 510 498 490 q 475 547 488 530 q 439 573 463 564 q 378 583 415 583 q 308 575 345 583 q 237 554 271 568 q 176 522 203 540 l 115 670 q 196 706 149 691 q 293 730 242 722 q 391 739 343 739 q 550 704 487 739 q 645 609 614 669 q 675 473 675 549 l 675 243 q 685 183 675 205 q 716 153 694 161 l 731 148 l 665 -11 l 641 -3 q 558 47 591 14 q 519 116 526 79 l 564 89 l 483 89 l 536 106 q 452 24 514 59 q 309 -11 389 -11 m 399 787 l 184 1002 l 294 1108 l 479 857 l 399 787 z "},"ả":{"ha":781,"x_min":71,"x_max":731,"o":"m 309 -11 q 184 18 237 -11 q 101 97 131 47 q 71 211 71 147 q 105 329 71 277 q 204 411 139 381 q 362 441 269 441 l 530 441 l 530 321 l 395 321 q 325 311 357 321 q 271 278 292 300 q 250 220 250 256 q 263 173 250 193 q 300 142 277 153 q 355 131 324 131 q 426 146 391 131 q 484 190 460 161 q 507 257 507 218 l 507 342 l 498 376 l 498 471 q 493 510 498 490 q 475 547 488 530 q 439 573 463 564 q 378 583 415 583 q 308 575 345 583 q 237 554 271 568 q 176 522 203 540 l 115 670 q 196 706 149 691 q 293 730 242 722 q 391 739 343 739 q 550 704 487 739 q 645 609 614 669 q 675 473 675 549 l 675 243 q 685 183 675 205 q 716 153 694 161 l 731 148 l 665 -11 l 641 -3 q 558 47 591 14 q 519 116 526 79 l 564 89 l 483 89 l 536 106 q 452 24 514 59 q 309 -11 389 -11 m 421 786 l 353 854 q 390 885 374 867 q 406 924 406 903 q 389 955 406 944 q 340 966 372 966 q 307 963 328 966 q 270 954 286 960 l 270 1064 q 312 1076 284 1072 q 362 1080 340 1080 q 476 1046 434 1080 q 519 949 519 1013 q 488 848 519 892 q 421 786 458 804 z "},"ȃ":{"ha":781,"x_min":71,"x_max":731,"o":"m 309 -11 q 184 18 237 -11 q 101 97 131 47 q 71 211 71 147 q 105 329 71 277 q 204 411 139 381 q 362 441 269 441 l 530 441 l 530 321 l 395 321 q 325 311 357 321 q 271 278 292 300 q 250 220 250 256 q 263 173 250 193 q 300 142 277 153 q 355 131 324 131 q 426 146 391 131 q 484 190 460 161 q 507 257 507 218 l 507 342 l 498 376 l 498 471 q 493 510 498 490 q 475 547 488 530 q 439 573 463 564 q 378 583 415 583 q 308 575 345 583 q 237 554 271 568 q 176 522 203 540 l 115 670 q 196 706 149 691 q 293 730 242 722 q 391 739 343 739 q 550 704 487 739 q 645 609 614 669 q 675 473 675 549 l 675 243 q 685 183 675 205 q 716 153 694 161 l 731 148 l 665 -11 l 641 -3 q 558 47 591 14 q 519 116 526 79 l 564 89 l 483 89 l 536 106 q 452 24 514 59 q 309 -11 389 -11 m 397 1043 q 523 1013 467 1043 q 611 932 578 983 q 644 817 644 881 l 527 817 q 490 904 526 869 q 397 939 453 939 q 305 904 342 939 q 269 817 269 869 l 152 817 q 184 932 152 881 q 272 1013 216 983 q 397 1043 328 1043 z "},"ā":{"ha":781,"x_min":71,"x_max":731,"o":"m 309 -11 q 184 18 237 -11 q 101 97 131 47 q 71 211 71 147 q 105 329 71 277 q 204 411 139 381 q 362 441 269 441 l 530 441 l 530 321 l 395 321 q 325 311 357 321 q 271 278 292 300 q 250 220 250 256 q 263 173 250 193 q 300 142 277 153 q 355 131 324 131 q 426 146 391 131 q 484 190 460 161 q 507 257 507 218 l 507 342 l 498 376 l 498 471 q 493 510 498 490 q 475 547 488 530 q 439 573 463 564 q 378 583 415 583 q 308 575 345 583 q 237 554 271 568 q 176 522 203 540 l 115 670 q 196 706 149 691 q 293 730 242 722 q 391 739 343 739 q 550 704 487 739 q 645 609 614 669 q 675 473 675 549 l 675 243 q 685 183 675 205 q 716 153 694 161 l 731 148 l 665 -11 l 641 -3 q 558 47 591 14 q 519 116 526 79 l 564 89 l 483 89 l 536 106 q 452 24 514 59 q 309 -11 389 -11 m 133 857 l 133 971 l 663 971 l 663 857 l 133 857 z "},"ą":{"ha":781,"x_min":71,"x_max":731,"o":"m 634 -296 q 530 -259 570 -296 q 489 -165 489 -221 q 508 -85 489 -122 q 550 -18 527 -47 q 587 31 574 12 l 665 -11 q 624 -75 640 -43 q 608 -132 608 -106 q 626 -172 608 -161 q 663 -184 643 -184 q 696 -179 679 -184 q 728 -167 713 -175 l 728 -278 q 682 -292 710 -288 q 634 -296 654 -296 m 309 -11 q 184 18 237 -11 q 101 97 131 47 q 71 211 71 147 q 105 329 71 277 q 204 411 139 381 q 362 441 269 441 l 530 441 l 530 321 l 395 321 q 325 311 357 321 q 271 278 292 300 q 250 220 250 256 q 263 173 250 193 q 300 142 277 153 q 355 131 324 131 q 426 146 391 131 q 484 190 460 161 q 507 257 507 218 l 507 342 l 498 376 l 498 471 q 493 510 498 490 q 475 547 488 530 q 439 573 463 564 q 378 583 415 583 q 308 575 345 583 q 237 554 271 568 q 176 522 203 540 l 115 670 q 196 706 149 691 q 293 730 242 722 q 391 739 343 739 q 550 704 487 739 q 645 609 614 669 q 675 473 675 549 l 675 243 q 685 183 675 205 q 716 153 694 161 l 731 148 l 665 -11 l 641 -3 q 558 47 591 14 q 519 116 526 79 l 564 89 l 483 89 l 536 106 q 452 24 514 59 q 309 -11 389 -11 z "},"å":{"ha":781,"x_min":71,"x_max":731,"o":"m 309 -11 q 184 18 237 -11 q 101 97 131 47 q 71 211 71 147 q 105 329 71 277 q 204 411 139 381 q 362 441 269 441 l 530 441 l 530 321 l 395 321 q 325 311 357 321 q 271 278 292 300 q 250 220 250 256 q 263 173 250 193 q 300 142 277 153 q 355 131 324 131 q 426 146 391 131 q 484 190 460 161 q 507 257 507 218 l 507 342 l 498 376 l 498 471 q 493 510 498 490 q 475 547 488 530 q 439 573 463 564 q 378 583 415 583 q 308 575 345 583 q 237 554 271 568 q 176 522 203 540 l 115 670 q 196 706 149 691 q 293 730 242 722 q 391 739 343 739 q 550 704 487 739 q 645 609 614 669 q 675 473 675 549 l 675 243 q 685 183 675 205 q 716 153 694 161 l 731 148 l 665 -11 l 641 -3 q 558 47 591 14 q 519 116 526 79 l 564 89 l 483 89 l 536 106 q 452 24 514 59 q 309 -11 389 -11 m 398 817 q 282 861 329 817 q 236 970 236 906 q 282 1081 236 1038 q 398 1125 329 1125 q 514 1081 468 1125 q 560 970 560 1038 q 514 861 560 906 q 398 817 468 817 m 398 903 q 447 923 428 903 q 465 971 465 943 q 447 1019 465 1000 q 398 1038 428 1038 q 351 1020 371 1038 q 331 970 331 1001 q 351 923 331 943 q 398 903 371 903 z "},"ǻ":{"ha":781,"x_min":71,"x_max":731,"o":"m 398 817 q 283 861 330 817 q 236 970 236 906 q 283 1081 236 1038 q 398 1125 330 1125 q 514 1081 468 1125 q 561 970 561 1038 q 514 861 561 906 q 398 817 468 817 m 398 903 q 447 923 428 903 q 465 971 465 943 q 447 1019 465 1000 q 398 1038 428 1038 q 351 1020 371 1038 q 332 970 332 1001 q 351 923 332 943 q 398 903 371 903 m 444 1158 l 365 1238 l 587 1442 l 677 1326 l 444 1158 m 309 -11 q 184 18 237 -11 q 101 97 131 47 q 71 211 71 147 q 105 329 71 277 q 204 411 139 381 q 362 441 269 441 l 530 441 l 530 321 l 395 321 q 325 311 357 321 q 271 278 292 300 q 250 220 250 256 q 263 173 250 193 q 300 142 277 153 q 355 131 324 131 q 426 146 391 131 q 484 190 460 161 q 507 257 507 218 l 507 342 l 498 376 l 498 471 q 493 510 498 490 q 475 547 488 530 q 439 573 463 564 q 378 583 415 583 q 308 575 345 583 q 237 554 271 568 q 176 522 203 540 l 115 670 q 196 706 149 691 q 293 730 242 722 q 391 739 343 739 q 550 704 487 739 q 645 609 614 669 q 675 473 675 549 l 675 243 q 685 183 675 205 q 716 153 694 161 l 731 148 l 665 -11 l 641 -3 q 558 47 591 14 q 519 116 526 79 l 564 89 l 483 89 l 536 106 q 452 24 514 59 q 309 -11 389 -11 z "},"ã":{"ha":781,"x_min":71,"x_max":731,"o":"m 309 -11 q 184 18 237 -11 q 101 97 131 47 q 71 211 71 147 q 105 329 71 277 q 204 411 139 381 q 362 441 269 441 l 530 441 l 530 321 l 395 321 q 325 311 357 321 q 271 278 292 300 q 250 220 250 256 q 263 173 250 193 q 300 142 277 153 q 355 131 324 131 q 426 146 391 131 q 484 190 460 161 q 507 257 507 218 l 507 342 l 498 376 l 498 471 q 493 510 498 490 q 475 547 488 530 q 439 573 463 564 q 378 583 415 583 q 308 575 345 583 q 237 554 271 568 q 176 522 203 540 l 115 670 q 196 706 149 691 q 293 730 242 722 q 391 739 343 739 q 550 704 487 739 q 645 609 614 669 q 675 473 675 549 l 675 243 q 685 183 675 205 q 716 153 694 161 l 731 148 l 665 -11 l 641 -3 q 558 47 591 14 q 519 116 526 79 l 564 89 l 483 89 l 536 106 q 452 24 514 59 q 309 -11 389 -11 m 144 818 q 188 969 144 913 q 300 1024 231 1024 q 364 1010 338 1024 q 408 978 389 996 q 442 947 426 960 q 477 933 458 933 q 516 960 504 933 q 528 1024 529 986 l 648 1024 q 605 874 648 930 q 492 818 562 818 q 430 832 454 818 q 387 864 405 846 q 351 896 368 882 q 314 910 334 910 q 277 885 289 910 q 264 818 264 859 l 144 818 z "},"æ":{"ha":781,"x_min":19,"x_max":761,"o":"m 208 -11 q 107 19 150 -11 q 42 99 64 49 q 19 212 19 150 q 82 372 19 315 q 243 429 144 429 l 333 429 l 333 306 l 283 306 q 208 282 238 306 q 177 215 177 259 q 195 159 177 181 q 236 138 212 138 q 291 176 270 138 q 311 273 311 214 l 311 452 q 303 526 311 496 q 279 570 296 555 q 233 585 262 585 q 164 570 200 585 q 104 536 127 555 l 51 683 q 135 722 83 705 q 243 739 186 739 q 365 704 320 739 q 427 605 409 669 l 376 605 q 439 701 387 663 q 555 739 490 739 q 665 699 618 739 q 736 584 711 659 q 761 408 761 510 q 759 350 761 380 q 753 306 757 321 l 433 306 l 425 429 l 612 429 q 597 542 614 498 q 543 585 581 585 q 493 560 515 585 q 458 490 471 536 q 445 382 445 445 q 462 256 445 310 q 511 172 479 202 q 585 142 543 142 q 637 155 607 142 q 694 194 667 168 l 749 47 q 707 18 734 31 q 646 -3 680 5 q 581 -11 613 -11 q 443 35 503 -11 q 356 156 383 81 l 402 156 q 372 73 398 111 q 303 12 345 35 q 208 -11 261 -11 z "},"ǽ":{"ha":781,"x_min":19,"x_max":761,"o":"m 208 -11 q 107 19 150 -11 q 42 99 64 49 q 19 212 19 150 q 82 372 19 315 q 243 429 144 429 l 333 429 l 333 306 l 283 306 q 208 282 238 306 q 177 215 177 259 q 195 159 177 181 q 236 138 212 138 q 291 176 270 138 q 311 273 311 214 l 311 452 q 303 526 311 496 q 279 570 296 555 q 233 585 262 585 q 164 570 200 585 q 104 536 127 555 l 51 683 q 135 722 83 705 q 243 739 186 739 q 365 704 320 739 q 427 605 409 669 l 376 605 q 439 701 387 663 q 555 739 490 739 q 665 699 618 739 q 736 584 711 659 q 761 408 761 510 q 759 350 761 380 q 753 306 757 321 l 433 306 l 425 429 l 612 429 q 597 542 614 498 q 543 585 581 585 q 493 560 515 585 q 458 490 471 536 q 445 382 445 445 q 462 256 445 310 q 511 172 479 202 q 585 142 543 142 q 637 155 607 142 q 694 194 667 168 l 749 47 q 707 18 734 31 q 646 -3 680 5 q 581 -11 613 -11 q 443 35 503 -11 q 356 156 383 81 l 402 156 q 372 73 398 111 q 303 12 345 35 q 208 -11 261 -11 m 395 787 l 314 857 l 500 1107 l 610 1001 l 395 787 z "},"b":{"ha":781,"x_min":83,"x_max":729,"o":"m 83 0 l 83 1044 l 269 1044 l 269 656 l 283 656 l 254 553 l 254 159 l 285 86 l 260 86 l 260 0 l 83 0 m 454 -11 q 308 36 370 -11 q 210 166 245 82 q 176 364 176 250 q 210 561 176 477 q 306 692 244 646 q 450 738 368 738 q 597 692 535 738 q 694 562 660 646 q 729 364 729 477 q 695 165 729 250 q 600 35 661 81 q 454 -11 538 -11 m 406 148 q 482 175 450 148 q 531 250 514 201 q 549 363 549 299 q 531 477 549 429 q 480 552 513 526 q 403 578 447 578 q 328 552 359 578 q 278 477 296 526 q 260 363 260 429 q 278 251 260 299 q 329 175 296 202 q 406 148 362 148 z "},"c":{"ha":781,"x_min":84,"x_max":689,"o":"m 458 -8 q 263 39 347 -8 q 132 171 179 87 q 84 367 84 256 q 131 560 84 476 q 259 691 177 644 q 450 738 342 738 q 576 717 510 738 q 688 662 642 696 l 618 511 q 546 558 589 540 q 460 576 502 576 q 359 549 403 576 q 290 476 315 523 q 265 366 265 429 q 290 255 265 303 q 358 181 314 208 q 459 154 402 154 q 551 172 506 154 q 621 216 595 190 l 689 62 q 580 12 644 31 q 458 -8 517 -8 z "},"ć":{"ha":781,"x_min":84,"x_max":689,"o":"m 458 -8 q 263 39 347 -8 q 132 171 179 87 q 84 367 84 256 q 131 560 84 476 q 259 691 177 644 q 450 738 342 738 q 576 717 510 738 q 688 662 642 696 l 618 511 q 546 558 589 540 q 460 576 502 576 q 359 549 403 576 q 290 476 315 523 q 265 366 265 429 q 290 255 265 303 q 358 181 314 208 q 459 154 402 154 q 551 172 506 154 q 621 216 595 190 l 689 62 q 580 12 644 31 q 458 -8 517 -8 m 452 787 l 372 857 l 557 1108 l 667 1002 l 452 787 z "},"č":{"ha":781,"x_min":84,"x_max":699,"o":"m 458 -8 q 263 39 347 -8 q 132 171 179 87 q 84 367 84 256 q 131 560 84 476 q 259 691 177 644 q 450 738 342 738 q 576 717 510 738 q 688 662 642 696 l 618 511 q 546 558 589 540 q 460 576 502 576 q 359 549 403 576 q 290 476 315 523 q 265 366 265 429 q 290 255 265 303 q 358 181 314 208 q 459 154 402 154 q 551 172 506 154 q 621 216 595 190 l 689 62 q 580 12 644 31 q 458 -8 517 -8 m 277 1079 l 450 922 l 455 922 l 625 1079 l 699 991 l 471 788 l 431 788 l 204 991 l 277 1079 z "},"ç":{"ha":781,"x_min":84,"x_max":689,"o":"m 458 -8 q 263 39 347 -8 q 132 171 179 87 q 84 367 84 256 q 131 560 84 476 q 259 691 177 644 q 450 738 342 738 q 576 717 510 738 q 688 662 642 696 l 618 511 q 546 558 589 540 q 460 576 502 576 q 359 549 403 576 q 290 476 315 523 q 265 366 265 429 q 290 255 265 303 q 358 181 314 208 q 459 154 402 154 q 551 172 506 154 q 621 216 595 190 l 689 62 q 580 12 644 31 q 458 -8 517 -8 m 338 -338 l 338 -243 q 440 -230 408 -246 q 473 -186 473 -214 q 447 -150 473 -165 q 373 -132 420 -135 l 416 0 l 498 0 l 460 -111 l 452 -67 q 549 -110 513 -77 q 585 -196 585 -143 q 525 -300 585 -260 q 338 -338 465 -340 z "},"ḉ":{"ha":781,"x_min":84,"x_max":689,"o":"m 458 -8 q 263 39 347 -8 q 132 171 179 87 q 84 367 84 256 q 131 560 84 476 q 259 691 177 644 q 450 738 342 738 q 576 717 510 738 q 688 662 642 696 l 618 511 q 546 558 589 540 q 460 576 502 576 q 359 549 403 576 q 290 476 315 523 q 265 366 265 429 q 290 255 265 303 q 358 181 314 208 q 459 154 402 154 q 551 172 506 154 q 621 216 595 190 l 689 62 q 580 12 644 31 q 458 -8 517 -8 m 338 -338 l 338 -243 q 440 -230 408 -246 q 473 -186 473 -214 q 447 -150 473 -165 q 373 -132 420 -135 l 416 0 l 498 0 l 460 -111 l 452 -67 q 549 -110 513 -77 q 585 -196 585 -143 q 525 -300 585 -260 q 338 -338 465 -340 m 452 787 l 372 857 l 557 1108 l 667 1002 l 452 787 z "},"ĉ":{"ha":781,"x_min":84,"x_max":700,"o":"m 458 -8 q 263 39 347 -8 q 132 171 179 87 q 84 367 84 256 q 131 560 84 476 q 259 691 177 644 q 450 738 342 738 q 576 717 510 738 q 688 662 642 696 l 618 511 q 546 558 589 540 q 460 576 502 576 q 359 549 403 576 q 290 476 315 523 q 265 366 265 429 q 290 255 265 303 q 358 181 314 208 q 459 154 402 154 q 551 172 506 154 q 621 216 595 190 l 689 62 q 580 12 644 31 q 458 -8 517 -8 m 277 784 l 204 872 l 431 1075 l 471 1075 l 699 872 l 625 784 l 455 941 l 450 941 l 277 784 z "},"ċ":{"ha":781,"x_min":84,"x_max":689,"o":"m 458 -8 q 263 39 347 -8 q 132 171 179 87 q 84 367 84 256 q 131 560 84 476 q 259 691 177 644 q 450 738 342 738 q 576 717 510 738 q 688 662 642 696 l 618 511 q 546 558 589 540 q 460 576 502 576 q 359 549 403 576 q 290 476 315 523 q 265 366 265 429 q 290 255 265 303 q 358 181 314 208 q 459 154 402 154 q 551 172 506 154 q 621 216 595 190 l 689 62 q 580 12 644 31 q 458 -8 517 -8 m 452 819 q 368 853 402 819 q 334 938 334 888 q 368 1022 334 988 q 452 1057 402 1057 q 537 1022 503 1057 q 571 938 571 988 q 537 853 571 888 q 452 819 503 819 z "},"d":{"ha":781,"x_min":52,"x_max":749,"o":"m 684 -11 q 586 48 625 13 q 539 119 547 83 l 555 106 l 499 106 l 527 191 l 527 585 l 497 659 l 513 659 l 513 1044 l 699 1044 l 699 238 q 712 183 699 208 q 749 148 726 158 l 684 -11 m 327 -11 q 182 35 244 -11 q 86 165 120 81 q 52 364 52 250 q 87 562 52 477 q 184 692 121 646 q 331 738 247 738 q 476 692 414 738 q 571 561 537 646 q 606 364 606 477 q 571 166 606 250 q 474 36 536 82 q 327 -11 412 -11 m 375 148 q 452 175 419 148 q 503 250 485 201 q 522 364 522 299 q 504 477 522 429 q 454 552 486 526 q 378 578 422 578 q 301 552 334 578 q 251 477 269 526 q 233 364 233 429 q 250 250 233 299 q 299 175 267 201 q 375 148 332 148 z "},"ď":{"ha":781,"x_min":28,"x_max":777,"o":"m 269 -11 q 137 34 191 -11 q 56 162 83 78 q 28 364 28 246 q 56 566 28 482 q 135 693 83 649 q 258 738 186 738 q 382 693 331 738 q 460 566 433 649 q 487 364 487 482 q 462 162 487 246 q 389 34 437 78 q 269 -11 340 -11 m 306 148 q 360 174 338 148 q 396 248 383 199 q 408 364 408 296 q 396 479 408 431 q 362 553 384 527 q 309 578 340 578 q 255 553 278 578 q 219 479 232 527 q 207 364 207 431 q 219 248 207 296 q 253 174 231 199 q 306 148 275 148 m 590 -11 q 486 48 525 14 q 437 119 447 82 l 449 106 l 399 106 l 412 191 l 412 585 l 387 659 l 400 659 l 400 1044 l 585 1044 l 585 238 q 605 183 585 207 q 654 148 625 159 l 590 -11 m 627 709 l 629 1044 l 777 1044 l 755 709 l 627 709 z "},"đ":{"ha":781,"x_min":52,"x_max":814,"o":"m 684 -11 q 586 48 625 13 q 539 119 547 83 l 555 106 l 499 106 l 527 191 l 527 585 l 497 659 l 513 659 l 513 1044 l 699 1044 l 699 238 q 712 183 699 208 q 749 148 726 158 l 684 -11 m 327 -11 q 182 35 244 -11 q 86 165 120 81 q 52 364 52 250 q 87 562 52 477 q 184 692 121 646 q 331 738 247 738 q 476 692 414 738 q 571 561 537 646 q 606 364 606 477 q 571 166 606 250 q 474 36 536 82 q 327 -11 412 -11 m 375 148 q 452 175 419 148 q 503 250 485 201 q 522 364 522 299 q 504 477 522 429 q 454 552 486 526 q 378 578 422 578 q 301 552 334 578 q 251 477 269 526 q 233 364 233 429 q 250 250 233 299 q 299 175 267 201 q 375 148 332 148 m 399 820 l 399 925 l 814 925 l 814 820 l 399 820 z "},"ḍ":{"ha":781,"x_min":52,"x_max":749,"o":"m 684 -11 q 586 48 625 13 q 539 119 547 83 l 555 106 l 499 106 l 527 191 l 527 585 l 497 659 l 513 659 l 513 1044 l 699 1044 l 699 238 q 712 183 699 208 q 749 148 726 158 l 684 -11 m 327 -11 q 182 35 244 -11 q 86 165 120 81 q 52 364 52 250 q 87 562 52 477 q 184 692 121 646 q 331 738 247 738 q 476 692 414 738 q 571 561 537 646 q 606 364 606 477 q 571 166 606 250 q 474 36 536 82 q 327 -11 412 -11 m 375 148 q 452 175 419 148 q 503 250 485 201 q 522 364 522 299 q 504 477 522 429 q 454 552 486 526 q 378 578 422 578 q 301 552 334 578 q 251 477 269 526 q 233 364 233 429 q 250 250 233 299 q 299 175 267 201 q 375 148 332 148 m 389 -318 q 304 -283 338 -318 q 270 -199 270 -249 q 304 -114 270 -149 q 389 -80 338 -80 q 473 -114 439 -80 q 507 -199 507 -149 q 473 -283 507 -249 q 389 -318 439 -318 z "},"ḏ":{"ha":781,"x_min":52,"x_max":749,"o":"m 684 -11 q 586 48 625 13 q 539 119 547 83 l 555 106 l 499 106 l 527 191 l 527 585 l 497 659 l 513 659 l 513 1044 l 699 1044 l 699 238 q 712 183 699 208 q 749 148 726 158 l 684 -11 m 327 -11 q 182 35 244 -11 q 86 165 120 81 q 52 364 52 250 q 87 562 52 477 q 184 692 121 646 q 331 738 247 738 q 476 692 414 738 q 571 561 537 646 q 606 364 606 477 q 571 166 606 250 q 474 36 536 82 q 327 -11 412 -11 m 375 148 q 452 175 419 148 q 503 250 485 201 q 522 364 522 299 q 504 477 522 429 q 454 552 486 526 q 378 578 422 578 q 301 552 334 578 q 251 477 269 526 q 233 364 233 429 q 250 250 233 299 q 299 175 267 201 q 375 148 332 148 m 123 -281 l 123 -166 l 654 -166 l 654 -281 l 123 -281 z "},"ǆ":{"ha":781,"x_min":17,"x_max":768,"o":"m 166 -11 q 55 85 94 -11 q 17 365 17 182 q 53 642 17 547 q 157 738 88 738 q 260 642 227 738 q 292 364 292 546 q 262 85 292 181 q 166 -11 232 -11 m 203 144 q 245 200 232 144 q 258 365 258 257 q 245 527 258 471 q 205 583 233 583 q 163 527 177 583 q 149 365 149 471 q 163 200 149 257 q 203 144 177 144 m 361 -11 q 291 47 316 14 q 262 115 265 81 l 277 94 l 241 94 l 262 168 l 262 574 l 220 669 l 251 669 l 251 1044 l 384 1044 l 384 201 q 393 169 384 182 q 418 146 401 155 l 361 -11 m 416 0 l 416 33 l 597 589 l 597 592 l 450 592 l 450 726 l 757 726 l 757 691 l 577 138 l 577 134 l 750 134 l 750 0 l 416 0 m 576 804 l 416 973 l 480 1053 l 591 926 l 593 926 l 704 1053 l 768 973 l 608 804 l 576 804 z "},"ð":{"ha":781,"x_min":41,"x_max":741,"o":"m 387 -11 q 214 36 293 -11 q 89 163 136 82 q 41 348 41 244 q 85 526 41 447 q 201 652 128 606 q 365 699 275 699 q 447 686 405 699 q 522 650 490 674 q 566 591 555 627 l 534 629 l 581 629 l 557 602 q 495 724 534 667 q 405 829 457 781 q 290 915 353 877 q 155 981 227 954 l 227 1128 q 439 1004 345 1074 q 602 846 534 933 q 705 656 669 759 q 741 433 741 553 q 695 198 741 298 q 570 44 650 98 q 387 -11 490 -11 m 391 155 q 478 183 440 156 q 538 256 517 210 q 560 359 560 302 q 538 459 560 417 q 477 523 516 500 q 391 546 439 546 q 305 522 343 546 q 244 456 267 498 q 222 356 222 413 q 244 252 222 298 q 306 180 267 206 q 391 155 345 155 m 208 750 l 155 829 l 593 1126 l 658 1027 l 208 750 z "},"e":{"ha":781,"x_min":62,"x_max":720,"o":"m 423 -11 q 233 36 315 -11 q 107 166 152 82 q 62 362 62 250 q 104 559 62 475 q 224 690 147 644 q 404 737 301 737 q 569 695 498 737 q 680 577 640 653 q 720 399 720 500 q 717 346 720 373 q 710 300 715 318 l 210 300 l 210 422 l 542 422 q 524 508 542 471 q 474 566 506 545 q 399 587 441 587 q 310 559 348 587 q 250 483 271 532 q 229 367 229 433 q 253 249 229 300 q 321 171 277 199 q 424 143 366 143 q 517 158 471 143 q 591 199 562 174 l 651 55 q 548 7 610 26 q 423 -11 485 -11 z "},"é":{"ha":781,"x_min":62,"x_max":720,"o":"m 423 -11 q 233 36 315 -11 q 107 166 152 82 q 62 362 62 250 q 104 559 62 475 q 224 690 147 644 q 404 737 301 737 q 569 695 498 737 q 680 577 640 653 q 720 399 720 500 q 717 346 720 373 q 710 300 715 318 l 210 300 l 210 422 l 542 422 q 524 508 542 471 q 474 566 506 545 q 399 587 441 587 q 310 559 348 587 q 250 483 271 532 q 229 367 229 433 q 253 249 229 300 q 321 171 277 199 q 424 143 366 143 q 517 158 471 143 q 591 199 562 174 l 651 55 q 548 7 610 26 q 423 -11 485 -11 m 401 787 l 320 857 l 506 1108 l 616 1002 l 401 787 z "},"ĕ":{"ha":781,"x_min":62,"x_max":720,"o":"m 423 -11 q 233 36 315 -11 q 107 166 152 82 q 62 362 62 250 q 104 559 62 475 q 224 690 147 644 q 404 737 301 737 q 569 695 498 737 q 680 577 640 653 q 720 399 720 500 q 717 346 720 373 q 710 300 715 318 l 210 300 l 210 422 l 542 422 q 524 508 542 471 q 474 566 506 545 q 399 587 441 587 q 310 559 348 587 q 250 483 271 532 q 229 367 229 433 q 253 249 229 300 q 321 171 277 199 q 424 143 366 143 q 517 158 471 143 q 591 199 562 174 l 651 55 q 548 7 610 26 q 423 -11 485 -11 m 399 812 q 275 843 331 812 q 186 924 219 873 q 154 1038 154 975 l 271 1038 q 308 952 271 987 q 399 917 345 917 q 492 952 455 917 q 530 1038 529 987 l 646 1038 q 614 924 647 975 q 526 843 581 873 q 399 812 470 812 z "},"ě":{"ha":781,"x_min":62,"x_max":720,"o":"m 423 -11 q 233 36 315 -11 q 107 166 152 82 q 62 362 62 250 q 104 559 62 475 q 224 690 147 644 q 404 737 301 737 q 569 695 498 737 q 680 577 640 653 q 720 399 720 500 q 717 346 720 373 q 710 300 715 318 l 210 300 l 210 422 l 542 422 q 524 508 542 471 q 474 566 506 545 q 399 587 441 587 q 310 559 348 587 q 250 483 271 532 q 229 367 229 433 q 253 249 229 300 q 321 171 277 199 q 424 143 366 143 q 517 158 471 143 q 591 199 562 174 l 651 55 q 548 7 610 26 q 423 -11 485 -11 m 225 1079 l 398 922 l 404 922 l 574 1079 l 648 991 l 419 788 l 380 788 l 153 991 l 225 1079 z "},"ḝ":{"ha":781,"x_min":62,"x_max":720,"o":"m 423 -11 q 233 36 315 -11 q 107 166 152 82 q 62 362 62 250 q 104 559 62 475 q 224 690 147 644 q 404 737 301 737 q 569 695 498 737 q 680 577 640 653 q 720 399 720 500 q 717 346 720 373 q 710 300 715 318 l 210 300 l 210 422 l 542 422 q 524 508 542 471 q 474 566 506 545 q 399 587 441 587 q 310 559 348 587 q 250 483 271 532 q 229 367 229 433 q 253 249 229 300 q 321 171 277 199 q 424 143 366 143 q 517 158 471 143 q 591 199 562 174 l 651 55 q 548 7 610 26 q 423 -11 485 -11 m 300 -338 l 300 -243 q 402 -230 370 -246 q 435 -186 435 -214 q 409 -150 435 -165 q 335 -132 382 -135 l 378 0 l 460 0 l 422 -111 l 414 -67 q 511 -110 475 -77 q 547 -196 547 -143 q 487 -300 547 -260 q 300 -338 427 -340 m 399 812 q 275 843 331 812 q 186 924 219 873 q 154 1038 154 975 l 271 1038 q 308 952 271 987 q 399 917 345 917 q 492 952 455 917 q 530 1038 529 987 l 646 1038 q 614 924 647 975 q 526 843 581 873 q 399 812 470 812 z "},"ê":{"ha":781,"x_min":62,"x_max":720,"o":"m 423 -11 q 233 36 315 -11 q 107 166 152 82 q 62 362 62 250 q 104 559 62 475 q 224 690 147 644 q 404 737 301 737 q 569 695 498 737 q 680 577 640 653 q 720 399 720 500 q 717 346 720 373 q 710 300 715 318 l 210 300 l 210 422 l 542 422 q 524 508 542 471 q 474 566 506 545 q 399 587 441 587 q 310 559 348 587 q 250 483 271 532 q 229 367 229 433 q 253 249 229 300 q 321 171 277 199 q 424 143 366 143 q 517 158 471 143 q 591 199 562 174 l 651 55 q 548 7 610 26 q 423 -11 485 -11 m 225 784 l 153 872 l 380 1075 l 419 1075 l 648 872 l 574 784 l 404 941 l 398 941 l 225 784 z "},"ế":{"ha":781,"x_min":62,"x_max":831,"o":"m 423 -11 q 233 36 315 -11 q 107 166 152 82 q 62 362 62 250 q 104 559 62 475 q 224 690 147 644 q 404 737 301 737 q 569 695 498 737 q 680 577 640 653 q 720 399 720 500 q 717 346 720 373 q 710 300 715 318 l 210 300 l 210 422 l 542 422 q 524 508 542 471 q 474 566 506 545 q 399 587 441 587 q 310 559 348 587 q 250 483 271 532 q 229 367 229 433 q 253 249 229 300 q 321 171 277 199 q 424 143 366 143 q 517 158 471 143 q 591 199 562 174 l 651 55 q 548 7 610 26 q 423 -11 485 -11 m 616 979 l 532 1039 l 742 1257 l 831 1139 l 616 979 m 235 795 l 150 882 l 381 1045 l 420 1045 l 650 882 l 568 795 l 401 920 l 397 920 l 235 795 z "},"ệ":{"ha":781,"x_min":62,"x_max":720,"o":"m 423 -11 q 233 36 315 -11 q 107 166 152 82 q 62 362 62 250 q 104 559 62 475 q 224 690 147 644 q 404 737 301 737 q 569 695 498 737 q 680 577 640 653 q 720 399 720 500 q 717 346 720 373 q 710 300 715 318 l 210 300 l 210 422 l 542 422 q 524 508 542 471 q 474 566 506 545 q 399 587 441 587 q 310 559 348 587 q 250 483 271 532 q 229 367 229 433 q 253 249 229 300 q 321 171 277 199 q 424 143 366 143 q 517 158 471 143 q 591 199 562 174 l 651 55 q 548 7 610 26 q 423 -11 485 -11 m 405 -318 q 320 -283 355 -318 q 286 -199 286 -249 q 320 -114 286 -149 q 405 -80 355 -80 q 490 -114 456 -80 q 524 -199 524 -149 q 490 -283 524 -249 q 405 -318 456 -318 m 225 784 l 153 872 l 380 1075 l 419 1075 l 648 872 l 574 784 l 404 941 l 398 941 l 225 784 z "},"ề":{"ha":781,"x_min":-29,"x_max":720,"o":"m 423 -11 q 233 36 315 -11 q 107 166 152 82 q 62 362 62 250 q 104 559 62 475 q 224 690 147 644 q 404 737 301 737 q 569 695 498 737 q 680 577 640 653 q 720 399 720 500 q 717 346 720 373 q 710 300 715 318 l 210 300 l 210 422 l 542 422 q 524 508 542 471 q 474 566 506 545 q 399 587 441 587 q 310 559 348 587 q 250 483 271 532 q 229 367 229 433 q 253 249 229 300 q 321 171 277 199 q 424 143 366 143 q 517 158 471 143 q 591 199 562 174 l 651 55 q 548 7 610 26 q 423 -11 485 -11 m 186 979 l -29 1139 l 60 1257 l 269 1039 l 186 979 m 567 795 l 404 920 l 401 920 l 235 795 l 152 882 l 382 1045 l 421 1045 l 652 882 l 567 795 z "},"ể":{"ha":781,"x_min":62,"x_max":720,"o":"m 423 -11 q 233 36 315 -11 q 107 166 152 82 q 62 362 62 250 q 104 559 62 475 q 224 690 147 644 q 404 737 301 737 q 569 695 498 737 q 680 577 640 653 q 720 399 720 500 q 717 346 720 373 q 710 300 715 318 l 210 300 l 210 422 l 542 422 q 524 508 542 471 q 474 566 506 545 q 399 587 441 587 q 310 559 348 587 q 250 483 271 532 q 229 367 229 433 q 253 249 229 300 q 321 171 277 199 q 424 143 366 143 q 517 158 471 143 q 591 199 562 174 l 651 55 q 548 7 610 26 q 423 -11 485 -11 m 601 980 l 532 1031 q 567 1065 553 1048 q 580 1099 580 1083 q 563 1133 580 1121 q 513 1145 546 1145 q 480 1142 497 1145 q 444 1132 463 1139 l 444 1244 q 487 1255 458 1251 q 539 1258 516 1258 q 650 1226 608 1258 q 692 1126 692 1194 q 678 1063 692 1092 q 642 1014 663 1035 q 601 980 621 992 m 236 795 l 151 882 l 382 1045 l 421 1045 l 652 882 l 568 795 l 403 920 l 399 920 l 236 795 z "},"ễ":{"ha":781,"x_min":62,"x_max":720,"o":"m 423 -11 q 233 36 315 -11 q 107 166 152 82 q 62 362 62 250 q 104 559 62 475 q 224 690 147 644 q 404 737 301 737 q 569 695 498 737 q 680 577 640 653 q 720 399 720 500 q 717 346 720 373 q 710 300 715 318 l 210 300 l 210 422 l 542 422 q 524 508 542 471 q 474 566 506 545 q 399 587 441 587 q 310 559 348 587 q 250 483 271 532 q 229 367 229 433 q 253 249 229 300 q 321 171 277 199 q 424 143 366 143 q 517 158 471 143 q 591 199 562 174 l 651 55 q 548 7 610 26 q 423 -11 485 -11 m 156 1067 q 195 1206 154 1152 q 307 1259 236 1259 q 368 1248 343 1259 q 410 1221 393 1236 q 444 1194 428 1205 q 481 1182 460 1182 q 517 1203 505 1182 q 530 1259 530 1225 l 647 1259 q 632 1162 648 1205 q 585 1093 616 1118 q 507 1067 554 1067 q 446 1079 471 1067 q 404 1106 422 1090 q 370 1134 386 1122 q 335 1146 354 1146 q 290 1126 308 1146 q 270 1067 271 1107 l 156 1067 m 235 795 l 151 882 l 381 1045 l 420 1045 l 651 882 l 568 795 l 402 920 l 398 920 l 235 795 z "},"ȅ":{"ha":781,"x_min":62,"x_max":720,"o":"m 423 -11 q 233 36 315 -11 q 107 166 152 82 q 62 362 62 250 q 104 559 62 475 q 224 690 147 644 q 404 737 301 737 q 569 695 498 737 q 680 577 640 653 q 720 399 720 500 q 717 346 720 373 q 710 300 715 318 l 210 300 l 210 422 l 542 422 q 524 508 542 471 q 474 566 506 545 q 399 587 441 587 q 310 559 348 587 q 250 483 271 532 q 229 367 229 433 q 253 249 229 300 q 321 171 277 199 q 424 143 366 143 q 517 158 471 143 q 591 199 562 174 l 651 55 q 548 7 610 26 q 423 -11 485 -11 m 505 797 l 353 1032 l 480 1094 l 604 821 l 505 797 m 269 797 l 115 1032 l 241 1094 l 366 821 l 269 797 z "},"ë":{"ha":781,"x_min":62,"x_max":720,"o":"m 423 -11 q 233 36 315 -11 q 107 166 152 82 q 62 362 62 250 q 104 559 62 475 q 224 690 147 644 q 404 737 301 737 q 569 695 498 737 q 680 577 640 653 q 720 399 720 500 q 717 346 720 373 q 710 300 715 318 l 210 300 l 210 422 l 542 422 q 524 508 542 471 q 474 566 506 545 q 399 587 441 587 q 310 559 348 587 q 250 483 271 532 q 229 367 229 433 q 253 249 229 300 q 321 171 277 199 q 424 143 366 143 q 517 158 471 143 q 591 199 562 174 l 651 55 q 548 7 610 26 q 423 -11 485 -11 m 557 829 q 479 861 511 829 q 448 939 448 893 q 479 1017 448 985 q 557 1048 511 1048 q 635 1017 604 1048 q 667 939 667 985 q 635 861 667 893 q 557 829 604 829 m 244 829 q 167 861 199 829 q 135 939 135 893 q 167 1017 135 985 q 244 1048 199 1048 q 322 1017 291 1048 q 354 939 354 985 q 322 861 354 893 q 244 829 291 829 z "},"ė":{"ha":781,"x_min":62,"x_max":720,"o":"m 423 -11 q 233 36 315 -11 q 107 166 152 82 q 62 362 62 250 q 104 559 62 475 q 224 690 147 644 q 404 737 301 737 q 569 695 498 737 q 680 577 640 653 q 720 399 720 500 q 717 346 720 373 q 710 300 715 318 l 210 300 l 210 422 l 542 422 q 524 508 542 471 q 474 566 506 545 q 399 587 441 587 q 310 559 348 587 q 250 483 271 532 q 229 367 229 433 q 253 249 229 300 q 321 171 277 199 q 424 143 366 143 q 517 158 471 143 q 591 199 562 174 l 651 55 q 548 7 610 26 q 423 -11 485 -11 m 401 819 q 316 853 351 819 q 282 938 282 888 q 316 1022 282 988 q 401 1057 351 1057 q 486 1022 452 1057 q 519 938 519 988 q 486 853 519 888 q 401 819 452 819 z "},"ẹ":{"ha":781,"x_min":62,"x_max":720,"o":"m 423 -11 q 233 36 315 -11 q 107 166 152 82 q 62 362 62 250 q 104 559 62 475 q 224 690 147 644 q 404 737 301 737 q 569 695 498 737 q 680 577 640 653 q 720 399 720 500 q 717 346 720 373 q 710 300 715 318 l 210 300 l 210 422 l 542 422 q 524 508 542 471 q 474 566 506 545 q 399 587 441 587 q 310 559 348 587 q 250 483 271 532 q 229 367 229 433 q 253 249 229 300 q 321 171 277 199 q 424 143 366 143 q 517 158 471 143 q 591 199 562 174 l 651 55 q 548 7 610 26 q 423 -11 485 -11 m 405 -318 q 320 -283 355 -318 q 286 -199 286 -249 q 320 -114 286 -149 q 405 -80 355 -80 q 490 -114 456 -80 q 524 -199 524 -149 q 490 -283 524 -249 q 405 -318 456 -318 z "},"è":{"ha":781,"x_min":62,"x_max":720,"o":"m 423 -11 q 233 36 315 -11 q 107 166 152 82 q 62 362 62 250 q 104 559 62 475 q 224 690 147 644 q 404 737 301 737 q 569 695 498 737 q 680 577 640 653 q 720 399 720 500 q 717 346 720 373 q 710 300 715 318 l 210 300 l 210 422 l 542 422 q 524 508 542 471 q 474 566 506 545 q 399 587 441 587 q 310 559 348 587 q 250 483 271 532 q 229 367 229 433 q 253 249 229 300 q 321 171 277 199 q 424 143 366 143 q 517 158 471 143 q 591 199 562 174 l 651 55 q 548 7 610 26 q 423 -11 485 -11 m 401 787 l 186 1002 l 296 1108 l 482 857 l 401 787 z "},"ẻ":{"ha":781,"x_min":62,"x_max":720,"o":"m 423 -11 q 233 36 315 -11 q 107 166 152 82 q 62 362 62 250 q 104 559 62 475 q 224 690 147 644 q 404 737 301 737 q 569 695 498 737 q 680 577 640 653 q 720 399 720 500 q 717 346 720 373 q 710 300 715 318 l 210 300 l 210 422 l 542 422 q 524 508 542 471 q 474 566 506 545 q 399 587 441 587 q 310 559 348 587 q 250 483 271 532 q 229 367 229 433 q 253 249 229 300 q 321 171 277 199 q 424 143 366 143 q 517 158 471 143 q 591 199 562 174 l 651 55 q 548 7 610 26 q 423 -11 485 -11 m 424 786 l 356 854 q 392 885 376 867 q 408 924 408 903 q 391 955 408 944 q 343 966 374 966 q 309 963 330 966 q 273 954 288 960 l 273 1064 q 315 1076 287 1072 q 365 1080 343 1080 q 479 1046 437 1080 q 522 949 522 1013 q 491 848 522 892 q 424 786 460 804 z "},"ȇ":{"ha":781,"x_min":62,"x_max":720,"o":"m 423 -11 q 233 36 315 -11 q 107 166 152 82 q 62 362 62 250 q 104 559 62 475 q 224 690 147 644 q 404 737 301 737 q 569 695 498 737 q 680 577 640 653 q 720 399 720 500 q 717 346 720 373 q 710 300 715 318 l 210 300 l 210 422 l 542 422 q 524 508 542 471 q 474 566 506 545 q 399 587 441 587 q 310 559 348 587 q 250 483 271 532 q 229 367 229 433 q 253 249 229 300 q 321 171 277 199 q 424 143 366 143 q 517 158 471 143 q 591 199 562 174 l 651 55 q 548 7 610 26 q 423 -11 485 -11 m 399 1043 q 526 1013 470 1043 q 614 932 581 983 q 646 817 647 881 l 530 817 q 492 904 529 869 q 399 939 455 939 q 308 904 345 939 q 271 817 271 869 l 154 817 q 186 932 154 881 q 275 1013 219 983 q 399 1043 331 1043 z "},"ē":{"ha":781,"x_min":62,"x_max":720,"o":"m 423 -11 q 233 36 315 -11 q 107 166 152 82 q 62 362 62 250 q 104 559 62 475 q 224 690 147 644 q 404 737 301 737 q 569 695 498 737 q 680 577 640 653 q 720 399 720 500 q 717 346 720 373 q 710 300 715 318 l 210 300 l 210 422 l 542 422 q 524 508 542 471 q 474 566 506 545 q 399 587 441 587 q 310 559 348 587 q 250 483 271 532 q 229 367 229 433 q 253 249 229 300 q 321 171 277 199 q 424 143 366 143 q 517 158 471 143 q 591 199 562 174 l 651 55 q 548 7 610 26 q 423 -11 485 -11 m 135 857 l 135 971 l 665 971 l 665 857 l 135 857 z "},"ḗ":{"ha":781,"x_min":62,"x_max":720,"o":"m 423 -11 q 233 36 315 -11 q 107 166 152 82 q 62 362 62 250 q 104 559 62 475 q 224 690 147 644 q 404 737 301 737 q 569 695 498 737 q 680 577 640 653 q 720 399 720 500 q 717 346 720 373 q 710 300 715 318 l 210 300 l 210 422 l 542 422 q 524 508 542 471 q 474 566 506 545 q 399 587 441 587 q 310 559 348 587 q 250 483 271 532 q 229 367 229 433 q 253 249 229 300 q 321 171 277 199 q 424 143 366 143 q 517 158 471 143 q 591 199 562 174 l 651 55 q 548 7 610 26 q 423 -11 485 -11 m 135 857 l 135 971 l 665 971 l 665 857 l 135 857 m 401 1039 l 320 1109 l 506 1360 l 616 1253 l 401 1039 z "},"ḕ":{"ha":781,"x_min":62,"x_max":720,"o":"m 423 -11 q 233 36 315 -11 q 107 166 152 82 q 62 362 62 250 q 104 559 62 475 q 224 690 147 644 q 404 737 301 737 q 569 695 498 737 q 680 577 640 653 q 720 399 720 500 q 717 346 720 373 q 710 300 715 318 l 210 300 l 210 422 l 542 422 q 524 508 542 471 q 474 566 506 545 q 399 587 441 587 q 310 559 348 587 q 250 483 271 532 q 229 367 229 433 q 253 249 229 300 q 321 171 277 199 q 424 143 366 143 q 517 158 471 143 q 591 199 562 174 l 651 55 q 548 7 610 26 q 423 -11 485 -11 m 135 857 l 135 971 l 665 971 l 665 857 l 135 857 m 401 1039 l 186 1253 l 296 1360 l 482 1109 l 401 1039 z "},"ę":{"ha":781,"x_min":62,"x_max":720,"o":"m 423 -11 q 233 36 315 -11 q 107 166 152 82 q 62 362 62 250 q 104 559 62 475 q 224 690 147 644 q 404 737 301 737 q 569 695 498 737 q 680 577 640 653 q 720 399 720 500 q 717 346 720 373 q 710 300 715 318 l 210 300 l 210 422 l 542 422 q 524 508 542 471 q 474 566 506 545 q 399 587 441 587 q 310 559 348 587 q 250 483 271 532 q 229 367 229 433 q 253 249 229 300 q 321 171 277 199 q 424 143 366 143 q 517 158 471 143 q 591 199 562 174 l 651 55 q 548 7 610 26 q 423 -11 485 -11 m 554 -234 q 452 -198 492 -234 q 413 -102 413 -161 q 451 -3 413 -47 q 555 86 489 41 l 651 55 q 592 10 620 32 q 547 -35 564 -12 q 530 -81 530 -57 q 544 -114 530 -102 q 587 -126 559 -126 q 627 -120 606 -126 q 657 -107 648 -115 l 657 -214 q 608 -228 640 -222 q 554 -234 576 -234 z "},"ẽ":{"ha":781,"x_min":62,"x_max":720,"o":"m 423 -11 q 233 36 315 -11 q 107 166 152 82 q 62 362 62 250 q 104 559 62 475 q 224 690 147 644 q 404 737 301 737 q 569 695 498 737 q 680 577 640 653 q 720 399 720 500 q 717 346 720 373 q 710 300 715 318 l 210 300 l 210 422 l 542 422 q 524 508 542 471 q 474 566 506 545 q 399 587 441 587 q 310 559 348 587 q 250 483 271 532 q 229 367 229 433 q 253 249 229 300 q 321 171 277 199 q 424 143 366 143 q 517 158 471 143 q 591 199 562 174 l 651 55 q 548 7 610 26 q 423 -11 485 -11 m 147 818 q 191 969 147 913 q 303 1024 234 1024 q 367 1010 341 1024 q 410 978 392 996 q 445 947 429 960 q 480 933 461 933 q 519 960 507 933 q 531 1024 532 986 l 651 1024 q 608 874 651 930 q 494 818 564 818 q 432 832 457 818 q 389 864 408 846 q 354 896 371 882 q 317 910 337 910 q 279 885 292 910 q 267 818 267 859 l 147 818 z "},"ə":{"ha":781,"x_min":54,"x_max":730,"o":"m 379 -11 q 212 33 286 -11 q 96 153 138 77 q 54 328 54 230 q 57 385 54 357 q 64 427 60 412 l 582 427 l 582 304 l 232 304 q 251 218 232 256 q 305 160 271 181 q 384 140 339 140 q 478 169 438 140 q 541 248 519 198 q 563 359 563 298 q 536 477 563 427 q 463 556 510 528 q 357 584 416 584 q 288 575 322 584 q 227 554 254 567 q 184 528 199 541 l 125 672 q 226 719 164 700 q 359 737 288 737 q 553 690 470 737 q 683 559 637 644 q 730 364 730 475 q 682 165 730 250 q 555 35 634 81 q 379 -11 475 -11 z "},"f":{"ha":781,"x_min":81,"x_max":746,"o":"m 250 0 l 250 777 q 288 933 250 869 q 392 1031 326 998 q 540 1065 458 1065 q 647 1051 592 1065 q 746 1010 701 1037 l 677 863 q 621 891 653 881 q 560 901 589 901 q 472 869 506 901 q 437 779 437 837 l 437 0 l 250 0 m 81 566 l 81 726 l 690 726 l 690 566 l 81 566 z "},"g":{"ha":781,"x_min":54,"x_max":695,"o":"m 359 -296 q 214 -274 282 -296 q 108 -228 146 -253 l 170 -78 q 252 -121 208 -104 q 337 -137 296 -137 q 417 -120 374 -137 q 490 -68 460 -104 q 519 26 519 -32 l 519 105 l 500 105 l 529 172 l 529 574 l 483 650 l 525 650 l 525 726 l 695 726 l 695 36 q 670 -109 695 -47 q 600 -213 645 -172 q 493 -275 554 -254 q 359 -296 431 -296 m 335 9 q 235 33 284 9 q 144 101 185 56 q 79 215 103 146 q 54 373 54 283 q 97 575 54 494 q 205 696 139 656 q 341 737 271 737 q 484 690 422 737 q 582 563 547 644 q 616 382 616 482 q 579 195 616 279 q 478 60 542 110 q 335 9 414 9 m 380 165 q 456 193 422 165 q 508 268 489 220 q 527 379 527 316 q 508 487 527 441 q 457 557 490 532 q 384 582 425 582 q 309 557 342 582 q 256 486 275 532 q 237 378 237 440 q 255 269 237 316 q 306 193 274 221 q 380 165 338 165 z "},"ǵ":{"ha":781,"x_min":54,"x_max":695,"o":"m 359 -296 q 214 -274 282 -296 q 108 -228 146 -253 l 170 -78 q 252 -121 208 -104 q 337 -137 296 -137 q 417 -120 374 -137 q 490 -68 460 -104 q 519 26 519 -32 l 519 105 l 500 105 l 529 172 l 529 574 l 483 650 l 525 650 l 525 726 l 695 726 l 695 36 q 670 -109 695 -47 q 600 -213 645 -172 q 493 -275 554 -254 q 359 -296 431 -296 m 335 9 q 235 33 284 9 q 144 101 185 56 q 79 215 103 146 q 54 373 54 283 q 97 575 54 494 q 205 696 139 656 q 341 737 271 737 q 484 690 422 737 q 582 563 547 644 q 616 382 616 482 q 579 195 616 279 q 478 60 542 110 q 335 9 414 9 m 380 165 q 456 193 422 165 q 508 268 489 220 q 527 379 527 316 q 508 487 527 441 q 457 557 490 532 q 384 582 425 582 q 309 557 342 582 q 256 486 275 532 q 237 378 237 440 q 255 269 237 316 q 306 193 274 221 q 380 165 338 165 m 375 787 l 294 857 l 480 1108 l 590 1002 l 375 787 z "},"ğ":{"ha":781,"x_min":54,"x_max":695,"o":"m 359 -296 q 214 -274 282 -296 q 108 -228 146 -253 l 170 -78 q 252 -121 208 -104 q 337 -137 296 -137 q 417 -120 374 -137 q 490 -68 460 -104 q 519 26 519 -32 l 519 105 l 500 105 l 529 172 l 529 574 l 483 650 l 525 650 l 525 726 l 695 726 l 695 36 q 670 -109 695 -47 q 600 -213 645 -172 q 493 -275 554 -254 q 359 -296 431 -296 m 335 9 q 235 33 284 9 q 144 101 185 56 q 79 215 103 146 q 54 373 54 283 q 97 575 54 494 q 205 696 139 656 q 341 737 271 737 q 484 690 422 737 q 582 563 547 644 q 616 382 616 482 q 579 195 616 279 q 478 60 542 110 q 335 9 414 9 m 380 165 q 456 193 422 165 q 508 268 489 220 q 527 379 527 316 q 508 487 527 441 q 457 557 490 532 q 384 582 425 582 q 309 557 342 582 q 256 486 275 532 q 237 378 237 440 q 255 269 237 316 q 306 193 274 221 q 380 165 338 165 m 374 812 q 249 843 305 812 q 161 924 193 873 q 128 1038 128 975 l 245 1038 q 282 952 245 987 q 374 917 319 917 q 466 952 429 917 q 504 1038 503 987 l 621 1038 q 588 924 621 975 q 500 843 555 873 q 374 812 444 812 z "},"ǧ":{"ha":781,"x_min":54,"x_max":695,"o":"m 359 -296 q 214 -274 282 -296 q 108 -228 146 -253 l 170 -78 q 252 -121 208 -104 q 337 -137 296 -137 q 417 -120 374 -137 q 490 -68 460 -104 q 519 26 519 -32 l 519 105 l 500 105 l 529 172 l 529 574 l 483 650 l 525 650 l 525 726 l 695 726 l 695 36 q 670 -109 695 -47 q 600 -213 645 -172 q 493 -275 554 -254 q 359 -296 431 -296 m 335 9 q 235 33 284 9 q 144 101 185 56 q 79 215 103 146 q 54 373 54 283 q 97 575 54 494 q 205 696 139 656 q 341 737 271 737 q 484 690 422 737 q 582 563 547 644 q 616 382 616 482 q 579 195 616 279 q 478 60 542 110 q 335 9 414 9 m 380 165 q 456 193 422 165 q 508 268 489 220 q 527 379 527 316 q 508 487 527 441 q 457 557 490 532 q 384 582 425 582 q 309 557 342 582 q 256 486 275 532 q 237 378 237 440 q 255 269 237 316 q 306 193 274 221 q 380 165 338 165 m 199 1079 l 372 922 l 378 922 l 548 1079 l 623 991 l 393 788 l 354 788 l 127 991 l 199 1079 z "},"ĝ":{"ha":781,"x_min":54,"x_max":695,"o":"m 359 -296 q 214 -274 282 -296 q 108 -228 146 -253 l 170 -78 q 252 -121 208 -104 q 337 -137 296 -137 q 417 -120 374 -137 q 490 -68 460 -104 q 519 26 519 -32 l 519 105 l 500 105 l 529 172 l 529 574 l 483 650 l 525 650 l 525 726 l 695 726 l 695 36 q 670 -109 695 -47 q 600 -213 645 -172 q 493 -275 554 -254 q 359 -296 431 -296 m 335 9 q 235 33 284 9 q 144 101 185 56 q 79 215 103 146 q 54 373 54 283 q 97 575 54 494 q 205 696 139 656 q 341 737 271 737 q 484 690 422 737 q 582 563 547 644 q 616 382 616 482 q 579 195 616 279 q 478 60 542 110 q 335 9 414 9 m 380 165 q 456 193 422 165 q 508 268 489 220 q 527 379 527 316 q 508 487 527 441 q 457 557 490 532 q 384 582 425 582 q 309 557 342 582 q 256 486 275 532 q 237 378 237 440 q 255 269 237 316 q 306 193 274 221 q 380 165 338 165 m 199 784 l 127 872 l 354 1075 l 393 1075 l 622 872 l 548 784 l 378 941 l 372 941 l 199 784 z "},"ģ":{"ha":781,"x_min":54,"x_max":695,"o":"m 359 -296 q 214 -274 282 -296 q 108 -228 146 -253 l 170 -78 q 252 -121 208 -104 q 337 -137 296 -137 q 417 -120 374 -137 q 490 -68 460 -104 q 519 26 519 -32 l 519 105 l 500 105 l 529 172 l 529 574 l 483 650 l 525 650 l 525 726 l 695 726 l 695 36 q 670 -109 695 -47 q 600 -213 645 -172 q 493 -275 554 -254 q 359 -296 431 -296 m 335 9 q 235 33 284 9 q 144 101 185 56 q 79 215 103 146 q 54 373 54 283 q 97 575 54 494 q 205 696 139 656 q 341 737 271 737 q 484 690 422 737 q 582 563 547 644 q 616 382 616 482 q 579 195 616 279 q 478 60 542 110 q 335 9 414 9 m 380 165 q 456 193 422 165 q 508 268 489 220 q 527 379 527 316 q 508 487 527 441 q 457 557 490 532 q 384 582 425 582 q 309 557 342 582 q 256 486 275 532 q 237 378 237 440 q 255 269 237 316 q 306 193 274 221 q 380 165 338 165 m 427 1145 l 466 1097 l 406 1045 q 380 1017 393 1032 q 358 986 367 1002 q 349 957 349 970 l 326 956 q 338 985 328 972 q 374 998 349 998 q 430 974 402 998 q 458 911 458 950 q 432 850 458 873 q 374 827 406 827 q 312 851 338 827 q 286 924 286 876 q 300 996 286 964 q 333 1050 315 1028 q 365 1085 352 1073 l 427 1145 z "},"ġ":{"ha":781,"x_min":54,"x_max":695,"o":"m 359 -296 q 214 -274 282 -296 q 108 -228 146 -253 l 170 -78 q 252 -121 208 -104 q 337 -137 296 -137 q 417 -120 374 -137 q 490 -68 460 -104 q 519 26 519 -32 l 519 105 l 500 105 l 529 172 l 529 574 l 483 650 l 525 650 l 525 726 l 695 726 l 695 36 q 670 -109 695 -47 q 600 -213 645 -172 q 493 -275 554 -254 q 359 -296 431 -296 m 335 9 q 235 33 284 9 q 144 101 185 56 q 79 215 103 146 q 54 373 54 283 q 97 575 54 494 q 205 696 139 656 q 341 737 271 737 q 484 690 422 737 q 582 563 547 644 q 616 382 616 482 q 579 195 616 279 q 478 60 542 110 q 335 9 414 9 m 380 165 q 456 193 422 165 q 508 268 489 220 q 527 379 527 316 q 508 487 527 441 q 457 557 490 532 q 384 582 425 582 q 309 557 342 582 q 256 486 275 532 q 237 378 237 440 q 255 269 237 316 q 306 193 274 221 q 380 165 338 165 m 375 819 q 291 853 325 819 q 256 938 256 888 q 291 1022 256 988 q 375 1057 325 1057 q 460 1022 426 1057 q 494 938 494 988 q 460 853 494 888 q 375 819 426 819 z "},"ḡ":{"ha":781,"x_min":54,"x_max":695,"o":"m 359 -296 q 214 -274 282 -296 q 108 -228 146 -253 l 170 -78 q 252 -121 208 -104 q 337 -137 296 -137 q 417 -120 374 -137 q 490 -68 460 -104 q 519 26 519 -32 l 519 105 l 500 105 l 529 172 l 529 574 l 483 650 l 525 650 l 525 726 l 695 726 l 695 36 q 670 -109 695 -47 q 600 -213 645 -172 q 493 -275 554 -254 q 359 -296 431 -296 m 335 9 q 235 33 284 9 q 144 101 185 56 q 79 215 103 146 q 54 373 54 283 q 97 575 54 494 q 205 696 139 656 q 341 737 271 737 q 484 690 422 737 q 582 563 547 644 q 616 382 616 482 q 579 195 616 279 q 478 60 542 110 q 335 9 414 9 m 380 165 q 456 193 422 165 q 508 268 489 220 q 527 379 527 316 q 508 487 527 441 q 457 557 490 532 q 384 582 425 582 q 309 557 342 582 q 256 486 275 532 q 237 378 237 440 q 255 269 237 316 q 306 193 274 221 q 380 165 338 165 m 109 857 l 109 971 l 640 971 l 640 857 l 109 857 z "},"h":{"ha":781,"x_min":83,"x_max":703,"o":"m 83 0 l 83 1044 l 270 1044 l 270 655 l 306 655 l 240 587 q 286 669 252 635 q 369 720 321 703 q 469 737 416 737 q 597 702 545 737 q 676 606 650 666 q 703 473 703 546 l 703 0 l 515 0 l 515 433 q 483 543 515 506 q 398 579 450 579 q 334 563 363 579 q 288 513 305 546 q 270 431 270 479 l 270 0 l 83 0 z "},"ħ":{"ha":781,"x_min":-30,"x_max":703,"o":"m 83 0 l 83 1044 l 270 1044 l 270 655 l 306 655 l 240 587 q 286 669 252 635 q 369 720 321 703 q 469 737 416 737 q 597 702 545 737 q 676 606 650 666 q 703 473 703 546 l 703 0 l 515 0 l 515 433 q 483 543 515 506 q 398 579 450 579 q 334 563 363 579 q 288 513 305 546 q 270 431 270 479 l 270 0 l 83 0 m -30 820 l -30 925 l 385 925 l 385 820 l -30 820 z "},"ḫ":{"ha":781,"x_min":83,"x_max":703,"o":"m 83 0 l 83 1044 l 270 1044 l 270 655 l 306 655 l 240 587 q 286 669 252 635 q 369 720 321 703 q 469 737 416 737 q 597 702 545 737 q 676 606 650 666 q 703 473 703 546 l 703 0 l 515 0 l 515 433 q 483 543 515 506 q 398 579 450 579 q 334 563 363 579 q 288 513 305 546 q 270 431 270 479 l 270 0 l 83 0 m 391 -306 q 266 -276 322 -306 q 178 -195 210 -245 q 145 -80 145 -144 l 262 -80 q 299 -166 262 -132 q 391 -201 336 -201 q 483 -166 446 -201 q 521 -80 520 -132 l 637 -80 q 605 -195 638 -144 q 517 -276 572 -245 q 391 -306 461 -306 z "},"ĥ":{"ha":781,"x_min":-74,"x_max":703,"o":"m 83 0 l 83 1044 l 270 1044 l 270 655 l 306 655 l 240 587 q 286 669 252 635 q 369 720 321 703 q 469 737 416 737 q 597 702 545 737 q 676 606 650 666 q 703 473 703 546 l 703 0 l 515 0 l 515 433 q 483 543 515 506 q 398 579 450 579 q 334 563 363 579 q 288 513 305 546 q 270 431 270 479 l 270 0 l 83 0 m 11 1089 l -74 1178 l 157 1342 l 196 1342 l 427 1178 l 344 1089 l 178 1216 l 174 1216 l 11 1089 z "},"ḥ":{"ha":781,"x_min":83,"x_max":703,"o":"m 83 0 l 83 1044 l 270 1044 l 270 655 l 306 655 l 240 587 q 286 669 252 635 q 369 720 321 703 q 469 737 416 737 q 597 702 545 737 q 676 606 650 666 q 703 473 703 546 l 703 0 l 515 0 l 515 433 q 483 543 515 506 q 398 579 450 579 q 334 563 363 579 q 288 513 305 546 q 270 431 270 479 l 270 0 l 83 0 m 392 -318 q 308 -283 342 -318 q 273 -199 273 -249 q 308 -114 273 -149 q 392 -80 342 -80 q 477 -114 443 -80 q 511 -199 511 -149 q 477 -283 511 -249 q 392 -318 443 -318 z "},"i":{"ha":781,"x_min":123,"x_max":551,"o":"m 338 0 l 338 726 l 525 726 l 525 0 l 338 0 m 123 566 l 123 726 l 525 726 l 525 566 l 123 566 m 432 819 q 348 853 382 819 q 313 938 313 888 q 348 1022 313 988 q 432 1057 382 1057 q 517 1022 483 1057 q 551 938 551 988 q 517 853 551 888 q 432 819 483 819 z "},"ı":{"ha":781,"x_min":123,"x_max":525,"o":"m 338 0 l 338 726 l 525 726 l 525 0 l 338 0 m 123 566 l 123 726 l 525 726 l 525 566 l 123 566 z "},"í":{"ha":781,"x_min":123,"x_max":647,"o":"m 338 0 l 338 726 l 525 726 l 525 0 l 338 0 m 123 566 l 123 726 l 525 726 l 525 566 l 123 566 m 432 787 l 351 857 l 537 1108 l 647 1002 l 432 787 z "},"ĭ":{"ha":781,"x_min":123,"x_max":678,"o":"m 338 0 l 338 726 l 525 726 l 525 0 l 338 0 m 123 566 l 123 726 l 525 726 l 525 566 l 123 566 m 431 812 q 306 843 362 812 q 218 924 250 873 q 185 1038 185 975 l 302 1038 q 339 952 302 987 q 431 917 376 917 q 523 952 486 917 q 561 1038 560 987 l 677 1038 q 645 924 678 975 q 557 843 612 873 q 431 812 501 812 z "},"ǐ":{"ha":781,"x_min":123,"x_max":680,"o":"m 338 0 l 338 726 l 525 726 l 525 0 l 338 0 m 123 566 l 123 726 l 525 726 l 525 566 l 123 566 m 256 1079 l 429 922 l 435 922 l 605 1079 l 680 991 l 450 788 l 412 788 l 184 991 l 256 1079 z "},"î":{"ha":781,"x_min":123,"x_max":680,"o":"m 338 0 l 338 726 l 525 726 l 525 0 l 338 0 m 123 566 l 123 726 l 525 726 l 525 566 l 123 566 m 257 784 l 184 872 l 412 1075 l 451 1075 l 680 872 l 606 784 l 435 941 l 430 941 l 257 784 z "},"ȉ":{"ha":781,"x_min":123,"x_max":635,"o":"m 338 0 l 338 726 l 525 726 l 525 0 l 338 0 m 123 566 l 123 726 l 525 726 l 525 566 l 123 566 m 536 797 l 384 1032 l 511 1094 l 635 821 l 536 797 m 300 797 l 146 1032 l 272 1094 l 397 821 l 300 797 z "},"ï":{"ha":781,"x_min":123,"x_max":698,"o":"m 338 0 l 338 726 l 525 726 l 525 0 l 338 0 m 123 566 l 123 726 l 525 726 l 525 566 l 123 566 m 589 829 q 511 861 543 829 q 479 939 479 893 q 511 1017 479 985 q 589 1048 543 1048 q 666 1017 635 1048 q 698 939 698 985 q 666 861 698 893 q 589 829 635 829 m 275 829 q 198 861 230 829 q 166 939 166 893 q 198 1017 166 985 q 275 1048 230 1048 q 354 1017 322 1048 q 385 939 385 985 q 354 861 385 893 q 275 829 322 829 z "},"ḯ":{"ha":781,"x_min":123,"x_max":698,"o":"m 338 0 l 338 726 l 525 726 l 525 0 l 338 0 m 123 566 l 123 726 l 525 726 l 525 566 l 123 566 m 589 829 q 511 861 543 829 q 479 939 479 893 q 511 1017 479 985 q 589 1048 543 1048 q 666 1017 635 1048 q 698 939 698 985 q 666 861 698 893 q 589 829 635 829 m 275 829 q 198 861 230 829 q 166 939 166 893 q 198 1017 166 985 q 275 1048 230 1048 q 354 1017 322 1048 q 385 939 385 985 q 354 861 385 893 q 275 829 322 829 m 432 1062 l 351 1132 l 537 1383 l 647 1276 l 432 1062 z "},"ị":{"ha":781,"x_min":123,"x_max":551,"o":"m 338 0 l 338 726 l 525 726 l 525 0 l 338 0 m 123 566 l 123 726 l 525 726 l 525 566 l 123 566 m 432 819 q 348 853 382 819 q 313 938 313 888 q 348 1022 313 988 q 432 1057 382 1057 q 517 1022 483 1057 q 551 938 551 988 q 517 853 551 888 q 432 819 483 819 m 433 -318 q 348 -283 382 -318 q 314 -199 314 -249 q 348 -114 314 -149 q 433 -80 382 -80 q 517 -114 484 -80 q 551 -199 551 -149 q 517 -283 551 -249 q 433 -318 484 -318 z "},"ì":{"ha":781,"x_min":123,"x_max":525,"o":"m 338 0 l 338 726 l 525 726 l 525 0 l 338 0 m 123 566 l 123 726 l 525 726 l 525 566 l 123 566 m 433 787 l 218 1002 l 328 1108 l 513 857 l 433 787 z "},"ỉ":{"ha":781,"x_min":123,"x_max":553,"o":"m 338 0 l 338 726 l 525 726 l 525 0 l 338 0 m 123 566 l 123 726 l 525 726 l 525 566 l 123 566 m 455 786 l 387 854 q 424 885 408 867 q 439 924 439 903 q 422 955 439 944 q 374 966 406 966 q 340 963 361 966 q 304 954 319 960 l 304 1064 q 346 1076 318 1072 q 396 1080 374 1080 q 510 1046 468 1080 q 553 949 553 1013 q 522 848 553 892 q 455 786 492 804 z "},"ȋ":{"ha":781,"x_min":123,"x_max":678,"o":"m 338 0 l 338 726 l 525 726 l 525 0 l 338 0 m 123 566 l 123 726 l 525 726 l 525 566 l 123 566 m 431 1043 q 557 1013 501 1043 q 645 932 612 983 q 677 817 678 881 l 561 817 q 524 904 560 869 q 431 939 487 939 q 339 904 376 939 q 302 817 302 869 l 186 817 q 218 932 186 881 q 306 1013 250 983 q 431 1043 362 1043 z "},"ī":{"ha":781,"x_min":123,"x_max":696,"o":"m 338 0 l 338 726 l 525 726 l 525 0 l 338 0 m 123 566 l 123 726 l 525 726 l 525 566 l 123 566 m 167 857 l 167 971 l 697 971 l 697 857 l 167 857 z "},"į":{"ha":781,"x_min":123,"x_max":551,"o":"m 338 0 l 338 726 l 525 726 l 525 0 l 338 0 m 123 566 l 123 726 l 525 726 l 525 566 l 123 566 m 432 819 q 348 853 382 819 q 313 938 313 888 q 348 1022 313 988 q 432 1057 382 1057 q 517 1022 483 1057 q 551 938 551 988 q 517 853 551 888 q 432 819 483 819 m 427 -289 q 326 -253 365 -289 q 286 -157 286 -216 q 324 -58 286 -102 q 428 31 362 -14 l 524 0 q 465 -45 493 -23 q 420 -90 437 -67 q 403 -136 403 -112 q 417 -169 403 -157 q 460 -181 432 -181 q 500 -175 479 -181 q 530 -162 521 -170 l 530 -269 q 481 -283 513 -277 q 427 -289 450 -289 z "},"ĩ":{"ha":781,"x_min":123,"x_max":682,"o":"m 338 0 l 338 726 l 525 726 l 525 0 l 338 0 m 123 566 l 123 726 l 525 726 l 525 566 l 123 566 m 178 818 q 222 969 178 913 q 334 1024 265 1024 q 398 1010 372 1024 q 441 978 423 996 q 476 947 460 960 q 511 933 492 933 q 550 960 538 933 q 562 1024 563 986 l 682 1024 q 639 874 682 930 q 526 818 595 818 q 464 832 488 818 q 420 864 439 846 q 385 896 402 882 q 348 910 368 910 q 311 885 323 910 q 298 818 298 859 l 178 818 z "},"j":{"ha":781,"x_min":43,"x_max":620,"o":"m 283 -296 q 158 -280 219 -296 q 43 -237 96 -264 l 107 -83 q 187 -119 142 -106 q 271 -133 231 -133 q 337 -121 306 -133 q 388 -83 368 -109 q 408 -16 408 -58 l 408 726 l 595 726 l 595 -22 q 581 -115 595 -72 q 540 -191 567 -157 q 475 -247 513 -224 q 389 -283 437 -271 q 283 -296 340 -296 m 163 558 l 163 726 l 595 726 l 595 558 l 163 558 m 501 819 q 417 853 451 819 q 382 938 382 888 q 417 1022 382 988 q 501 1057 451 1057 q 586 1022 552 1057 q 620 938 620 988 q 586 853 620 888 q 501 819 552 819 z "},"ȷ":{"ha":781,"x_min":43,"x_max":595,"o":"m 283 -296 q 158 -280 219 -296 q 43 -237 96 -264 l 107 -83 q 187 -119 142 -106 q 271 -133 231 -133 q 337 -121 306 -133 q 388 -83 368 -109 q 408 -16 408 -58 l 408 726 l 595 726 l 595 -22 q 581 -115 595 -72 q 540 -191 567 -157 q 475 -247 513 -224 q 389 -283 437 -271 q 283 -296 340 -296 m 163 558 l 163 726 l 595 726 l 595 558 l 163 558 z "},"ĵ":{"ha":781,"x_min":43,"x_max":749,"o":"m 283 -296 q 158 -280 219 -296 q 43 -237 96 -264 l 107 -83 q 187 -119 142 -106 q 271 -133 231 -133 q 337 -121 306 -133 q 388 -83 368 -109 q 408 -16 408 -58 l 408 726 l 595 726 l 595 -22 q 581 -115 595 -72 q 540 -191 567 -157 q 475 -247 513 -224 q 389 -283 437 -271 q 283 -296 340 -296 m 163 558 l 163 726 l 595 726 l 595 558 l 163 558 m 326 784 l 253 872 l 480 1075 l 519 1075 l 748 872 l 674 784 l 504 941 l 498 941 l 326 784 z "},"k":{"ha":781,"x_min":92,"x_max":762,"o":"m 92 0 l 92 1044 l 279 1044 l 279 437 l 335 437 l 274 404 l 524 726 l 747 726 l 415 327 l 415 433 l 762 0 l 538 0 l 272 351 l 335 315 l 279 315 l 279 0 l 92 0 z "},"ķ":{"ha":781,"x_min":92,"x_max":762,"o":"m 92 0 l 92 1044 l 279 1044 l 279 437 l 335 437 l 274 404 l 524 726 l 747 726 l 415 327 l 415 433 l 762 0 l 538 0 l 272 351 l 335 315 l 279 315 l 279 0 l 92 0 m 351 -409 l 312 -360 l 372 -309 q 398 -281 385 -296 q 420 -250 412 -265 q 429 -220 429 -234 l 452 -220 q 440 -249 451 -235 q 404 -262 429 -262 q 348 -238 376 -262 q 320 -175 320 -214 q 347 -113 320 -136 q 404 -90 373 -90 q 467 -115 441 -90 q 492 -188 492 -139 q 478 -260 492 -228 q 445 -314 463 -292 q 413 -349 426 -337 l 351 -409 z "},"ĸ":{"ha":781,"x_min":87,"x_max":769,"o":"m 87 0 l 87 727 l 275 727 l 275 432 l 331 432 l 269 398 l 530 727 l 753 727 l 410 321 l 410 428 l 769 0 l 546 0 l 267 345 l 331 309 l 275 309 l 275 0 l 87 0 z "},"l":{"ha":781,"x_min":190,"x_max":707,"o":"m 478 -11 q 328 24 393 -11 q 227 121 263 59 q 190 263 190 182 l 190 1044 l 377 1044 l 377 269 q 412 184 377 217 q 503 152 446 152 q 576 166 538 152 q 642 205 614 181 l 707 51 q 598 6 659 23 q 478 -11 536 -11 z "},"ĺ":{"ha":781,"x_min":190,"x_max":707,"o":"m 478 -11 q 328 24 393 -11 q 227 121 263 59 q 190 263 190 182 l 190 1044 l 377 1044 l 377 269 q 412 184 377 217 q 503 152 446 152 q 576 166 538 152 q 642 205 614 181 l 707 51 q 598 6 659 23 q 478 -11 536 -11 m 283 1105 l 202 1175 l 388 1426 l 498 1320 l 283 1105 z "},"ľ":{"ha":781,"x_min":190,"x_max":707,"o":"m 478 -11 q 328 24 393 -11 q 227 121 263 59 q 190 263 190 182 l 190 1044 l 377 1044 l 377 269 q 412 184 377 217 q 503 152 446 152 q 576 166 538 152 q 642 205 614 181 l 707 51 q 598 6 659 23 q 478 -11 536 -11 m 519 709 l 520 1044 l 668 1044 l 648 709 l 519 709 z "},"ļ":{"ha":781,"x_min":190,"x_max":707,"o":"m 478 -11 q 328 24 393 -11 q 227 121 263 59 q 190 263 190 182 l 190 1044 l 377 1044 l 377 269 q 412 184 377 217 q 503 152 446 152 q 576 166 538 152 q 642 205 614 181 l 707 51 q 598 6 659 23 q 478 -11 536 -11 m 385 -409 l 346 -360 l 406 -309 q 432 -281 418 -296 q 454 -250 446 -265 q 463 -220 463 -234 l 486 -220 q 474 -249 485 -235 q 438 -262 463 -262 q 382 -238 410 -262 q 354 -175 354 -214 q 380 -113 354 -136 q 438 -90 407 -90 q 500 -115 475 -90 q 526 -188 526 -139 q 512 -260 526 -228 q 478 -314 497 -292 q 447 -349 460 -337 l 385 -409 z "},"ŀ":{"ha":781,"x_min":190,"x_max":819,"o":"m 478 -11 q 328 24 393 -11 q 227 121 263 59 q 190 263 190 182 l 190 1044 l 377 1044 l 377 269 q 412 184 377 217 q 503 152 446 152 q 576 166 538 152 q 642 205 614 181 l 707 51 q 598 6 659 23 q 478 -11 536 -11 m 694 389 q 606 425 642 389 q 570 513 570 460 q 606 601 570 566 q 694 637 642 637 q 783 601 747 637 q 819 513 819 566 q 783 425 819 460 q 694 389 747 389 z "},"ḷ":{"ha":781,"x_min":190,"x_max":707,"o":"m 478 -11 q 328 24 393 -11 q 227 121 263 59 q 190 263 190 182 l 190 1044 l 377 1044 l 377 269 q 412 184 377 217 q 503 152 446 152 q 576 166 538 152 q 642 205 614 181 l 707 51 q 598 6 659 23 q 478 -11 536 -11 m 436 -318 q 352 -283 386 -318 q 317 -199 317 -249 q 352 -114 317 -149 q 436 -80 386 -80 q 521 -114 487 -80 q 555 -199 555 -149 q 521 -283 555 -249 q 436 -318 487 -318 z "},"ḹ":{"ha":781,"x_min":17,"x_max":707,"o":"m 478 -11 q 328 24 393 -11 q 227 121 263 59 q 190 263 190 182 l 190 1044 l 377 1044 l 377 269 q 412 184 377 217 q 503 152 446 152 q 576 166 538 152 q 642 205 614 181 l 707 51 q 598 6 659 23 q 478 -11 536 -11 m 436 -318 q 352 -283 386 -318 q 317 -199 317 -249 q 352 -114 317 -149 q 436 -80 386 -80 q 521 -114 487 -80 q 555 -199 555 -149 q 521 -283 555 -249 q 436 -318 487 -318 m 17 1175 l 17 1289 l 547 1289 l 547 1175 l 17 1175 z "},"ǉ":{"ha":781,"x_min":111,"x_max":737,"o":"m 494 -296 q 401 -280 449 -296 q 316 -237 353 -264 l 363 -102 q 426 -136 391 -122 q 487 -151 460 -151 q 545 -124 524 -151 q 566 -57 566 -98 l 566 726 l 708 726 l 708 -61 q 649 -232 708 -168 q 494 -296 590 -296 m 306 -11 q 165 50 218 -11 q 111 210 111 111 l 111 1044 l 254 1044 l 254 216 q 272 161 254 180 q 320 141 291 141 q 356 148 338 141 q 395 166 375 154 l 441 28 q 375 0 409 10 q 306 -11 341 -11 m 418 578 l 418 726 l 708 726 l 708 578 l 418 578 m 632 826 q 556 857 585 826 q 526 935 526 887 q 556 1014 526 984 q 632 1044 585 1044 q 708 1014 680 1044 q 737 935 737 984 q 708 857 737 887 q 632 826 680 826 z "},"ḻ":{"ha":781,"x_min":171,"x_max":707,"o":"m 478 -11 q 328 24 393 -11 q 227 121 263 59 q 190 263 190 182 l 190 1044 l 377 1044 l 377 269 q 412 184 377 217 q 503 152 446 152 q 576 166 538 152 q 642 205 614 181 l 707 51 q 598 6 659 23 q 478 -11 536 -11 m 171 -281 l 171 -166 l 701 -166 l 701 -281 l 171 -281 z "},"ł":{"ha":781,"x_min":48,"x_max":707,"o":"m 94 386 l 48 495 l 210 580 l 353 645 l 475 714 l 519 607 l 353 515 l 210 451 l 94 386 m 478 -11 q 328 24 393 -11 q 227 121 263 59 q 190 263 190 182 l 190 1044 l 377 1044 l 377 269 q 412 184 377 217 q 503 152 446 152 q 576 166 538 152 q 642 205 614 181 l 707 51 q 598 6 659 23 q 478 -11 536 -11 z "},"m":{"ha":781,"x_min":50,"x_max":735,"o":"m 50 0 l 50 726 l 193 726 l 193 641 l 213 641 l 182 608 q 236 703 201 669 q 323 737 271 737 q 405 706 370 737 q 449 623 440 674 l 427 650 l 458 650 l 433 623 q 490 705 448 673 q 589 737 532 737 q 663 718 634 737 q 707 669 692 699 q 729 604 723 638 q 735 538 735 569 l 735 0 l 574 0 l 574 522 q 561 573 574 554 q 520 592 547 592 q 478 574 495 592 q 461 522 461 556 l 461 0 l 323 0 l 323 522 q 309 574 323 557 q 269 592 295 592 q 227 574 244 592 q 210 519 210 555 l 210 0 l 50 0 z "}}}
